<svg width="360" height="360" viewBox="0 0 360 360" fill="none" xmlns="http://www.w3.org/2000/svg"><rect width="360" height="360" rx="80" fill="#fff"/><mask id="path-2-inside-1" fill="#fff"><path fill-rule="evenodd" clip-rule="evenodd" d="M248.889 87H111.111C97.7949 87 87 97.7949 87 111.111V248.889C87 262.205 97.7949 273 111.111 273H248.889C262.205 273 273 262.205 273 248.889V111.111C273 97.7949 262.205 87 248.889 87ZM111.111 56C80.6741 56 56 80.6741 56 111.111V248.889C56 279.326 80.6741 304 111.111 304H248.889C279.326 304 304 279.326 304 248.889V111.111C304 80.6741 279.326 56 248.889 56H111.111Z"/></mask><path fill-rule="evenodd" clip-rule="evenodd" d="M248.889 87H111.111C97.7949 87 87 97.7949 87 111.111V248.889C87 262.205 97.7949 273 111.111 273H248.889C262.205 273 273 262.205 273 248.889V111.111C273 97.7949 262.205 87 248.889 87ZM111.111 56C80.6741 56 56 80.6741 56 111.111V248.889C56 279.326 80.6741 304 111.111 304H248.889C279.326 304 304 279.326 304 248.889V111.111C304 80.6741 279.326 56 248.889 56H111.111Z" fill="url(#paint0_linear)"/><path d="M111.111 132H248.889V42H111.111V132ZM132 111.111C132 122.648 122.648 132 111.111 132V42C72.9421 42 42 72.9421 42 111.111H132ZM132 248.889V111.111H42V248.889H132ZM111.111 228C122.648 228 132 237.352 132 248.889H42C42 287.058 72.9421 318 111.111 318V228ZM248.889 228H111.111V318H248.889V228ZM228 248.889C228 237.352 237.352 228 248.889 228V318C287.058 318 318 287.058 318 248.889H228ZM228 111.111V248.889H318V111.111H228ZM248.889 132C237.352 132 228 122.648 228 111.111H318C318 72.9421 287.058 42 248.889 42V132ZM101 111.111C101 105.527 105.527 101 111.111 101V11C55.8213 11 11 55.8213 11 111.111H101ZM101 248.889V111.111H11V248.889H101ZM111.111 259C105.527 259 101 254.473 101 248.889H11C11 304.179 55.8213 349 111.111 349V259ZM248.889 259H111.111V349H248.889V259ZM259 248.889C259 254.473 254.473 259 248.889 259V349C304.179 349 349 304.179 349 248.889H259ZM259 111.111V248.889H349V111.111H259ZM248.889 101C254.473 101 259 105.527 259 111.111H349C349 55.8213 304.179 11 248.889 11V101ZM111.111 101H248.889V11H111.111V101Z" fill="url(#paint1_linear)" mask="url(#path-2-inside-1)"/><path d="M273 212.912H288V197.912V162.09V147.09H273H216.511C198.334 147.09 183.6 161.825 183.6 180.001C183.6 198.177 198.334 212.912 216.511 212.912H273ZM182.6 180.001C182.6 161.272 197.782 146.09 216.511 146.09H289V213.912H216.511C197.782 213.912 182.6 198.73 182.6 180.001Z" fill="url(#paint2_linear)" stroke="url(#paint3_linear)" stroke-width="30"/><defs><linearGradient id="paint0_linear" x1="180" y1="56" x2="180" y2="304" gradientUnits="userSpaceOnUse"><stop stop-color="#FFD131"/><stop offset="1" stop-color="#EFA792"/></linearGradient><linearGradient id="paint1_linear" x1="180" y1="56" x2="180" y2="304" gradientUnits="userSpaceOnUse"><stop stop-color="#FFD131"/><stop offset="1" stop-color="#EFA792"/></linearGradient><linearGradient id="paint2_linear" x1="235.8" y1="131.09" x2="235.8" y2="228.912" gradientUnits="userSpaceOnUse"><stop stop-color="#FFD131"/><stop offset="1" stop-color="#EFA792"/></linearGradient><linearGradient id="paint3_linear" x1="235.8" y1="131.09" x2="235.8" y2="228.912" gradientUnits="userSpaceOnUse"><stop stop-color="#FFD131"/><stop offset="1" stop-color="#EFA792"/></linearGradient></defs></svg>