<svg fill="none" height="360" viewBox="0 0 360 360" width="360" xmlns="http://www.w3.org/2000/svg" xmlns:xlink="http://www.w3.org/1999/xlink"><linearGradient id="a"><stop offset="0" stop-color="#ffd131"/><stop offset="1" stop-color="#efa792"/></linearGradient><linearGradient id="b" gradientUnits="userSpaceOnUse" x1="180" x2="180" xlink:href="#a" y1="56" y2="304"/><linearGradient id="c" gradientUnits="userSpaceOnUse" x1="235.8" x2="235.8" xlink:href="#a" y1="131.09" y2="228.912"/><mask id="d" fill="#fff"><path clip-rule="evenodd" d="m248.889 87h-137.778c-13.3161 0-24.111 10.7949-24.111 24.111v137.778c0 13.316 10.7949 24.111 24.111 24.111h137.778c13.316 0 24.111-10.795 24.111-24.111v-137.778c0-13.3161-10.795-24.111-24.111-24.111zm-137.778-31c-30.4369 0-55.111 24.6741-55.111 55.111v137.778c0 30.437 24.6741 55.111 55.111 55.111h137.778c30.437 0 55.111-24.674 55.111-55.111v-137.778c0-30.4369-24.674-55.111-55.111-55.111z" fill="#fff" fill-rule="evenodd"/></mask><rect fill="#fff" height="360" rx="80" width="360"/><path clip-rule="evenodd" d="m248.889 87h-137.778c-13.3161 0-24.111 10.7949-24.111 24.111v137.778c0 13.316 10.7949 24.111 24.111 24.111h137.778c13.316 0 24.111-10.795 24.111-24.111v-137.778c0-13.3161-10.795-24.111-24.111-24.111zm-137.778-31c-30.4369 0-55.111 24.6741-55.111 55.111v137.778c0 30.437 24.6741 55.111 55.111 55.111h137.778c30.437 0 55.111-24.674 55.111-55.111v-137.778c0-30.4369-24.674-55.111-55.111-55.111z" fill="url(#b)" fill-rule="evenodd"/><path d="m111.111 132h137.778v-90h-137.778zm20.889-20.889c0 11.537-9.352 20.889-20.889 20.889v-90c-38.1689 0-69.111 30.9421-69.111 69.111zm0 137.778v-137.778h-90v137.778zm-20.889-20.889c11.537 0 20.889 9.352 20.889 20.889h-90c0 38.169 30.9421 69.111 69.111 69.111zm137.778 0h-137.778v90h137.778zm-20.889 20.889c0-11.537 9.352-20.889 20.889-20.889v90c38.169 0 69.111-30.942 69.111-69.111zm0-137.778v137.778h90v-137.778zm20.889 20.889c-11.537 0-20.889-9.352-20.889-20.889h90c0-38.1689-30.942-69.111-69.111-69.111zm-147.889-20.889c0-5.584 4.527-10.111 10.111-10.111v-90c-55.2897 0-100.111 44.8213-100.111 100.111zm0 137.778v-137.778h-90v137.778zm10.111 10.111c-5.584 0-10.111-4.527-10.111-10.111h-90c0 55.29 44.8213 100.111 100.111 100.111zm137.778 0h-137.778v90h137.778zm10.111-10.111c0 5.584-4.527 10.111-10.111 10.111v90c55.29 0 100.111-44.821 100.111-100.111zm0-137.778v137.778h90v-137.778zm-10.111-10.111c5.584 0 10.111 4.527 10.111 10.111h90c0-55.2897-44.821-100.111-100.111-100.111zm-137.778 0h137.778v-90h-137.778z" fill="url(#b)" mask="url(#d)"/><path d="m273 212.912h15v-15-35.822-15h-15-56.489c-18.177 0-32.911 14.735-32.911 32.911s14.734 32.911 32.911 32.911zm-90.4-32.911c0-18.729 15.182-33.911 33.911-33.911h72.489v67.822h-72.489c-18.729 0-33.911-15.182-33.911-33.911z" fill="url(#c)" stroke="url(#c)" stroke-width="30"/></svg>