<svg fill="none" height="40" width="120" xmlns="http://www.w3.org/2000/svg"><linearGradient id="b" gradientUnits="userSpaceOnUse" x1="59.832" x2="59.832" y2="40"><stop offset="0" stop-color="#ffd131"/><stop offset="1" stop-color="#efa792"/></linearGradient><clipPath id="a"><path d="M0 0h119.664v40H0z"/></clipPath><g clip-path="url(#a)"><path d="M110.135 0H9.535c-.367 0-.73 0-1.095.002-.306.002-.61.008-.919.013C6.85.023 6.18.082 5.517.192a6.665 6.665 0 0 0-1.9.627A6.438 6.438 0 0 0 .193 5.522a12.993 12.993 0 0 0-.179 2.002c-.01.306-.01.614-.015.92V31.56c.005.31.006.611.015.922.008.67.068 1.34.18 2.001.11.663.32 1.306.624 1.905.303.598.701 1.143 1.179 1.614.473.477 1.02.875 1.618 1.179a6.7 6.7 0 0 0 1.901.63c.663.11 1.333.169 2.004.177.31.007.613.011.919.011.366.002.728.002 1.095.002h100.6c.359 0 .724 0 1.084-.002.304 0 .617-.004.922-.01a13.27 13.27 0 0 0 2-.177 6.805 6.805 0 0 0 1.908-.631A6.293 6.293 0 0 0 117.666 38a6.403 6.403 0 0 0 1.182-1.614c.302-.6.51-1.242.619-1.905.111-.661.173-1.33.185-2.001.004-.311.004-.612.004-.922.008-.364.008-.725.008-1.094V9.536c0-.366 0-.73-.008-1.092 0-.306 0-.614-.004-.92a13.57 13.57 0 0 0-.185-2.002 6.648 6.648 0 0 0-.619-1.904 6.469 6.469 0 0 0-2.799-2.8 6.77 6.77 0 0 0-1.908-.627c-.661-.11-1.33-.169-2-.176-.305-.005-.618-.011-.922-.013-.36-.002-.725-.002-1.084-.002z" fill="url(#b)"/><path d="M8.443 39.125c-.305 0-.602-.004-.904-.01a12.696 12.696 0 0 1-1.87-.164 5.884 5.884 0 0 1-1.656-.548 5.406 5.406 0 0 1-1.397-1.016 5.321 5.321 0 0 1-1.02-1.397 5.722 5.722 0 0 1-.544-1.657 12.414 12.414 0 0 1-.166-1.875c-.007-.21-.015-.913-.015-.913v-23.1s.009-.692.015-.895a12.37 12.37 0 0 1 .165-1.872 5.756 5.756 0 0 1 .544-1.662c.26-.518.603-.99 1.015-1.398A5.566 5.566 0 0 1 5.666 1.05C6.286.95 6.913.895 7.54.887l.902-.012h102.769l.913.013a12.37 12.37 0 0 1 1.858.162 5.922 5.922 0 0 1 1.671.548 5.589 5.589 0 0 1 2.415 2.42c.261.52.441 1.076.536 1.649.103.624.161 1.255.173 1.887.003.283.003.588.003.89.008.375.008.732.008 1.092v20.929c0 .363 0 .718-.008 1.075 0 .325 0 .623-.004.93-.011.62-.068 1.24-.171 1.853a5.716 5.716 0 0 1-.54 1.67 5.47 5.47 0 0 1-1.015 1.386 5.414 5.414 0 0 1-1.4 1.022 5.855 5.855 0 0 1-1.668.55c-.618.101-1.242.156-1.869.163-.293.007-.599.011-.897.011l-1.084.002z" fill="#fff"/><g fill="#000"><path d="M19.29 13.642c.025.8.586 1.769 2.221 1.763 1.314-.005 2.283-.654 2.279-1.832-.004-.997-.673-1.421-1.584-1.647l-1.003-.25c-.567-.135-.84-.428-.842-.833-.002-.593.493-.933 1.205-.936.8-.003 1.215.431 1.265.967l.874-.003c-.026-1.138-1.02-1.728-2.128-1.724-1.13.004-2.13.627-2.125 1.766.003.958.699 1.412 1.447 1.594l1.011.251c.656.16.964.419.966.893.002.602-.489.986-1.288.99-.88.002-1.351-.457-1.406-1.002zm9.323-3.017l-.887.003.01 2.826c.002.707-.44 1.1-1.055 1.102-.558.002-1.038-.247-1.041-1.082l-.01-2.839-.888.004.01 3.085c.005 1.072.675 1.619 1.628 1.615.747-.002 1.181-.342 1.338-.708h.035l.002.629.875-.003zm3.533 4.69c1.076-.005 1.816-.82 1.811-2.187l-.001-.417c-.005-1.38-.764-2.173-1.801-2.17-.624.003-1.098.308-1.355.748h-.031l-.002-.672-.862.003.022 6.223.888-.003-.008-2.224h.031c.252.416.71.7 1.308.698zm-.17-.747c-.73.002-1.18-.576-1.183-1.486l-.001-.334c-.003-.883.438-1.465 1.155-1.467.694-.003 1.109.536 1.112 1.464l.001.33c.004.97-.434 1.49-1.084 1.493zm5.32.728c1.077-.004 1.816-.82 1.812-2.186l-.002-.418c-.005-1.38-.764-2.172-1.8-2.169-.625.002-1.098.307-1.356.748h-.03l-.003-.672-.861.003.022 6.222.888-.003-.008-2.224h.03c.252.417.71.7 1.308.699zm-.17-.747c-.73.003-1.18-.575-1.183-1.485v-.334c-.004-.883.438-1.465 1.154-1.468.694-.002 1.11.537 1.113 1.464v.33c.004.97-.433 1.491-1.084 1.493zm4.921-4.051c-1.323.004-2.036.947-2.031 2.2l.001.386c.005 1.288.724 2.208 2.047 2.204 1.318-.005 2.023-.93 2.018-2.218l-.001-.391c-.005-1.253-.72-2.186-2.034-2.181zm-.002.729c.752-.003 1.14.59 1.144 1.477v.356c.004.879-.376 1.487-1.132 1.49-.751.002-1.145-.607-1.148-1.482l-.001-.356c-.003-.883.386-1.482 1.137-1.485zm3.143 3.97l.897-.003-.01-2.795c-.002-.624.255-1.117 1.055-1.12.15 0 .312.008.395.025l-.002-.795a2.226 2.226 0 0 0-.312-.021c-.65.002-.997.381-1.119.663h-.03l-.003-.589-.887.003zm3.732-4.645l-.641.002.002.72.633-.001.01 2.61c.003.923.281 1.335 1.397 1.331.18 0 .356-.019.43-.032l-.002-.69c-.061.004-.132.009-.21.01-.541.001-.73-.139-.733-.666l-.009-2.567.91-.003-.003-.72-.91.003-.003-1.143-.875.003zm4.93-.018l-.64.003.002.72.633-.002.009 2.61c.003.923.282 1.335 1.398 1.331.18 0 .356-.019.43-.032l-.002-.69c-.061.005-.132.01-.21.01-.542.002-.73-.138-.733-.666l-.009-2.566.91-.003-.003-.721-.91.003-.004-1.142-.874.003zm2.927 4.622l.887-.004-.01-2.786c-.002-.62.33-1.139 1.064-1.142.62-.002 1.06.357 1.063 1.113l.01 2.808.888-.003-.01-2.975c-.005-1.13-.701-1.73-1.65-1.726-.756.003-1.177.409-1.338.712h-.031l-.008-2.315-.888.003zm5.163-.019l.888-.003-.017-4.632-.887.003zm-.117-5.76a.525.525 0 0 0 .542.52.525.525 0 0 0 .539-.525c-.001-.298-.244-.522-.543-.52s-.54.225-.538.524zm2.14 2.461c.003.844.703 1.123 1.556 1.296.629.12 1.16.21 1.163.707.001.365-.297.674-.952.676-.575.002-.919-.26-.978-.656l-.865.004c.003.83.708 1.342 1.784 1.338 1.139-.004 1.88-.543 1.876-1.475-.003-.887-.698-1.14-1.565-1.29-.527-.095-1.16-.19-1.162-.69-.002-.418.362-.652.876-.654.668-.002.88.379.908.713l.809-.003c-.003-.8-.599-1.395-1.693-1.391-.918.003-1.76.432-1.757 1.425zm8.638 3.331c1.077-.004 1.817-.82 1.812-2.186l-.002-.417c-.004-1.38-.763-2.173-1.8-2.17-.624.003-1.098.308-1.356.748h-.03l-.003-.672-.861.003.022 6.223.888-.004-.008-2.223h.03c.253.416.71.7 1.308.698zm-.17-.746c-.729.002-1.179-.576-1.182-1.486l-.001-.334c-.004-.883.438-1.465 1.154-1.467.695-.003 1.11.536 1.113 1.464l.001.33c.004.97-.434 1.49-1.084 1.493zm3.088.666l.897-.004-.01-2.795c-.003-.624.255-1.117 1.055-1.12.15 0 .312.008.395.025l-.003-.795a2.21 2.21 0 0 0-.312-.021c-.65.002-.996.382-1.118.663h-.03l-.003-.588-.887.003zm4.989-4.73c-1.323.005-2.036.948-2.032 2.2l.002.388c.004 1.287.724 2.207 2.047 2.203 1.318-.005 2.022-.93 2.018-2.218l-.002-.391c-.004-1.253-.72-2.186-2.033-2.181zm-.002.73c.751-.003 1.14.59 1.143 1.477l.002.356c.003.879-.377 1.487-1.133 1.49-.752.002-1.145-.607-1.148-1.482l-.001-.356c-.004-.883.385-1.482 1.137-1.485zm3.07-1.79a.525.525 0 0 0 .542.52.525.525 0 0 0 .539-.525.525.525 0 0 0-.543-.52.526.526 0 0 0-.538.524zm.984 1.125l-.884.003.017 4.738c.002.58-.172.835-.63.837-.096 0-.21-.008-.276-.021l.002.677c.07.017.299.038.453.038.822-.003 1.338-.454 1.335-1.526zm3.154 4.7c1.099-.004 1.703-.635 1.854-1.391l-.857.003c-.13.413-.472.67-.982.671-.699.003-1.131-.55-1.134-1.37v-.098l3.027-.01-.001-.44c-.005-1.292-.733-2.16-1.96-2.155-1.22.004-1.956.855-1.951 2.125l.001.488c.005 1.349.777 2.181 2.003 2.177zm-1.122-2.835v-.013c-.002-.686.418-1.232 1.077-1.234.646-.003 1.074.536 1.076 1.226v.013zm3.927.623c.004 1.275.728 2.2 1.976 2.195 1.073-.004 1.708-.56 1.837-1.435l-.849.003c-.073.365-.38.674-.933.676-.695.002-1.136-.559-1.14-1.438V12.5c-.004-.887.412-1.43 1.124-1.432a.938.938 0 0 1 .912.735l.853-.003c-.043-.769-.713-1.487-1.82-1.483-1.236.004-1.966.903-1.962 2.165zm5.23-2.528l-.643.002.003.721.633-.002.01 2.61c.002.923.28 1.335 1.397 1.331.18 0 .356-.019.43-.032l-.002-.69c-.061.005-.132.01-.21.01-.541.001-.73-.139-.733-.666l-.009-2.566.91-.004-.003-.72-.91.003-.004-1.143-.874.004zM24.187 31.125c1.953 0 3.234-1.453 3.234-3.86v-.78c0-2.485-1.32-3.844-3.227-3.844-1.054 0-1.992.539-2.398 1.273h-.055v-4.14h-1.578V31h1.531v-1.25h.055c.46.844 1.266 1.375 2.438 1.375zm-.32-1.328c-1.337 0-2.141-.914-2.141-2.617v-.61c0-1.695.812-2.601 2.14-2.601 1.149 0 1.953.914 1.953 2.601v.625c0 1.68-.797 2.602-1.953 2.602zm11.607-7.031h-1.68L31.71 29.39h-.054l-2.07-6.625h-1.75l2.976 8.32-.11.39c-.203.797-.585 1.25-1.578 1.25-.195 0-.5-.015-.625-.039v1.227c.204.031.586.07.93.07 1.844 0 2.485-1.156 2.977-2.46l.21-.57c.008-.032 2.86-8.188 2.86-8.188zm3.653-2.43V31h3.57c3.485 0 4.72-2.273 4.72-5.344 0-3.117-1.282-5.32-4.72-5.32zm1.61 1.383h1.82c2.351 0 3.195 1.57 3.195 3.96 0 2.65-1.039 3.938-3.195 3.938h-1.82zm11.373.906c-2.352 0-3.625 1.672-3.625 3.898v.688c0 2.289 1.273 3.93 3.625 3.93 2.344 0 3.602-1.641 3.602-3.93v-.695c0-2.227-1.266-3.891-3.602-3.891zm-.008 1.297c1.336 0 2.024 1.055 2.024 2.633v.632c0 1.563-.68 2.641-2.024 2.641-1.336 0-2.031-1.086-2.031-2.64v-.633c0-1.57.695-2.633 2.031-2.633zM57.266 31h1.57v-4.953c0-1.102.602-2.024 1.898-2.024 1.094 0 1.883.641 1.883 1.985V31h1.57v-5.29c0-2.007-1.226-3.077-2.914-3.077-1.351 0-2.109.719-2.398 1.258h-.055v-1.125h-1.554zm13.264-1.016h.054V31h1.508v-5.64c0-1.798-1.336-2.727-3.133-2.727-2.117 0-3.07 1.125-3.148 2.539h1.484c.07-.766.633-1.274 1.617-1.274 1.032 0 1.61.547 1.61 1.547v.805h-2.117c-1.89.008-2.899.93-2.899 2.383 0 1.523 1.094 2.5 2.688 2.5 1.218 0 1.953-.508 2.336-1.149zm-1.875-.093c-.805 0-1.555-.43-1.555-1.336 0-.711.469-1.211 1.523-1.211h1.899v.93c0 .953-.805 1.617-1.867 1.617zm5.803-7.125h-1.14v1.28h1.124v4.641c0 1.641.492 2.375 2.477 2.375.32 0 .633-.03.765-.054V29.78c-.109.008-.234.016-.375.016-.96 0-1.297-.25-1.297-1.188v-4.562h1.618v-1.281h-1.617v-2.032h-1.555zM79.284 31h1.578v-8.234h-1.578zm-.172-10.242c0 .531.43.93.961.93.532 0 .961-.399.961-.93s-.43-.93-.96-.93c-.532 0-.962.399-.962.93zM82.822 31h1.57v-4.953c0-1.102.602-2.024 1.899-2.024 1.093 0 1.882.641 1.882 1.985V31h1.57v-5.29c0-2.007-1.226-3.077-2.913-3.077-1.352 0-2.11.719-2.399 1.258h-.054v-1.125h-1.555zm11.99 1.836c-1.046 0-1.71-.555-1.859-1.195h-1.578c.164 1.375 1.242 2.437 3.43 2.437 1.86 0 3.601-.992 3.601-3.148v-8.164h-1.531v1.171h-.055c-.367-.71-1.257-1.296-2.382-1.296-1.915 0-3.243 1.359-3.243 3.812v.625c0 2.484 1.336 3.836 3.243 3.836 1.132 0 2.023-.586 2.343-1.305h.055v1.274c0 1.226-.79 1.953-2.024 1.953zm.032-8.883c1.21 0 1.992.992 1.992 2.594v.492c0 1.625-.742 2.594-1.992 2.594-1.29 0-2.055-.961-2.055-2.594v-.492c0-1.664.766-2.594 2.055-2.594z"/></g></g></svg>