<svg width="120" height="40" viewBox="0 0 120 40" fill="none" xmlns="http://www.w3.org/2000/svg">
<g clip-path="url(#clip0)">
<path d="M110.135 0.00013H9.53468C9.16798 0.00013 8.80568 0.00013 8.43995 0.00213C8.1338 0.00413 7.83009 0.00994 7.521 0.01483C6.84951 0.0227318 6.17961 0.0818063 5.5171 0.19154C4.85552 0.303663 4.21467 0.515046 3.61622 0.81854C3.0185 1.1246 2.47235 1.5223 1.99757 1.9972C1.5203 2.47077 1.12246 3.01815 0.81935 3.61829C0.5154 4.21724 0.304641 4.85907 0.19435 5.52161C0.0830109 6.18332 0.0230984 6.85265 0.01515 7.52361C0.00587 7.83021 0.00489 8.13783 0 8.44447V31.5587C0.00489 31.8692 0.00587 32.17 0.01515 32.4806C0.0231008 33.1516 0.0830134 33.8209 0.19435 34.4825C0.304336 35.1455 0.515108 35.7877 0.81935 36.3868C1.12233 36.985 1.52022 37.5302 1.99757 38.0011C2.47054 38.4781 3.01705 38.8761 3.61622 39.1798C4.21467 39.4841 4.85545 39.6968 5.5171 39.8106C6.17972 39.9195 6.84956 39.9786 7.521 39.9874C7.83009 39.9942 8.1338 39.9981 8.43995 39.9981C8.80567 40.0001 9.168 40.0001 9.53468 40.0001H110.135C110.494 40.0001 110.859 40.0001 111.219 39.9981C111.523 39.9981 111.836 39.9942 112.141 39.9874C112.811 39.9791 113.479 39.92 114.141 39.8106C114.804 39.696 115.448 39.4834 116.049 39.1798C116.647 38.8759 117.193 38.478 117.666 38.0011C118.142 37.5284 118.541 36.9836 118.848 36.3868C119.15 35.7872 119.358 35.1451 119.467 34.4825C119.578 33.8208 119.64 33.1516 119.652 32.4806C119.656 32.17 119.656 31.8692 119.656 31.5587C119.664 31.1954 119.664 30.8341 119.664 30.4649V9.53626C119.664 9.17005 119.664 8.80677 119.656 8.44447C119.656 8.13783 119.656 7.83021 119.652 7.52357C119.64 6.85255 119.578 6.18337 119.467 5.52157C119.358 4.85941 119.149 4.21763 118.848 3.61825C118.23 2.41533 117.252 1.43616 116.049 0.81845C115.448 0.515697 114.804 0.30437 114.141 0.19145C113.48 0.0812328 112.811 0.0221378 112.141 0.01469C111.836 0.00981 111.523 0.00395 111.219 0.002C110.859 0 110.494 0 110.135 0V0.00013Z" fill="url(#paint0_linear)"/>
<path d="M8.44291 39.125C8.13823 39.125 7.84091 39.1211 7.53862 39.1143C6.91241 39.1061 6.28765 39.0516 5.66948 38.9512C5.09307 38.8519 4.53469 38.6673 4.01274 38.4033C3.49559 38.1415 3.0239 37.7983 2.61574 37.3867C2.20168 36.98 1.85696 36.5082 1.59523 35.9902C1.33062 35.4688 1.1475 34.9099 1.05223 34.333C0.949358 33.7131 0.893698 33.0863 0.885734 32.458C0.879394 32.2471 0.871094 31.5449 0.871094 31.5449V8.44434C0.871094 8.44434 0.879934 7.75293 0.885784 7.5498C0.89341 6.92248 0.948746 6.29665 1.05131 5.67773C1.14675 5.09925 1.33002 4.53875 1.59477 4.01563C1.85554 3.49794 2.19835 3.02586 2.60991 2.61768C3.02102 2.20562 3.49422 1.8606 4.01225 1.59521C4.533 1.33209 5.09033 1.14873 5.66557 1.05127C6.28577 0.949836 6.91269 0.894996 7.54108 0.88721L8.4434 0.875H111.212L112.125 0.8877C112.748 0.895099 113.369 0.94945 113.983 1.05029C114.565 1.14898 115.128 1.33362 115.654 1.59814C116.692 2.13299 117.537 2.97916 118.069 4.01807C118.33 4.53758 118.51 5.09351 118.605 5.66699C118.708 6.29099 118.766 6.92174 118.778 7.5542C118.781 7.8374 118.781 8.1416 118.781 8.44434C118.789 8.81934 118.789 9.17627 118.789 9.53613V30.4648C118.789 30.8281 118.789 31.1826 118.781 31.54C118.781 31.8652 118.781 32.1631 118.777 32.4697C118.766 33.0909 118.709 33.7104 118.606 34.3232C118.513 34.9043 118.331 35.4675 118.066 35.9932C117.803 36.5056 117.46 36.9733 117.051 37.3789C116.642 37.7927 116.17 38.1379 115.651 38.4014C115.126 38.6674 114.564 38.8527 113.983 38.9512C113.365 39.0522 112.741 39.1067 112.114 39.1143C111.821 39.1211 111.515 39.125 111.217 39.125L110.133 39.127L8.44291 39.125Z" fill="white"/>
<path d="M19.29 13.6421C19.3149 14.4418 19.8764 15.411 21.5112 15.4051C22.8252 15.4004 23.794 14.7509 23.7898 13.5732C23.7862 12.5757 23.1167 12.1518 22.2063 11.9265L21.2034 11.6752C20.636 11.541 20.3625 11.2476 20.3611 10.8433C20.3589 10.25 20.8543 9.90988 21.5662 9.90733C22.366 9.90446 22.7806 10.338 22.8309 10.874L23.7054 10.8709C23.6794 9.73276 22.6841 9.14306 21.5767 9.14703C20.4473 9.15108 19.4475 9.7743 19.4516 10.9125C19.4551 11.8705 20.151 12.325 20.8988 12.5069L21.9104 12.7582C22.5658 12.9184 22.8743 13.1766 22.876 13.6512C22.8782 14.2532 22.3874 14.6373 21.5876 14.6402C20.7087 14.6433 20.2368 14.1836 20.1821 13.6389L19.29 13.6421ZM28.6133 10.6247L27.7256 10.6279L27.7357 13.4536C27.7382 14.1611 27.2958 14.5538 26.6806 14.556C26.1225 14.558 25.6426 14.3092 25.6396 13.4743L25.6294 10.6354L24.7417 10.6386L24.7528 13.7236C24.7566 14.7958 25.4265 15.3427 26.3801 15.3393C27.1272 15.3366 27.561 14.9967 27.7179 14.6314L27.7531 14.6313L27.7554 15.2597L28.6299 15.2566L28.6133 10.6247ZM32.1457 15.3143C33.2224 15.3104 33.9621 14.4948 33.9572 13.1281L33.9557 12.7106C33.9508 11.3307 33.1921 10.538 32.155 10.5417C31.531 10.544 31.0574 10.8489 30.7997 11.2893L30.769 11.2894L30.7666 10.617L29.9052 10.6201L29.9275 16.8427L30.8152 16.8395L30.8073 14.6159L30.838 14.6158C31.09 15.0324 31.5481 15.3164 32.1457 15.3143ZM31.976 14.5678C31.2466 14.5704 30.7962 13.9919 30.793 13.0823L30.7918 12.7483C30.7886 11.865 31.2304 11.2833 31.9467 11.2808C32.641 11.2783 33.056 11.8173 33.0594 12.7446L33.0605 13.0742C33.064 14.0453 32.6264 14.5655 31.976 14.5678ZM37.2961 15.2958C38.3727 15.2919 39.1125 14.4763 39.1076 13.1096L39.1061 12.6921C39.1011 11.3123 38.3424 10.5196 37.3053 10.5233C36.6813 10.5255 36.2078 10.8304 35.9501 11.2708L35.9193 11.2709L35.9169 10.5986L35.0556 10.6017L35.0779 16.8243L35.9656 16.8211L35.9576 14.5975L35.9884 14.5974C36.2404 15.0139 36.6984 15.2979 37.2961 15.2958ZM37.1264 14.5493C36.3969 14.5519 35.9466 13.9735 35.9433 13.0638L35.9421 12.7298C35.939 11.8465 36.3807 11.2649 37.097 11.2623C37.7914 11.2598 38.2064 11.7989 38.2097 12.7261L38.2109 13.0557C38.2144 14.0269 37.7768 14.547 37.1264 14.5493ZM42.047 10.4975C40.7242 10.5022 40.0113 11.4452 40.0158 12.6977L40.0172 13.0844C40.0218 14.372 40.7414 15.2922 42.0641 15.2875C43.3825 15.2828 44.0867 14.3574 44.0821 13.0698L44.0807 12.6787C44.0762 11.4263 43.3609 10.4928 42.047 10.4975ZM42.0452 11.227C42.7966 11.2243 43.1855 11.8162 43.1887 12.7039L43.1899 13.0598C43.1931 13.9387 42.8129 14.5465 42.0571 14.5492C41.3056 14.5519 40.9123 13.9425 40.9092 13.068L40.9079 12.712C40.9048 11.8287 41.2937 11.2297 42.0452 11.227ZM45.1883 15.1972L46.0848 15.194L46.0748 12.3991C46.0726 11.7751 46.3301 11.2819 47.1299 11.2791C47.2793 11.2785 47.4419 11.2867 47.5255 11.304L47.5226 10.5086C47.4303 10.4958 47.3248 10.4874 47.2105 10.4878C46.5602 10.4901 46.2143 10.8693 46.0923 11.151L46.0615 11.1511L46.0594 10.5622L45.1717 10.5654L45.1883 15.1972ZM48.9203 10.552L48.2787 10.5543L48.2812 11.2749L48.914 11.2727L48.9234 13.883C48.9267 14.8059 49.205 15.218 50.3212 15.214C50.5014 15.2133 50.6771 15.1951 50.7518 15.1816L50.7493 14.4917C50.6878 14.4963 50.6175 14.501 50.5384 14.5013C49.9979 14.5032 49.8084 14.3632 49.8065 13.8359L49.7973 11.2695L50.707 11.2663L50.7044 10.5456L49.7948 10.5488L49.7907 9.40625L48.9162 9.40938L48.9203 10.552ZM53.8509 10.5343L53.2093 10.5366L53.2119 11.2573L53.8447 11.255L53.854 13.8653C53.8573 14.7882 54.1357 15.2003 55.2519 15.1963C55.4321 15.1956 55.6078 15.1774 55.6824 15.164L55.68 14.474C55.6185 14.4786 55.5482 14.4833 55.4691 14.4836C54.9285 14.4855 54.7391 14.3456 54.7372 13.8182L54.728 11.2518L55.6376 11.2486L55.6351 10.5279L54.7254 10.5311L54.7213 9.38857L53.8468 9.39171L53.8509 10.5343ZM56.7766 15.1557L57.6643 15.1525L57.6544 12.3664C57.6521 11.7467 57.9843 11.227 58.7181 11.2244C59.3378 11.2221 59.7785 11.5809 59.7812 12.3368L59.7913 15.1448L60.679 15.1417L60.6683 12.1666C60.6643 11.0372 59.9678 10.4376 59.0186 10.441C58.2627 10.4438 57.8423 10.8496 57.6808 11.1534L57.65 11.1535L57.6417 8.83757L56.754 8.84075L56.7766 15.1557ZM61.9402 15.1371L62.8279 15.134L62.8113 10.5022L61.9236 10.5053L61.9402 15.1371ZM61.8229 9.3763C61.8239 9.67512 62.0664 9.89838 62.3653 9.8973C62.6641 9.89623 62.905 9.67125 62.9039 9.37242C62.9028 9.0736 62.6603 8.85034 62.3615 8.85141C62.0627 8.85248 61.8218 9.07747 61.8229 9.3763ZM63.963 11.8384C63.9661 12.6821 64.6658 12.9609 65.519 13.1336C66.1478 13.2544 66.6799 13.3448 66.6817 13.8413C66.683 14.2061 66.3853 14.5148 65.7305 14.5171C65.1548 14.5192 64.8111 14.2567 64.7525 13.8614L63.8868 13.8645C63.8898 14.6951 64.5948 15.2067 65.6714 15.2029C66.8096 15.1988 67.5503 14.66 67.547 13.7284C67.5438 12.8407 66.8486 12.5883 65.9823 12.4376C65.4546 12.3428 64.8215 12.2484 64.8197 11.7474C64.8182 11.3299 65.1821 11.0957 65.6962 11.0939C66.3642 11.0915 66.5765 11.473 66.6041 11.8069L67.4127 11.804C67.4098 11.0042 66.8144 10.4087 65.7202 10.4126C64.8017 10.4159 63.9595 10.8452 63.963 11.8384ZM72.6015 15.1692C73.6782 15.1654 74.4179 14.3497 74.413 12.983L74.4115 12.5656C74.4066 11.1857 73.6479 10.393 72.6108 10.3967C71.9867 10.399 71.5132 10.7039 71.2555 11.1443L71.2248 11.1444L71.2224 10.472L70.361 10.4751L70.3833 16.6977L71.271 16.6945L71.2631 14.4709L71.2938 14.4708C71.5458 14.8874 72.0039 15.1714 72.6015 15.1692ZM72.4318 14.4228C71.7023 14.4254 71.252 13.8469 71.2488 12.9373L71.2476 12.6033C71.2444 11.72 71.6862 11.1383 72.4025 11.1357C73.0968 11.1333 73.5118 11.6723 73.5152 12.5995L73.5163 12.9291C73.5198 13.9003 73.0822 14.4204 72.4318 14.4228ZM75.5192 15.0885L76.4157 15.0853L76.4057 12.2903C76.4034 11.6663 76.6609 11.1732 77.4607 11.1703C77.6102 11.1698 77.7728 11.178 77.8563 11.1953L77.8535 10.3999C77.7612 10.387 77.6557 10.3786 77.5414 10.379C76.891 10.3814 76.5452 10.7605 76.4232 11.0422L76.3924 11.0423L76.3903 10.4535L75.5026 10.4567L75.5192 15.0885ZM80.5077 10.3596C79.1849 10.3644 78.472 11.3073 78.4765 12.5598L78.4779 12.9465C78.4825 14.2341 79.2021 15.1544 80.5248 15.1496C81.8432 15.1449 82.5474 14.2195 82.5428 12.9319L82.5414 12.5408C82.5369 11.2884 81.8216 10.3549 80.5077 10.3596ZM80.5059 11.0891C81.2573 11.0864 81.6462 11.6783 81.6494 12.566L81.6506 12.9219C81.6538 13.8008 81.2736 14.4087 80.5178 14.4114C79.7663 14.4141 79.373 13.8046 79.3699 12.9301L79.3686 12.5742C79.3654 11.6909 79.7544 11.0918 80.5059 11.0891ZM83.5756 9.29832C83.5767 9.59714 83.8192 9.8204 84.118 9.81933C84.4169 9.81826 84.6578 9.59327 84.6567 9.29444C84.6556 8.99562 84.4131 8.77236 84.1143 8.77343C83.8155 8.77451 83.5746 8.99949 83.5756 9.29832ZM84.5597 10.4242L83.6764 10.4274L83.6934 15.1646C83.6954 15.7447 83.5206 16.0002 83.0635 16.0019C82.9669 16.0022 82.8526 15.9938 82.7866 15.9809L82.789 16.6576C82.8594 16.675 83.088 16.6961 83.2418 16.6956C84.0636 16.6926 84.5805 16.2425 84.5767 15.1703L84.5597 10.4242ZM87.7142 15.1239C88.8129 15.1199 89.417 14.4893 89.5681 13.7329L88.7112 13.736C88.5809 14.1495 88.239 14.4057 87.7292 14.4075C87.0305 14.41 86.5979 13.8578 86.5949 13.0361L86.5946 12.9394L89.6224 12.9285L89.6208 12.4891C89.6162 11.1971 88.888 10.3296 87.6619 10.334C86.4402 10.3383 85.705 11.1891 85.7096 12.4591L85.7113 12.9469C85.7161 14.296 86.4882 15.1282 87.7142 15.1239ZM86.5922 12.289L86.5922 12.2758C86.5897 11.5903 87.0097 11.0438 87.6688 11.0415C88.3148 11.0392 88.743 11.5781 88.7455 12.2681L88.7456 12.2813L86.5922 12.289ZM90.5188 12.9121C90.5234 14.1865 91.2474 15.1112 92.4955 15.1067C93.5677 15.1029 94.2029 14.5469 94.3316 13.6719L93.4835 13.6749C93.4101 14.04 93.1036 14.3487 92.5499 14.3507C91.8555 14.3531 91.4141 13.7922 91.4109 12.9133L91.4094 12.5002C91.4063 11.6125 91.8218 11.0705 92.5337 11.068C93.0083 11.0663 93.3567 11.4122 93.446 11.803L94.2986 11.7999C94.2562 11.031 93.5857 10.3127 92.4783 10.3167C91.2434 10.3211 90.5128 11.2202 90.5173 12.4815L90.5188 12.9121ZM95.7481 10.3841L95.1065 10.3864L95.1091 11.1071L95.7419 11.1048L95.7512 13.7151C95.7545 14.638 96.0329 15.0501 97.1491 15.0461C97.3292 15.0454 97.505 15.0272 97.5796 15.0138L97.5772 14.3238C97.5156 14.3285 97.4453 14.3331 97.3662 14.3334C96.8257 14.3353 96.6363 14.1954 96.6344 13.668L96.6252 11.1016L97.5348 11.0984L97.5322 10.3777L96.6226 10.3809L96.6185 9.23838L95.744 9.24151L95.7481 10.3841Z" fill="black"/>
<path d="M20.2344 20.3027V30.9668H23.8047C27.2891 30.9668 28.5234 28.6934 28.5234 25.623C28.5234 22.5059 27.2422 20.3027 23.8047 20.3027H20.2344ZM21.8438 21.6855H23.6641C26.0156 21.6855 26.8594 23.2559 26.8594 25.6465C26.8594 28.2949 25.8203 29.584 23.6641 29.584H21.8438V21.6855ZM33.2172 22.5918C30.8656 22.5918 29.5922 24.2637 29.5922 26.4902V27.1777C29.5922 29.4668 30.8656 31.1074 33.2172 31.1074C35.5609 31.1074 36.8188 29.4668 36.8188 27.1777V26.4824C36.8188 24.2559 35.5531 22.5918 33.2172 22.5918ZM33.2094 23.8887C34.5453 23.8887 35.2328 24.9434 35.2328 26.5215V27.1543C35.2328 28.7168 34.5531 29.7949 33.2094 29.7949C31.8734 29.7949 31.1781 28.709 31.1781 27.1543V26.5215C31.1781 24.9512 31.8734 23.8887 33.2094 23.8887ZM38.3719 30.9668H39.9422V26.0137C39.9422 24.9121 40.5438 23.9902 41.8406 23.9902C42.9344 23.9902 43.7234 24.6309 43.7234 25.9746V30.9668H45.2938V25.6777C45.2938 23.6699 44.0672 22.5996 42.3797 22.5996C41.0281 22.5996 40.2703 23.3184 39.9813 23.8574H39.9266V22.7324H38.3719V30.9668ZM51.6359 29.9512H51.6906V30.9668H53.1984V25.3262C53.1984 23.5293 51.8625 22.5996 50.0656 22.5996C47.9484 22.5996 46.9953 23.7246 46.9172 25.1387H48.4016C48.4719 24.373 49.0344 23.8652 50.0187 23.8652C51.05 23.8652 51.6281 24.4121 51.6281 25.4121V26.2168H49.5109C47.6203 26.2246 46.6125 27.1465 46.6125 28.5996C46.6125 30.123 47.7062 31.0996 49.3 31.0996C50.5187 31.0996 51.2531 30.5918 51.6359 29.9512ZM49.7609 29.8574C48.9562 29.8574 48.2062 29.4277 48.2062 28.5215C48.2062 27.8105 48.675 27.3105 49.7297 27.3105H51.6281V28.2402C51.6281 29.1934 50.8234 29.8574 49.7609 29.8574ZM55.5641 22.7324H54.4234V24.0137H55.5484V28.6543C55.5484 30.2949 56.0406 31.0293 58.025 31.0293C58.3453 31.0293 58.6578 30.998 58.7906 30.9746V29.748C58.6813 29.7559 58.5563 29.7637 58.4156 29.7637C57.4547 29.7637 57.1188 29.5137 57.1188 28.5762V24.0137H58.7359V22.7324H57.1188V20.7012H55.5641V22.7324ZM63.3984 31.1074C65.3516 31.1074 66.4297 29.9902 66.7031 28.6465H65.1797C64.9453 29.3809 64.3359 29.834 63.4297 29.834C62.1875 29.834 61.4219 28.8496 61.4219 27.3887V27.2168H66.8047V26.4355C66.8047 24.1387 65.5156 22.5918 63.3359 22.5918C61.1641 22.5918 59.8516 24.0996 59.8516 26.3574V27.2246C59.8516 29.623 61.2188 31.1074 63.3984 31.1074ZM61.4219 26.0605V26.0371C61.4219 24.8184 62.1719 23.8496 63.3438 23.8496C64.4922 23.8496 65.25 24.8105 65.25 26.0371V26.0605H61.4219ZM75.8719 30.9668H77.7L74.9188 26.8418L77.6688 22.7324H75.8875L73.9969 25.748H73.9813L72.0906 22.7324H70.2234L72.9422 26.8418L70.1844 30.9668H71.9344L73.8797 27.959H73.9031L75.8719 30.9668ZM78.7375 20.3027V30.9668H82.3078C85.7922 30.9668 87.0266 28.6934 87.0266 25.623C87.0266 22.5059 85.7453 20.3027 82.3078 20.3027H78.7375ZM80.3469 21.6855H82.1672C84.5187 21.6855 85.3625 23.2559 85.3625 25.6465C85.3625 28.2949 84.3234 29.584 82.1672 29.584H80.3469V21.6855ZM93.0016 29.9512H93.0563V30.9668H94.5641V25.3262C94.5641 23.5293 93.2281 22.5996 91.4313 22.5996C89.3141 22.5996 88.3609 23.7246 88.2828 25.1387H89.7672C89.8375 24.373 90.4 23.8652 91.3844 23.8652C92.4156 23.8652 92.9938 24.4121 92.9938 25.4121V26.2168H90.8766C88.9859 26.2246 87.9781 27.1465 87.9781 28.5996C87.9781 30.123 89.0719 31.0996 90.6656 31.0996C91.8844 31.0996 92.6188 30.5918 93.0016 29.9512ZM91.1266 29.8574C90.3219 29.8574 89.5719 29.4277 89.5719 28.5215C89.5719 27.8105 90.0406 27.3105 91.0953 27.3105H92.9938V28.2402C92.9938 29.1934 92.1891 29.8574 91.1266 29.8574ZM96.4531 30.9668H98.0312V22.7324H96.4531V30.9668ZM96.2812 20.7246C96.2812 21.2559 96.7109 21.6543 97.2422 21.6543C97.7734 21.6543 98.2031 21.2559 98.2031 20.7246C98.2031 20.1934 97.7734 19.7949 97.2422 19.7949C96.7109 19.7949 96.2812 20.1934 96.2812 20.7246Z" fill="black"/>
</g>
<defs>
<linearGradient id="paint0_linear" x1="59.832" y1="0" x2="59.832" y2="40.0001" gradientUnits="userSpaceOnUse">
<stop stop-color="#FFD131"/>
<stop offset="1" stop-color="#EFA792"/>
</linearGradient>
<clipPath id="clip0">
<rect width="119.664" height="40" fill="white"/>
</clipPath>
</defs>
</svg>
