<svg width="120" height="40" viewBox="0 0 120 40" fill="none" xmlns="http://www.w3.org/2000/svg">
<g clip-path="url(#clip0)">
<path d="M110.135 0.00013H9.53468C9.16798 0.00013 8.80568 0.00013 8.43995 0.00213C8.1338 0.00413 7.83009 0.00994 7.521 0.01483C6.84951 0.0227318 6.17961 0.0818063 5.5171 0.19154C4.85552 0.303663 4.21467 0.515046 3.61622 0.81854C3.0185 1.1246 2.47235 1.5223 1.99757 1.9972C1.5203 2.47077 1.12246 3.01815 0.81935 3.61829C0.5154 4.21724 0.304641 4.85907 0.19435 5.52161C0.0830109 6.18332 0.0230984 6.85265 0.01515 7.52361C0.00587 7.83021 0.00489 8.13783 0 8.44447V31.5587C0.00489 31.8692 0.00587 32.17 0.01515 32.4806C0.0231008 33.1516 0.0830134 33.8209 0.19435 34.4825C0.304336 35.1455 0.515108 35.7877 0.81935 36.3868C1.12233 36.985 1.52022 37.5302 1.99757 38.0011C2.47054 38.4781 3.01705 38.8761 3.61622 39.1798C4.21467 39.4841 4.85545 39.6968 5.5171 39.8106C6.17972 39.9195 6.84956 39.9786 7.521 39.9874C7.83009 39.9942 8.1338 39.9981 8.43995 39.9981C8.80567 40.0001 9.168 40.0001 9.53468 40.0001H110.135C110.494 40.0001 110.859 40.0001 111.219 39.9981C111.523 39.9981 111.836 39.9942 112.141 39.9874C112.811 39.9791 113.479 39.92 114.141 39.8106C114.804 39.696 115.448 39.4834 116.049 39.1798C116.647 38.8759 117.193 38.478 117.666 38.0011C118.142 37.5284 118.541 36.9836 118.848 36.3868C119.15 35.7872 119.358 35.1451 119.467 34.4825C119.578 33.8208 119.64 33.1516 119.652 32.4806C119.656 32.17 119.656 31.8692 119.656 31.5587C119.664 31.1954 119.664 30.8341 119.664 30.4649V9.53626C119.664 9.17005 119.664 8.80677 119.656 8.44447C119.656 8.13783 119.656 7.83021 119.652 7.52357C119.64 6.85255 119.578 6.18337 119.467 5.52157C119.358 4.85941 119.149 4.21763 118.848 3.61825C118.23 2.41533 117.252 1.43616 116.049 0.81845C115.448 0.515697 114.804 0.30437 114.141 0.19145C113.48 0.0812328 112.811 0.0221378 112.141 0.01469C111.836 0.00981 111.523 0.00395 111.219 0.002C110.859 0 110.494 0 110.135 0V0.00013Z" fill="url(#paint0_linear)"/>
<path d="M8.44291 39.125C8.13823 39.125 7.84091 39.1211 7.53862 39.1143C6.91241 39.1061 6.28765 39.0516 5.66948 38.9512C5.09307 38.8519 4.53469 38.6673 4.01274 38.4033C3.49559 38.1415 3.0239 37.7983 2.61574 37.3867C2.20168 36.98 1.85696 36.5082 1.59523 35.9902C1.33062 35.4688 1.1475 34.9099 1.05223 34.333C0.949358 33.7131 0.893698 33.0863 0.885734 32.458C0.879394 32.2471 0.871094 31.5449 0.871094 31.5449V8.44434C0.871094 8.44434 0.879934 7.75293 0.885784 7.5498C0.89341 6.92248 0.948746 6.29665 1.05131 5.67773C1.14675 5.09925 1.33002 4.53875 1.59477 4.01563C1.85554 3.49794 2.19835 3.02586 2.60991 2.61768C3.02102 2.20562 3.49422 1.8606 4.01225 1.59521C4.533 1.33209 5.09033 1.14873 5.66557 1.05127C6.28577 0.949836 6.91269 0.894996 7.54108 0.88721L8.4434 0.875H111.212L112.125 0.8877C112.748 0.895099 113.369 0.94945 113.983 1.05029C114.565 1.14898 115.128 1.33362 115.654 1.59814C116.692 2.13299 117.537 2.97916 118.069 4.01807C118.33 4.53758 118.51 5.09351 118.605 5.66699C118.708 6.29099 118.766 6.92174 118.778 7.5542C118.781 7.8374 118.781 8.1416 118.781 8.44434C118.789 8.81934 118.789 9.17627 118.789 9.53613V30.4648C118.789 30.8281 118.789 31.1826 118.781 31.54C118.781 31.8652 118.781 32.1631 118.777 32.4697C118.766 33.0909 118.709 33.7104 118.606 34.3232C118.513 34.9043 118.331 35.4675 118.066 35.9932C117.803 36.5056 117.46 36.9733 117.051 37.3789C116.642 37.7927 116.17 38.1379 115.651 38.4014C115.126 38.6674 114.564 38.8527 113.983 38.9512C113.365 39.0522 112.741 39.1067 112.114 39.1143C111.821 39.1211 111.515 39.125 111.217 39.125L110.133 39.127L8.44291 39.125Z" fill="white"/>
<path d="M19.29 13.6421C19.3149 14.4418 19.8764 15.411 21.5112 15.4051C22.8252 15.4004 23.794 14.7509 23.7898 13.5732C23.7862 12.5757 23.1167 12.1518 22.2063 11.9265L21.2034 11.6752C20.636 11.541 20.3625 11.2476 20.3611 10.8433C20.3589 10.25 20.8543 9.90988 21.5662 9.90733C22.366 9.90446 22.7806 10.338 22.8309 10.874L23.7054 10.8709C23.6794 9.73276 22.6841 9.14306 21.5767 9.14703C20.4473 9.15108 19.4475 9.7743 19.4516 10.9125C19.4551 11.8705 20.151 12.325 20.8988 12.5069L21.9104 12.7582C22.5658 12.9184 22.8743 13.1766 22.876 13.6512C22.8782 14.2532 22.3874 14.6373 21.5876 14.6402C20.7087 14.6433 20.2368 14.1836 20.1821 13.6389L19.29 13.6421ZM28.6133 10.6247L27.7256 10.6279L27.7357 13.4536C27.7382 14.1611 27.2958 14.5538 26.6806 14.556C26.1225 14.558 25.6426 14.3092 25.6396 13.4743L25.6294 10.6354L24.7417 10.6386L24.7528 13.7236C24.7566 14.7958 25.4265 15.3427 26.3801 15.3393C27.1272 15.3366 27.561 14.9967 27.7179 14.6314L27.7531 14.6313L27.7554 15.2597L28.6299 15.2566L28.6133 10.6247ZM32.1457 15.3143C33.2224 15.3104 33.9621 14.4948 33.9572 13.1281L33.9557 12.7106C33.9508 11.3307 33.1921 10.538 32.155 10.5417C31.531 10.544 31.0574 10.8489 30.7997 11.2893L30.769 11.2894L30.7666 10.617L29.9052 10.6201L29.9275 16.8427L30.8152 16.8395L30.8073 14.6159L30.838 14.6158C31.09 15.0324 31.5481 15.3164 32.1457 15.3143ZM31.976 14.5678C31.2466 14.5704 30.7962 13.9919 30.793 13.0823L30.7918 12.7483C30.7886 11.865 31.2304 11.2833 31.9467 11.2808C32.641 11.2783 33.056 11.8173 33.0594 12.7446L33.0605 13.0742C33.064 14.0453 32.6264 14.5655 31.976 14.5678ZM37.2961 15.2958C38.3727 15.2919 39.1125 14.4763 39.1076 13.1096L39.1061 12.6921C39.1011 11.3123 38.3424 10.5196 37.3053 10.5233C36.6813 10.5255 36.2078 10.8304 35.9501 11.2708L35.9193 11.2709L35.9169 10.5986L35.0556 10.6017L35.0779 16.8243L35.9656 16.8211L35.9576 14.5975L35.9884 14.5974C36.2404 15.0139 36.6984 15.2979 37.2961 15.2958ZM37.1264 14.5493C36.3969 14.5519 35.9466 13.9735 35.9433 13.0638L35.9421 12.7298C35.939 11.8465 36.3807 11.2649 37.097 11.2623C37.7914 11.2598 38.2064 11.7989 38.2097 12.7261L38.2109 13.0557C38.2144 14.0269 37.7768 14.547 37.1264 14.5493ZM42.047 10.4975C40.7242 10.5022 40.0113 11.4452 40.0158 12.6977L40.0172 13.0844C40.0218 14.372 40.7414 15.2922 42.0641 15.2875C43.3825 15.2828 44.0867 14.3574 44.0821 13.0698L44.0807 12.6787C44.0762 11.4263 43.3609 10.4928 42.047 10.4975ZM42.0452 11.227C42.7966 11.2243 43.1855 11.8162 43.1887 12.7039L43.1899 13.0598C43.1931 13.9387 42.8129 14.5465 42.0571 14.5492C41.3056 14.5519 40.9123 13.9425 40.9092 13.068L40.9079 12.712C40.9048 11.8287 41.2937 11.2297 42.0452 11.227ZM45.1883 15.1972L46.0848 15.194L46.0748 12.3991C46.0726 11.7751 46.3301 11.2819 47.1299 11.2791C47.2793 11.2785 47.4419 11.2867 47.5255 11.304L47.5226 10.5086C47.4303 10.4958 47.3248 10.4874 47.2105 10.4878C46.5602 10.4901 46.2143 10.8693 46.0923 11.151L46.0615 11.1511L46.0594 10.5622L45.1717 10.5654L45.1883 15.1972ZM48.9203 10.552L48.2787 10.5543L48.2812 11.2749L48.914 11.2727L48.9234 13.883C48.9267 14.8059 49.205 15.218 50.3212 15.214C50.5014 15.2133 50.6771 15.1951 50.7518 15.1816L50.7493 14.4917C50.6878 14.4963 50.6175 14.501 50.5384 14.5013C49.9979 14.5032 49.8084 14.3632 49.8065 13.8359L49.7973 11.2695L50.707 11.2663L50.7044 10.5456L49.7948 10.5488L49.7907 9.40625L48.9162 9.40938L48.9203 10.552ZM53.8509 10.5343L53.2093 10.5366L53.2119 11.2573L53.8447 11.255L53.854 13.8653C53.8573 14.7882 54.1357 15.2003 55.2519 15.1963C55.4321 15.1956 55.6078 15.1774 55.6824 15.164L55.68 14.474C55.6185 14.4786 55.5482 14.4833 55.4691 14.4836C54.9285 14.4855 54.7391 14.3456 54.7372 13.8182L54.728 11.2518L55.6376 11.2486L55.6351 10.5279L54.7254 10.5311L54.7213 9.38857L53.8468 9.39171L53.8509 10.5343ZM56.7766 15.1557L57.6643 15.1525L57.6544 12.3664C57.6521 11.7467 57.9843 11.227 58.7181 11.2244C59.3378 11.2221 59.7785 11.5809 59.7812 12.3368L59.7913 15.1448L60.679 15.1417L60.6683 12.1666C60.6643 11.0372 59.9678 10.4376 59.0186 10.441C58.2627 10.4438 57.8423 10.8496 57.6808 11.1534L57.65 11.1535L57.6417 8.83757L56.754 8.84075L56.7766 15.1557ZM61.9402 15.1371L62.8279 15.134L62.8113 10.5022L61.9236 10.5053L61.9402 15.1371ZM61.8229 9.3763C61.8239 9.67512 62.0664 9.89838 62.3653 9.8973C62.6641 9.89623 62.905 9.67125 62.9039 9.37242C62.9028 9.0736 62.6603 8.85034 62.3615 8.85141C62.0627 8.85248 61.8218 9.07747 61.8229 9.3763ZM63.963 11.8384C63.9661 12.6821 64.6658 12.9609 65.519 13.1336C66.1478 13.2544 66.6799 13.3448 66.6817 13.8413C66.683 14.2061 66.3853 14.5148 65.7305 14.5171C65.1548 14.5192 64.8111 14.2567 64.7525 13.8614L63.8868 13.8645C63.8898 14.6951 64.5948 15.2067 65.6714 15.2029C66.8096 15.1988 67.5503 14.66 67.547 13.7284C67.5438 12.8407 66.8486 12.5883 65.9823 12.4376C65.4546 12.3428 64.8215 12.2484 64.8197 11.7474C64.8182 11.3299 65.1821 11.0957 65.6962 11.0939C66.3642 11.0915 66.5765 11.473 66.6041 11.8069L67.4127 11.804C67.4098 11.0042 66.8144 10.4087 65.7202 10.4126C64.8017 10.4159 63.9595 10.8452 63.963 11.8384ZM72.6015 15.1692C73.6782 15.1654 74.4179 14.3497 74.413 12.983L74.4115 12.5656C74.4066 11.1857 73.6479 10.393 72.6108 10.3967C71.9867 10.399 71.5132 10.7039 71.2555 11.1443L71.2248 11.1444L71.2224 10.472L70.361 10.4751L70.3833 16.6977L71.271 16.6945L71.2631 14.4709L71.2938 14.4708C71.5458 14.8874 72.0039 15.1714 72.6015 15.1692ZM72.4318 14.4228C71.7023 14.4254 71.252 13.8469 71.2488 12.9373L71.2476 12.6033C71.2444 11.72 71.6862 11.1383 72.4025 11.1357C73.0968 11.1333 73.5118 11.6723 73.5152 12.5995L73.5163 12.9291C73.5198 13.9003 73.0822 14.4204 72.4318 14.4228ZM75.5192 15.0885L76.4157 15.0853L76.4057 12.2903C76.4034 11.6663 76.6609 11.1732 77.4607 11.1703C77.6102 11.1698 77.7728 11.178 77.8563 11.1953L77.8535 10.3999C77.7612 10.387 77.6557 10.3786 77.5414 10.379C76.891 10.3814 76.5452 10.7605 76.4232 11.0422L76.3924 11.0423L76.3903 10.4535L75.5026 10.4567L75.5192 15.0885ZM80.5077 10.3596C79.1849 10.3644 78.472 11.3073 78.4765 12.5598L78.4779 12.9465C78.4825 14.2341 79.2021 15.1544 80.5248 15.1496C81.8432 15.1449 82.5474 14.2195 82.5428 12.9319L82.5414 12.5408C82.5369 11.2884 81.8216 10.3549 80.5077 10.3596ZM80.5059 11.0891C81.2573 11.0864 81.6462 11.6783 81.6494 12.566L81.6506 12.9219C81.6538 13.8008 81.2736 14.4087 80.5178 14.4114C79.7663 14.4141 79.373 13.8046 79.3699 12.9301L79.3686 12.5742C79.3654 11.6909 79.7544 11.0918 80.5059 11.0891ZM83.5756 9.29832C83.5767 9.59714 83.8192 9.8204 84.118 9.81933C84.4169 9.81826 84.6578 9.59327 84.6567 9.29444C84.6556 8.99562 84.4131 8.77236 84.1143 8.77343C83.8155 8.77451 83.5746 8.99949 83.5756 9.29832ZM84.5597 10.4242L83.6764 10.4274L83.6934 15.1646C83.6954 15.7447 83.5206 16.0002 83.0635 16.0019C82.9669 16.0022 82.8526 15.9938 82.7866 15.9809L82.789 16.6576C82.8594 16.675 83.088 16.6961 83.2418 16.6956C84.0636 16.6926 84.5805 16.2425 84.5767 15.1703L84.5597 10.4242ZM87.7142 15.1239C88.8129 15.1199 89.417 14.4893 89.5681 13.7329L88.7112 13.736C88.5809 14.1495 88.239 14.4057 87.7292 14.4075C87.0305 14.41 86.5979 13.8578 86.5949 13.0361L86.5946 12.9394L89.6224 12.9285L89.6208 12.4891C89.6162 11.1971 88.888 10.3296 87.6619 10.334C86.4402 10.3383 85.705 11.1891 85.7096 12.4591L85.7113 12.9469C85.7161 14.296 86.4882 15.1282 87.7142 15.1239ZM86.5922 12.289L86.5922 12.2758C86.5897 11.5903 87.0097 11.0438 87.6688 11.0415C88.3148 11.0392 88.743 11.5781 88.7455 12.2681L88.7456 12.2813L86.5922 12.289ZM90.5188 12.9121C90.5234 14.1865 91.2474 15.1112 92.4955 15.1067C93.5677 15.1029 94.2029 14.5469 94.3316 13.6719L93.4835 13.6749C93.4101 14.04 93.1036 14.3487 92.5499 14.3507C91.8555 14.3531 91.4141 13.7922 91.4109 12.9133L91.4094 12.5002C91.4063 11.6125 91.8218 11.0705 92.5337 11.068C93.0083 11.0663 93.3567 11.4122 93.446 11.803L94.2986 11.7999C94.2562 11.031 93.5857 10.3127 92.4783 10.3167C91.2434 10.3211 90.5128 11.2202 90.5173 12.4815L90.5188 12.9121ZM95.7481 10.3841L95.1065 10.3864L95.1091 11.1071L95.7419 11.1048L95.7512 13.7151C95.7545 14.638 96.0329 15.0501 97.1491 15.0461C97.3292 15.0454 97.505 15.0272 97.5796 15.0138L97.5772 14.3238C97.5156 14.3285 97.4453 14.3331 97.3662 14.3334C96.8257 14.3353 96.6363 14.1954 96.6344 13.668L96.6252 11.1016L97.5348 11.0984L97.5322 10.3777L96.6226 10.3809L96.6185 9.23838L95.744 9.24151L95.7481 10.3841Z" fill="black"/>
<path d="M24.1875 31.125C26.1406 31.125 27.4219 29.6719 27.4219 27.2656V26.4844C27.4219 24 26.1016 22.6406 24.1953 22.6406C23.1406 22.6406 22.2031 23.1797 21.7969 23.9141H21.7422V19.7734H20.1641V31H21.6953V29.75H21.75C22.2109 30.5938 23.0156 31.125 24.1875 31.125ZM23.8672 29.7969C22.5312 29.7969 21.7266 28.8828 21.7266 27.1797V26.5703C21.7266 24.875 22.5391 23.9688 23.8672 23.9688C25.0156 23.9688 25.8203 24.8828 25.8203 26.5703V27.1953C25.8203 28.875 25.0234 29.7969 23.8672 29.7969ZM35.475 22.7656H33.7953L31.7094 29.3906H31.6547L29.5844 22.7656H27.8344L30.8109 31.0859L30.7016 31.4766C30.4984 32.2734 30.1156 32.7266 29.1234 32.7266C28.9281 32.7266 28.6234 32.7109 28.4984 32.6875V33.9141C28.7016 33.9453 29.0844 33.9844 29.4281 33.9844C31.2719 33.9844 31.9125 32.8281 32.4047 31.5234L32.6156 30.9531C32.6234 30.9219 35.475 22.7656 35.475 22.7656ZM39.1281 20.3359V31H42.6984C46.1828 31 47.4172 28.7266 47.4172 25.6562C47.4172 22.5391 46.1359 20.3359 42.6984 20.3359H39.1281ZM40.7375 21.7188H42.5578C44.9094 21.7188 45.7531 23.2891 45.7531 25.6797C45.7531 28.3281 44.7141 29.6172 42.5578 29.6172H40.7375V21.7188ZM52.1109 22.625C49.7594 22.625 48.4859 24.2969 48.4859 26.5234V27.2109C48.4859 29.5 49.7594 31.1406 52.1109 31.1406C54.4547 31.1406 55.7125 29.5 55.7125 27.2109V26.5156C55.7125 24.2891 54.4469 22.625 52.1109 22.625ZM52.1031 23.9219C53.4391 23.9219 54.1266 24.9766 54.1266 26.5547V27.1875C54.1266 28.75 53.4469 29.8281 52.1031 29.8281C50.7672 29.8281 50.0719 28.7422 50.0719 27.1875V26.5547C50.0719 24.9844 50.7672 23.9219 52.1031 23.9219ZM57.2656 31H58.8359V26.0469C58.8359 24.9453 59.4375 24.0234 60.7344 24.0234C61.8281 24.0234 62.6172 24.6641 62.6172 26.0078V31H64.1875V25.7109C64.1875 23.7031 62.9609 22.6328 61.2734 22.6328C59.9219 22.6328 59.1641 23.3516 58.875 23.8906H58.8203V22.7656H57.2656V31ZM70.5297 29.9844H70.5844V31H72.0922V25.3594C72.0922 23.5625 70.7562 22.6328 68.9594 22.6328C66.8422 22.6328 65.8891 23.7578 65.8109 25.1719H67.2953C67.3656 24.4062 67.9281 23.8984 68.9125 23.8984C69.9437 23.8984 70.5219 24.4453 70.5219 25.4453V26.25H68.4047C66.5141 26.2578 65.5062 27.1797 65.5062 28.6328C65.5062 30.1562 66.6 31.1328 68.1937 31.1328C69.4125 31.1328 70.1469 30.625 70.5297 29.9844ZM68.6547 29.8906C67.85 29.8906 67.1 29.4609 67.1 28.5547C67.1 27.8438 67.5687 27.3438 68.6234 27.3438H70.5219V28.2734C70.5219 29.2266 69.7172 29.8906 68.6547 29.8906ZM74.4578 22.7656H73.3172V24.0469H74.4422V28.6875C74.4422 30.3281 74.9344 31.0625 76.9188 31.0625C77.2391 31.0625 77.5516 31.0312 77.6844 31.0078V29.7812C77.575 29.7891 77.45 29.7969 77.3094 29.7969C76.3484 29.7969 76.0125 29.5469 76.0125 28.6094V24.0469H77.6297V22.7656H76.0125V20.7344H74.4578V22.7656ZM79.2844 31H80.8625V22.7656H79.2844V31ZM79.1125 20.7578C79.1125 21.2891 79.5422 21.6875 80.0734 21.6875C80.6047 21.6875 81.0344 21.2891 81.0344 20.7578C81.0344 20.2266 80.6047 19.8281 80.0734 19.8281C79.5422 19.8281 79.1125 20.2266 79.1125 20.7578ZM82.8219 31H84.3922V26.0469C84.3922 24.9453 84.9938 24.0234 86.2906 24.0234C87.3844 24.0234 88.1734 24.6641 88.1734 26.0078V31H89.7438V25.7109C89.7438 23.7031 88.5172 22.6328 86.8297 22.6328C85.4781 22.6328 84.7203 23.3516 84.4313 23.8906H84.3766V22.7656H82.8219V31ZM94.8125 32.8359C93.7656 32.8359 93.1016 32.2812 92.9531 31.6406H91.375C91.5391 33.0156 92.6172 34.0781 94.8047 34.0781C96.6641 34.0781 98.4062 33.0859 98.4062 30.9297V22.7656H96.875V23.9375H96.8203C96.4531 23.2266 95.5625 22.6406 94.4375 22.6406C92.5234 22.6406 91.1953 24 91.1953 26.4531V27.0781C91.1953 29.5625 92.5312 30.9141 94.4375 30.9141C95.5703 30.9141 96.4609 30.3281 96.7812 29.6094H96.8359V30.8828C96.8359 32.1094 96.0469 32.8359 94.8125 32.8359ZM94.8438 23.9531C96.0547 23.9531 96.8359 24.9453 96.8359 26.5469V27.0391C96.8359 28.6641 96.0938 29.6328 94.8438 29.6328C93.5547 29.6328 92.7891 28.6719 92.7891 27.0391V26.5469C92.7891 24.8828 93.5547 23.9531 94.8438 23.9531Z" fill="black"/>
</g>
<defs>
<linearGradient id="paint0_linear" x1="59.832" y1="0" x2="59.832" y2="40.0001" gradientUnits="userSpaceOnUse">
<stop stop-color="#FFD131"/>
<stop offset="1" stop-color="#EFA792"/>
</linearGradient>
<clipPath id="clip0">
<rect width="119.664" height="40" fill="white"/>
</clipPath>
</defs>
</svg>
