<svg fill="none" height="40" viewBox="0 0 120 40" width="120" xmlns="http://www.w3.org/2000/svg" xmlns:xlink="http://www.w3.org/1999/xlink"><linearGradient id="a" gradientUnits="userSpaceOnUse" x1="59.832" x2="59.832" y1="0" y2="40"><stop offset="0" stop-color="#ffd131"/><stop offset="1" stop-color="#efa792"/></linearGradient><clipPath id="b"><path d="m0 0h119.664v40h-119.664z"/></clipPath><g clip-path="url(#b)"><path d="m110.135.00013h-100.60032c-.3667 0-.729 0-1.09473.002-.30615.002-.60986.00781-.91895.0127-.67149.0079018-1.34139.0669763-2.0039.17671-.66158.112123-1.30243.323506-1.90088.627-.59772.30606-1.14387.70376-1.61865 1.17866-.47727.47357-.87511 1.02095-1.17822 1.62109-.30395.59895-.514709 1.24078-.625 1.90332-.1113391.66171-.1712516 1.33104-.1792 2.002-.00928.3066-.01026.61422-.01515.92086v23.11423c.00489.3105.00587.6113.01515.9219.0079508.671.0678634 1.3403.1792 2.0019.109986.663.320758 1.3052.625 1.9043.30298.5982.70087 1.1434 1.17822 1.6143.47297.477 1.01948.875 1.61865 1.1787.59845.3043 1.23923.517 1.90088.6308.66262.1089 1.33246.168 2.0039.1768.30909.0068.6128.0107.91895.0107.36572.002.72805.002 1.09473.002h100.60032c.359 0 .724 0 1.084-.002.304 0 .617-.0039.922-.0107.67-.0083 1.338-.0674 2-.1768.663-.1146 1.307-.3272 1.908-.6308.598-.3039 1.144-.7018 1.617-1.1787.476-.4727.875-1.0175 1.182-1.6143.302-.5996.51-1.2417.619-1.9043.111-.6617.173-1.3309.185-2.0019.004-.3106.004-.6114.004-.9219.008-.3633.008-.7246.008-1.0938v-20.92864c0-.36621 0-.72949-.008-1.09179 0-.30664 0-.61426-.004-.9209-.012-.67102-.074-1.3402-.185-2.002-.109-.66216-.318-1.30394-.619-1.90332-.618-1.20292-1.596-2.18209-2.799-2.7998-.601-.302753-1.245-.51408-1.908-.627-.661-.1102172-1.33-.1693122-2-.17676-.305-.00488-.618-.01074-.922-.01269-.36-.002-.725-.002-1.084-.002z" fill="url(#a)"/><path d="m8.44291 39.125c-.30468 0-.602-.0039-.90429-.0107-.62621-.0082-1.25097-.0627-1.86914-.1631-.57641-.0993-1.13479-.2839-1.65674-.5479-.51715-.2618-.98884-.605-1.397-1.0166-.41406-.4067-.75878-.8785-1.02051-1.3965-.26461-.5214-.44773-1.0803-.543-1.6572-.102872-.6199-.158532-1.2467-.166496-1.875-.00634-.2109-.01464-.9131-.01464-.9131v-23.10056s.00884-.69141.01469-.89454c.007626-.62732.062962-1.25315.165526-1.87207.09544-.57848.27871-1.13898.54346-1.6621.26077-.51769.60358-.98977 1.01514-1.39795.41111-.41206.88431-.75708 1.40234-1.02247.52075-.26312 1.07808-.44648 1.65332-.54394.6202-.101434 1.24712-.156274 1.87551-.16406l.90232-.01221h102.7686l.913.0127c.623.007399 1.244.06175 1.858.16259.582.09869 1.145.28333 1.671.54785 1.038.53485 1.883 1.38102 2.415 2.41993.261.51951.441 1.07544.536 1.64892.103.624.161 1.25475.173 1.88721.003.2832.003.5874.003.89014.008.375.008.73193.008 1.09179v20.92867c0 .3633 0 .7178-.008 1.0752 0 .3252 0 .6231-.004.9297-.011.6212-.068 1.2407-.171 1.8535-.093.5811-.275 1.1443-.54 1.67-.263.5124-.606.9801-1.015 1.3857-.409.4138-.881.759-1.4 1.0225-.525.266-1.087.4513-1.668.5498-.618.101-1.242.1555-1.869.1631-.293.0068-.599.0107-.897.0107l-1.084.002z" fill="#fff"/><g fill="#000"><path d="m19.29 13.6421c.0249.7997.5864 1.7689 2.2212 1.763 1.314-.0047 2.2828-.6542 2.2786-1.8319-.0036-.9975-.6731-1.4214-1.5835-1.6467l-1.0029-.2513c-.5674-.1342-.8409-.4276-.8423-.8319-.0022-.5933.4932-.93342 1.2051-.93597.7998-.00287 1.2144.43067 1.2647.96667l.8745-.0031c-.026-1.13814-1.0213-1.72784-2.1287-1.72387-1.1294.00405-2.1292.62727-2.1251 1.76547.0035.958.6994 1.4125 1.4472 1.5944l1.0116.2513c.6554.1602.9639.4184.9656.893.0022.602-.4886.9861-1.2884.989-.8789.0031-1.3508-.4566-1.4055-1.0013zm9.3233-3.0174-.8877.0032.0101 2.8257c.0025.7075-.4399 1.1002-1.0551 1.1024-.5581.002-1.038-.2468-1.041-1.0817l-.0102-2.8389-.8877.0032.0111 3.085c.0038 1.0722.6737 1.6191 1.6273 1.6157.7471-.0027 1.1809-.3426 1.3378-.7079l.0352-.0001.0023.6284.8745-.0031zm3.5324 4.6896c1.0767-.0039 1.8164-.8195 1.8115-2.1862l-.0015-.4175c-.0049-1.3799-.7636-2.1726-1.8007-2.1689-.624.0023-1.0976.3072-1.3553.7476l-.0307.0001-.0024-.6724-.8614.0031.0223 6.2226.8877-.0032-.0079-2.2236.0307-.0001c.252.4166.7101.7006 1.3077.6985zm-.1697-.7465c-.7294.0026-1.1798-.5759-1.183-1.4855l-.0012-.334c-.0032-.8833.4386-1.465 1.1549-1.4675.6943-.0025 1.1093.5365 1.1127 1.4638l.0011.3296c.0035.9711-.4341 1.4913-1.0845 1.4936zm5.3201.728c1.0766-.0039 1.8164-.8195 1.8115-2.1862l-.0015-.4175c-.005-1.3798-.7637-2.1725-1.8008-2.1688-.624.0022-1.0975.3071-1.3552.7475l-.0308.0001-.0024-.6723-.8613.0031.0223 6.2226.8877-.0032-.008-2.2236.0308-.0001c.252.4165.71.7005 1.3077.6984zm-.1697-.7465c-.7295.0026-1.1798-.5758-1.1831-1.4855l-.0012-.334c-.0031-.8833.4386-1.4649 1.1549-1.4675.6944-.0025 1.1094.5366 1.1127 1.4638l.0012.3296c.0035.9712-.4341 1.4913-1.0845 1.4936zm4.9206-4.0518c-1.3228.0047-2.0357.9477-2.0312 2.2002l.0014.3867c.0046 1.2876.7242 2.2078 2.0469 2.2031 1.3184-.0047 2.0226-.9301 2.018-2.2177l-.0014-.3911c-.0045-1.2524-.7198-2.1859-2.0337-2.1812zm-.0018.7295c.7514-.0027 1.1403.5892 1.1435 1.4769l.0012.3559c.0032.8789-.377 1.4867-1.1328 1.4894-.7515.0027-1.1448-.6067-1.1479-1.4812l-.0013-.356c-.0031-.8833.3858-1.4823 1.1373-1.485zm3.1431 3.9702.8965-.0032-.01-2.7949c-.0022-.624.2553-1.1172 1.0551-1.12.1494-.0006.312.0076.3956.0249l-.0029-.7954c-.0923-.0128-.1978-.0212-.3121-.0208-.6503.0023-.9962.3815-1.1182.6632l-.0308.0001-.0021-.5889-.8877.0032zm3.732-4.6452-.6416.0023.0025.7206.6328-.0022.0094 2.6103c.0033.9229.2816 1.335 1.3978 1.331.1802-.0007.3559-.0189.4306-.0324l-.0025-.6899c-.0615.0046-.1318.0093-.2109.0096-.5405.0019-.73-.1381-.7319-.6654l-.0092-2.5664.9097-.0032-.0026-.7207-.9096.0032-.0041-1.14255-.8745.00313zm4.9306-.0177-.6416.0023.0026.7207.6328-.0023.0093 2.6103c.0033.9229.2817 1.335 1.3979 1.331.1802-.0007.3559-.0189.4305-.0323l-.0024-.69c-.0615.0046-.1318.0093-.2109.0096-.5406.0019-.73-.138-.7319-.6654l-.0092-2.5664.9096-.0032-.0025-.7207-.9097.0032-.0041-1.14253-.8745.00314zm2.9257 4.6214.8877-.0032-.0099-2.7861c-.0023-.6197.3299-1.1394 1.0637-1.142.6197-.0023 1.0604.3565 1.0631 1.1124l.0101 2.808.8877-.0031-.0107-2.9751c-.004-1.1294-.7005-1.729-1.6497-1.7256-.7559.0028-1.1763.4086-1.3378.7124l-.0308.0001-.0083-2.31593-.8877.00318zm5.1636-.0186.8877-.0031-.0166-4.6318-.8877.0031zm-.1173-5.7608c.001.29882.2435.52208.5424.521.2988-.00107.5397-.22605.5386-.52488-.0011-.29882-.2436-.52208-.5424-.52101s-.5397.22606-.5386.52489zm2.1401 2.4621c.0031.8437.7028 1.1225 1.556 1.2952.6288.1208 1.1609.2112 1.1627.7077.0013.3648-.2964.6735-.9512.6758-.5757.0021-.9194-.2604-.978-.6557l-.8657.0031c.003.8306.708 1.3422 1.7846 1.3384 1.1382-.0041 1.8789-.5429 1.8756-1.4745-.0032-.8877-.6984-1.1401-1.5647-1.2908-.5277-.0948-1.1608-.1892-1.1626-.6902-.0015-.4175.3624-.6517.8765-.6535.668-.0024.8803.3791.9079.713l.8086-.0029c-.0029-.7998-.5983-1.3953-1.6925-1.3914-.9185.0033-1.7607.4326-1.7572 1.4258zm8.6385 3.3308c1.0767-.0038 1.8164-.8195 1.8115-2.1862l-.0015-.4174c-.0049-1.3799-.7636-2.1726-1.8007-2.1689-.6241.0023-1.0976.3072-1.3553.7476l-.0307.0001-.0024-.6724-.8614.0031.0223 6.2226.8877-.0032-.0079-2.2236.0307-.0001c.252.4166.7101.7006 1.3077.6984zm-.1697-.7464c-.7295.0026-1.1798-.5759-1.183-1.4855l-.0012-.334c-.0032-.8833.4386-1.465 1.1549-1.4676.6943-.0024 1.1093.5366 1.1127 1.4638l.0011.3296c.0035.9712-.4341 1.4913-1.0845 1.4937zm3.0874.6657.8965-.0032-.01-2.795c-.0023-.624.2552-1.1171 1.055-1.12.1495-.0005.3121.0077.3956.025l-.0028-.7954c-.0923-.0129-.1978-.0213-.3121-.0209-.6504.0024-.9962.3815-1.1182.6632l-.0308.0001-.0021-.5888-.8877.0032zm4.9885-4.7289c-1.3228.0048-2.0357.9477-2.0312 2.2002l.0014.3867c.0046 1.2876.7242 2.2079 2.0469 2.2031 1.3184-.0047 2.0226-.9301 2.018-2.2177l-.0014-.3911c-.0045-1.2524-.7198-2.1859-2.0337-2.1812zm-.0018.7295c.7514-.0027 1.1403.5892 1.1435 1.4769l.0012.3559c.0032.8789-.377 1.4868-1.1328 1.4895-.7515.0027-1.1448-.6068-1.1479-1.4813l-.0013-.3559c-.0032-.8833.3858-1.4824 1.1373-1.4851zm3.0697-1.79078c.0011.29882.2436.52208.5424.52101.2989-.00107.5398-.22606.5387-.52489-.0011-.29882-.2436-.52208-.5424-.52101-.2988.00108-.5397.22606-.5387.52489zm.9841 1.12588-.8833.0032.017 4.7372c.002.5801-.1728.8356-.6299.8373-.0966.0003-.2109-.0081-.2769-.021l.0024.6767c.0704.0174.299.0385.4528.038.8218-.003 1.3387-.4531 1.3349-1.5253zm3.1545 4.6997c1.0987-.004 1.7028-.6346 1.8539-1.391l-.8569.0031c-.1303.4135-.4722.6697-.982.6715-.6987.0025-1.1313-.5497-1.1343-1.3714l-.0003-.0967 3.0278-.0109-.0016-.4394c-.0046-1.292-.7328-2.1595-1.9589-2.1551-1.2217.0043-1.9569.8551-1.9523 2.1251l.0017.4878c.0048 1.3491.7769 2.1813 2.0029 2.177zm-1.122-2.8349v-.0132c-.0025-.6855.4175-1.232 1.0766-1.2343.646-.0023 1.0742.5366 1.0767 1.2266l.0001.0132zm3.9266.6231c.0046 1.2744.7286 2.1991 1.9767 2.1946 1.0722-.0038 1.7074-.5598 1.8361-1.4348l-.8481.003c-.0734.3651-.3799.6738-.9336.6758-.6944.0024-1.1358-.5585-1.139-1.4374l-.0015-.4131c-.0031-.8877.4124-1.4297 1.1243-1.4322.4746-.0017.823.3442.9123.735l.8526-.0031c-.0424-.7689-.7129-1.4872-1.8203-1.4832-1.2349.0044-1.9655.9035-1.961 2.1648zm5.2293-2.528-.6416.0023.0026.7207.6328-.0023.0093 2.6103c.0033.9229.2817 1.335 1.3979 1.331.1801-.0007.3559-.0189.4305-.0323l-.0024-.69c-.0616.0047-.1319.0093-.211.0096-.5405.0019-.7299-.138-.7318-.6654l-.0092-2.5664.9096-.0032-.0026-.7207-.9096.0032-.0041-1.14252-.8745.00313z"/><path d="m24.1875 31.125c1.9531 0 3.2344-1.4531 3.2344-3.8594v-.7812c0-2.4844-1.3203-3.8438-3.2266-3.8438-1.0547 0-1.9922.5391-2.3984 1.2735h-.0547v-4.1407h-1.5781v11.2266h1.5312v-1.25h.0547c.4609.8438 1.2656 1.375 2.4375 1.375zm-.3203-1.3281c-1.336 0-2.1406-.9141-2.1406-2.6172v-.6094c0-1.6953.8125-2.6015 2.1406-2.6015 1.1484 0 1.9531.914 1.9531 2.6015v.625c0 1.6797-.7969 2.6016-1.9531 2.6016zm11.6078-7.0313h-1.6797l-2.0859 6.625h-.0547l-2.0703-6.625h-1.75l2.9765 8.3203-.1093.3907c-.2032.7968-.586 1.25-1.5782 1.25-.1953 0-.5-.0157-.625-.0391v1.2266c.2032.0312.586.0703.9297.0703 1.8438 0 2.4844-1.1563 2.9766-2.461l.2109-.5703c.0078-.0312 2.8594-8.1875 2.8594-8.1875zm3.6531-2.4297v10.6641h3.5703c3.4844 0 4.7188-2.2734 4.7188-5.3438 0-3.1171-1.2813-5.3203-4.7188-5.3203zm1.6094 1.3829h1.8203c2.3516 0 3.1953 1.5703 3.1953 3.9609 0 2.6484-1.039 3.9375-3.1953 3.9375h-1.8203zm11.3734.9062c-2.3515 0-3.625 1.6719-3.625 3.8984v.6875c0 2.2891 1.2735 3.9297 3.625 3.9297 2.3438 0 3.6016-1.6406 3.6016-3.9297v-.6953c0-2.2265-1.2656-3.8906-3.6016-3.8906zm-.0078 1.2969c1.336 0 2.0235 1.0547 2.0235 2.6328v.6328c0 1.5625-.6797 2.6406-2.0235 2.6406-1.3359 0-2.0312-1.0859-2.0312-2.6406v-.6328c0-1.5703.6953-2.6328 2.0312-2.6328zm5.1625 7.0781h1.5703v-4.9531c0-1.1016.6016-2.0235 1.8985-2.0235 1.0937 0 1.8828.6407 1.8828 1.9844v4.9922h1.5703v-5.2891c0-2.0078-1.2266-3.0781-2.9141-3.0781-1.3515 0-2.1093.7188-2.3984 1.2578h-.0547v-1.125h-1.5547zm13.2641-1.0156h.0547v1.0156h1.5078v-5.6406c0-1.7969-1.336-2.7266-3.1328-2.7266-2.1172 0-3.0703 1.125-3.1485 2.5391h1.4844c.0703-.7657.6328-1.2735 1.6172-1.2735 1.0312 0 1.6094.5469 1.6094 1.5469v.8047h-2.1172c-1.8906.0078-2.8985.9297-2.8985 2.3828 0 1.5234 1.0938 2.5 2.6875 2.5 1.2188 0 1.9532-.5078 2.336-1.1484zm-1.875-.0938c-.8047 0-1.5547-.4297-1.5547-1.3359 0-.7109.4687-1.2109 1.5234-1.2109h1.8985v.9296c0 .9532-.8047 1.6172-1.8672 1.6172zm5.8031-7.125h-1.1406v1.2813h1.125v4.6406c0 1.6406.4922 2.375 2.4766 2.375.3203 0 .6328-.0313.7656-.0547v-1.2266c-.1094.0079-.2344.0157-.375.0157-.961 0-1.2969-.25-1.2969-1.1875v-4.5625h1.6172v-1.2813h-1.6172v-2.0312h-1.5547zm4.8266 8.2344h1.5781v-8.2344h-1.5781zm-.1719-10.2422c0 .5313.4297.9297.9609.9297.5313 0 .961-.3984.961-.9297 0-.5312-.4297-.9297-.961-.9297-.5312 0-.9609.3985-.9609.9297zm3.7094 10.2422h1.5703v-4.9531c0-1.1016.6016-2.0235 1.8984-2.0235 1.0938 0 1.8828.6407 1.8828 1.9844v4.9922h1.5704v-5.2891c0-2.0078-1.2266-3.0781-2.9141-3.0781-1.3516 0-2.1094.7188-2.3984 1.2578h-.0547v-1.125h-1.5547zm11.9906 1.8359c-1.0469 0-1.7109-.5547-1.8594-1.1953h-1.5781c.1641 1.375 1.2422 2.4375 3.4297 2.4375 1.8594 0 3.6015-.9922 3.6015-3.1484v-8.1641h-1.5312v1.1719h-.0547c-.3672-.7109-1.2578-1.2969-2.3828-1.2969-1.9141 0-3.2422 1.3594-3.2422 3.8125v.625c0 2.4844 1.3359 3.836 3.2422 3.836 1.1328 0 2.0234-.586 2.3437-1.3047h.0547v1.2734c0 1.2266-.789 1.9531-2.0234 1.9531zm.0313-8.8828c1.2109 0 1.9921.9922 1.9921 2.5938v.4922c0 1.625-.7421 2.5937-1.9921 2.5937-1.2891 0-2.0547-.9609-2.0547-2.5937v-.4922c0-1.6641.7656-2.5938 2.0547-2.5938z"/></g></g></svg>