<svg fill="none" height="40" viewBox="0 0 120 40" width="120" xmlns="http://www.w3.org/2000/svg" xmlns:xlink="http://www.w3.org/1999/xlink"><clipPath id="a"><path d="m0 0h119.664v40h-119.664z"/></clipPath><g clip-path="url(#a)"><path d="m110.135.00013h-100.60032c-.3667 0-.729 0-1.09473.002-.30615.002-.60986.00781-.91895.0127-.67149.0079018-1.34139.0669763-2.0039.17671-.66158.112123-1.30243.323506-1.90088.627-.59772.30606-1.14387.70376-1.61865 1.17866-.47727.47357-.87511 1.02095-1.17822 1.62109-.30395.59895-.514709 1.24078-.625 1.90332-.1113391.66171-.1712516 1.33104-.1792 2.002-.00928.3066-.01026.61422-.01515.92086v23.11423c.00489.3105.00587.6113.01515.9219.0079508.671.0678634 1.3403.1792 2.0019.109986.663.320758 1.3052.625 1.9043.30298.5982.70087 1.1434 1.17822 1.6143.47297.477 1.01948.875 1.61865 1.1787.59845.3043 1.23923.517 1.90088.6308.66262.1089 1.33246.168 2.0039.1768.30909.0068.6128.0107.91895.0107.36572.002.72805.002 1.09473.002h100.60032c.359 0 .724 0 1.084-.002.304 0 .617-.0039.922-.0107.67-.0083 1.338-.0674 2-.1768.663-.1146 1.307-.3272 1.908-.6308.598-.3039 1.144-.7018 1.617-1.1787.476-.4727.875-1.0175 1.182-1.6143.302-.5996.51-1.2417.619-1.9043.111-.6617.173-1.3309.185-2.0019.004-.3106.004-.6114.004-.9219.008-.3633.008-.7246.008-1.0938v-20.92864c0-.36621 0-.72949-.008-1.09179 0-.30664 0-.61426-.004-.9209-.012-.67102-.074-1.3402-.185-2.002-.109-.66216-.318-1.30394-.619-1.90332-.618-1.20292-1.596-2.18209-2.799-2.7998-.601-.302753-1.245-.51408-1.908-.627-.661-.1102172-1.33-.1693122-2-.17676-.305-.00488-.618-.01074-.922-.01269-.36-.002-.725-.002-1.084-.002z" fill="#60ccc3"/><path d="m8.44291 39.125c-.30468 0-.602-.0039-.90429-.0107-.62621-.0082-1.25097-.0627-1.86914-.1631-.57641-.0993-1.13479-.2839-1.65674-.5479-.51715-.2618-.98884-.605-1.397-1.0166-.41406-.4067-.75878-.8785-1.02051-1.3965-.26461-.5214-.44773-1.0803-.543-1.6572-.102872-.6199-.158532-1.2467-.166496-1.875-.00634-.2109-.01464-.9131-.01464-.9131v-23.10056s.00884-.69141.01469-.89454c.007626-.62732.062962-1.25315.165526-1.87207.09544-.57848.27871-1.13898.54346-1.6621.26077-.51769.60358-.98977 1.01514-1.39795.41111-.41206.88431-.75708 1.40234-1.02247.52075-.26312 1.07808-.44648 1.65332-.54394.6202-.101434 1.24712-.156274 1.87551-.16406l.90232-.01221h102.7686l.913.0127c.623.007399 1.244.06175 1.858.16259.582.09869 1.145.28333 1.671.54785 1.038.53485 1.883 1.38102 2.415 2.41993.261.51951.441 1.07544.536 1.64892.103.624.161 1.25475.173 1.88721.003.2832.003.5874.003.89014.008.375.008.73193.008 1.09179v20.92867c0 .3633 0 .7178-.008 1.0752 0 .3252 0 .6231-.004.9297-.011.6212-.068 1.2407-.171 1.8535-.093.5811-.275 1.1443-.54 1.67-.263.5124-.606.9801-1.015 1.3857-.409.4138-.881.759-1.4 1.0225-.525.266-1.087.4513-1.668.5498-.618.101-1.242.1555-1.869.1631-.293.0068-.599.0107-.897.0107l-1.084.002z" fill="#fff"/><g fill="#000"><path d="m26.3168 13.4539-2.6895.0102-.0176-5.20311-.9052.00344.0203 5.99847 3.5947-.0136zm2.5561.8648c1.0987-.0042 1.703-.6349 1.8542-1.3914l-.8569.0033c-.1304.4136-.4723.6698-.9821.6717-.6987.0027-1.1313-.5494-1.134-1.3712l-.0004-.0967 3.0278-.0115-.0015-.4394c-.0043-1.292-.7324-2.15937-1.9584-2.15471-1.2217.00464-1.9571.85561-1.9528 2.12561l.0016.4878c.0046 1.3491.7765 2.1811 2.0025 2.1765zm-1.1214-2.8347v-.0131c-.0023-.6856.4177-1.2321 1.0769-1.2346.646-.0025 1.0741.5364 1.0764 1.2264v.0132zm4.419-1.88884-.6416.00244.0024.7207.6328-.0024.0088 2.6103c.0032.9229.2814 1.3349 1.3976 1.3307.1802-.0007.3559-.019.4306-.0324l-.0024-.69c-.0615.0047-.1318.0093-.2109.0096-.5405.0021-.7299-.1378-.7317-.6652l-.0087-2.5664.9097-.0034-.0025-.72072-.9096.00346-.0039-1.14257-.8745.00332zm8.4242-.03201-.8877.00337.0096 2.82568c.0024.7075-.4402 1.1003-1.0554 1.1026-.5581.0022-1.0379-.2465-1.0408-1.0815l-.0096-2.83881-.8876.00337.0104 3.08494c.0036 1.0723.6734 1.619 1.627 1.6154.7471-.0028 1.181-.3429 1.338-.7082l.0351-.0001.0022.6284.8745-.0033zm1.1076 1.33615c.0028.8437.7025 1.1223 1.5556 1.2949.6288.1206 1.1609.2109 1.1626.7075.0012.3647-.2966.6735-.9514.6759-.5756.0022-.9193-.2601-.9778-.6554l-.8657.0033c.0028.8305.7077 1.342 1.7843 1.3379 1.1382-.0043 1.8791-.5433 1.8759-1.4749-.003-.8877-.6982-1.1399-1.5644-1.2904-.5277-.0947-1.1608-.189-1.1625-.69-.0014-.4174.3625-.6517.8767-.6537.668-.0025.8802.379.9077.7129l.8086-.0031c-.0027-.7998-.598-1.3952-1.6922-1.39104-.9185.00349-1.7608.43296-1.7574 1.42614zm6.4183 3.2671.8877-.0034-.0095-2.7861c-.0021-.6196.3302-1.1394 1.0641-1.1422.6196-.0024 1.0602.3563 1.0628 1.1122l.0095 2.8081.8877-.0034-.0101-2.9751c-.0038-1.1294-.7002-1.7288-1.6494-1.72519-.7558.00287-1.1763.40877-1.3379.71259l-.0308.0001-.0078-2.31587-.8877.00338zm6.926.0528c1.0986-.0042 1.7029-.6349 1.8542-1.3913l-.857.0032c-.1304.4136-.4723.6698-.9821.6717-.6987.0027-1.1312-.5494-1.134-1.3712l-.0003-.0966 3.0278-.0116-.0015-.4394c-.0044-1.292-.7324-2.15935-1.9585-2.15469-1.2217.00464-1.9571.85559-1.9528 2.12559l.0017.4878c.0045 1.3491.7764 2.1811 2.0025 2.1765zm-1.1214-2.8346-.0001-.0132c-.0023-.6856.4177-1.2321 1.0769-1.2346.646-.0024 1.0741.5365 1.0764 1.2264l.0001.0132zm4.1533 2.744.8833-.0034-.0213-6.3149-.8833.00336zm4.4343.0534c1.0766-.0041 1.8166-.8199 1.812-2.1866l-.0015-.4174c-.0046-1.3799-.7632-2.17245-1.8003-2.16851-.624.00237-1.0976.3074-1.3554.74781l-.0307.0001-.0023-.67232-.8613.00327.021 6.22265.8877-.0034-.0075-2.2236.0308-.0001c.2519.4165.7098.7004 1.3075.6981zm-.1695-.7464c-.7295.0028-1.1797-.5756-1.1828-1.4853l-.0011-.334c-.003-.8832.4389-1.465 1.1552-1.4677.6943-.0027 1.1092.5363 1.1124 1.4635l.0011.3296c.0033.9712-.4344 1.4914-1.0848 1.4939zm8.5383-3.98757-.9448.00359-1.1607 3.73098-.0308.0001-1.1771-3.72207-.9844.00374 1.6901 4.67383-.0608.2199c-.1127.4487-.3272.7044-.8853.7065-.1098.0004-.2813-.0077-.3516-.0206l.0023.6899c.1143.0172.3297.0383.5231.0376 1.0371-.004 1.3952-.6557 1.6696-1.3907l.1176-.3212c.0043-.0176 1.5928-4.61157 1.5928-4.61157zm2.4826-.08853c-1.3227.00502-2.0358.9482-2.0316 2.2006l.0013.3867c.0044 1.2876.7238 2.2077 2.0465 2.2027 1.3184-.005 2.0228-.9305 2.0184-2.2181l-.0013-.3911c-.0042-1.2525-.7193-2.1858-2.0333-2.1808zm-.0019.7295c.7515-.0029 1.1402.5889 1.1432 1.4766l.0012.356c.003.8789-.3773 1.4868-1.1332 1.4896-.7514.0029-1.1446-.6064-1.1476-1.481l-.0012-.3559c-.0029-.8833.3861-1.4824 1.1376-1.4853zm6.9323-.67674-.8877.00337.0096 2.82567c.0024.7075-.4401 1.1003-1.0554 1.1027-.5581.0021-1.0379-.2466-1.0407-1.0816l-.0096-2.8388-.8877.00337.0104 3.08493c.0036 1.0723.6734 1.619 1.6271 1.6154.747-.0028 1.1809-.3428 1.3379-.7082l.0352-.0001.0021.6284.8745-.0033z"/><path d="m24.4297 23.9531c0-2.2734 1.1875-3.4375 2.75-3.4375 1.5703 0 2.75 1.1641 2.75 3.4375v1.5157c0 2.2812-1.1797 3.3515-2.75 3.3515-1.5625 0-2.75-1.0703-2.75-3.3515zm-1.625 1.5157c0 3.0156 1.6875 4.75 4.3594 4.75 2.6797 0 4.3906-1.7344 4.3906-4.75v-1.5c0-3.0313-1.6875-4.8516-4.3594-4.8516s-4.3906 1.8203-4.3906 4.8516zm10.2953 4.5312h1.5703v-4.9531c0-1.1016.6016-2.0235 1.8985-2.0235 1.0937 0 1.8828.6407 1.8828 1.9844v4.9922h1.5703v-5.2891c0-2.0078-1.2266-3.0781-2.9141-3.0781-1.3515 0-2.1094.7188-2.3984 1.2578h-.0547v-1.125h-1.5547zm12.7406.125c1.9532 0 3.2344-1.4531 3.2344-3.8594v-.7812c0-2.4844-1.3203-3.8438-3.2266-3.8438-1.0546 0-1.9921.5391-2.3984 1.2735h-.0547v-4.1407h-1.5781v11.2266h1.5312v-1.25h.0547c.461.8438 1.2657 1.375 2.4375 1.375zm-.3203-1.3281c-1.3359 0-2.1406-.9141-2.1406-2.6172v-.6094c0-1.6953.8125-2.6015 2.1406-2.6015 1.1485 0 1.9531.914 1.9531 2.6015v.625c0 1.6797-.7968 2.6016-1.9531 2.6016zm8.3969-7.1719c-2.3516 0-3.625 1.6719-3.625 3.8984v.6875c0 2.2891 1.2734 3.9297 3.625 3.9297 2.3437 0 3.6015-1.6406 3.6015-3.9297v-.6953c0-2.2265-1.2656-3.8906-3.6015-3.8906zm-.0078 1.2969c1.3359 0 2.0234 1.0547 2.0234 2.6328v.6328c0 1.5625-.6797 2.6406-2.0234 2.6406-1.336 0-2.0313-1.0859-2.0313-2.6406v-.6328c0-1.5703.6953-2.6328 2.0313-2.6328zm9.7328 6.0625h.0547v1.0156h1.5078v-5.6406c0-1.7969-1.3359-2.7266-3.1328-2.7266-2.1172 0-3.0703 1.125-3.1485 2.5391h1.4844c.0703-.7657.6328-1.2735 1.6172-1.2735 1.0313 0 1.6094.5469 1.6094 1.5469v.8047h-2.1172c-1.8906.0078-2.8984.9297-2.8984 2.3828 0 1.5234 1.0937 2.5 2.6875 2.5 1.2187 0 1.9531-.5078 2.3359-1.1484zm-1.875-.0938c-.8047 0-1.5547-.4297-1.5547-1.3359 0-.7109.4688-1.2109 1.5234-1.2109h1.8985v.9296c0 .9532-.8047 1.6172-1.8672 1.6172zm5.2484 1.1094h1.5938v-4.9688c0-1.1093.4609-1.9843 1.8828-1.9843.2656 0 .5547.0156.7031.0469v-1.4141c-.1641-.0235-.3515-.0391-.5547-.0391-1.1562 0-1.7734.6719-1.9922 1.1719h-.0546v-1.0469h-1.5782zm8.1235-8.3672c-2.0391 0-3.2422 1.5938-3.2422 3.875v.7344c0 2.3281 1.1406 3.875 3.2422 3.875 1.1093 0 1.9765-.5234 2.414-1.3672h.0469v1.25h1.5312v-11.2266h-1.5781v4.1485h-.0547c-.3984-.7422-1.2578-1.2891-2.3593-1.2891zm.3437 1.3281c1.2891 0 2.0859 1.0157 2.0859 2.6016v.6406c0 1.6641-.789 2.586-2.0703 2.586-1.164 0-2-.8594-2-2.5938v-.6328c0-1.7422.836-2.6016 1.9844-2.6016zm12.1453 7.0391v-10.6641h-1.5156c-.6797.3594-1.9531 1.1485-2.6094 1.6172v1.5703c.6094-.4218 2.0313-1.3125 2.4922-1.5625h.0391v9.0391zm1.7657-2.4531c0 .5547.4453 1.0078 1 1.0078.5546 0 1.0078-.4531 1.0078-1.0078 0-.5469-.4532-1-1.0078-1-.5547 0-1 .4531-1 1zm0-5.5157c0 .5547.4453 1 1 1 .5546 0 1.0078-.4453 1.0078-1 0-.5546-.4532-1-1.0078-1-.5547 0-1 .4454-1 1zm7.6875 7.9688v-10.6641h-1.5157c-.6797.3594-1.9531 1.1485-2.6093 1.6172v1.5703c.6093-.4218 2.0312-1.3125 2.4921-1.5625h.0391v9.0391z"/></g></g></svg>