<svg fill="none" height="40" width="120" xmlns="http://www.w3.org/2000/svg"><clipPath id="a"><path d="M0 0h119.664v40H0z"/></clipPath><g clip-path="url(#a)"><path d="M110.135 0H9.535c-.367 0-.73 0-1.095.002-.306.002-.61.008-.919.013C6.85.023 6.18.082 5.517.192a6.665 6.665 0 0 0-1.9.627A6.438 6.438 0 0 0 .193 5.522a12.993 12.993 0 0 0-.179 2.002c-.01.306-.01.614-.015.92V31.56c.005.31.006.611.015.922.008.67.068 1.34.18 2.001.11.663.32 1.306.624 1.905.303.598.701 1.143 1.179 1.614.473.477 1.02.875 1.618 1.179a6.7 6.7 0 0 0 1.901.63c.663.11 1.333.169 2.004.177.31.007.613.011.919.011.366.002.728.002 1.095.002h100.6c.359 0 .724 0 1.084-.002.304 0 .617-.004.922-.01a13.27 13.27 0 0 0 2-.177 6.805 6.805 0 0 0 1.908-.631A6.293 6.293 0 0 0 117.666 38a6.403 6.403 0 0 0 1.182-1.614c.302-.6.51-1.242.619-1.905.111-.661.173-1.33.185-2.001.004-.311.004-.612.004-.922.008-.364.008-.725.008-1.094V9.536c0-.366 0-.73-.008-1.092 0-.306 0-.614-.004-.92a13.57 13.57 0 0 0-.185-2.002 6.648 6.648 0 0 0-.619-1.904 6.469 6.469 0 0 0-2.799-2.8 6.77 6.77 0 0 0-1.908-.627c-.661-.11-1.33-.169-2-.176-.305-.005-.618-.011-.922-.013-.36-.002-.725-.002-1.084-.002z" fill="#60ccc3"/><path d="M8.443 39.125c-.305 0-.602-.004-.904-.01a12.696 12.696 0 0 1-1.87-.164 5.884 5.884 0 0 1-1.656-.548 5.406 5.406 0 0 1-1.397-1.016 5.321 5.321 0 0 1-1.02-1.397 5.722 5.722 0 0 1-.544-1.657 12.414 12.414 0 0 1-.166-1.875c-.007-.21-.015-.913-.015-.913v-23.1s.009-.692.015-.895a12.37 12.37 0 0 1 .165-1.872 5.756 5.756 0 0 1 .544-1.662c.26-.518.603-.99 1.015-1.398A5.566 5.566 0 0 1 5.666 1.05C6.286.95 6.913.895 7.54.887l.902-.012h102.769l.913.013a12.37 12.37 0 0 1 1.858.162 5.922 5.922 0 0 1 1.671.548 5.589 5.589 0 0 1 2.415 2.42c.261.52.441 1.076.536 1.649.103.624.161 1.255.173 1.887.003.283.003.588.003.89.008.375.008.732.008 1.092v20.929c0 .363 0 .718-.008 1.075 0 .325 0 .623-.004.93-.011.62-.068 1.24-.171 1.853a5.716 5.716 0 0 1-.54 1.67 5.47 5.47 0 0 1-1.015 1.386 5.414 5.414 0 0 1-1.4 1.022 5.855 5.855 0 0 1-1.668.55c-.618.101-1.242.156-1.869.163-.293.007-.599.011-.897.011l-1.084.002z" fill="#fff"/><g fill="#000"><path d="M26.317 13.454l-2.69.01-.017-5.203-.905.003.02 5.999 3.594-.014zm2.556.865c1.099-.004 1.703-.635 1.854-1.392l-.857.004c-.13.413-.472.67-.982.671-.699.003-1.131-.55-1.134-1.37v-.098l3.028-.011-.002-.44c-.004-1.291-.732-2.159-1.958-2.154-1.222.004-1.957.855-1.953 2.125l.001.488c.005 1.35.777 2.181 2.003 2.177zm-1.121-2.835v-.013c-.003-.686.417-1.232 1.076-1.235.646-.002 1.074.537 1.077 1.227v.013zm4.419-1.889l-.642.003.002.72.633-.002.009 2.61c.003.923.281 1.335 1.397 1.33.18 0 .356-.018.431-.031l-.002-.69a2.85 2.85 0 0 1-.211.01c-.54.001-.73-.139-.732-.666l-.009-2.566.91-.004-.002-.72-.91.003-.004-1.143-.874.004zm8.424-.032l-.888.004.01 2.825c.002.708-.44 1.1-1.056 1.103-.558.002-1.038-.247-1.04-1.082l-.01-2.839-.888.004.01 3.085c.004 1.072.674 1.619 1.628 1.615.747-.003 1.18-.343 1.338-.708h.035l.002.628.874-.003zm1.107 1.336c.003.844.703 1.123 1.556 1.295.629.12 1.16.211 1.162.708.002.364-.296.673-.95.676-.577.002-.92-.26-.979-.656l-.865.004c.002.83.707 1.342 1.784 1.337 1.138-.004 1.879-.543 1.876-1.474-.003-.888-.698-1.14-1.565-1.29-.527-.096-1.16-.19-1.162-.69-.002-.418.362-.653.877-.655.668-.002.88.38.907.713l.809-.003c-.003-.8-.598-1.395-1.692-1.39-.919.003-1.761.432-1.758 1.425zm6.419 3.267l.887-.003-.01-2.786c-.001-.62.331-1.14 1.065-1.142.62-.003 1.06.356 1.063 1.112l.01 2.808.887-.003-.01-2.975c-.004-1.13-.7-1.73-1.65-1.726-.755.003-1.176.41-1.337.713h-.031l-.008-2.316-.888.004zm6.926.053c1.098-.004 1.703-.635 1.854-1.391l-.857.003c-.13.414-.472.67-.982.672-.699.003-1.132-.55-1.134-1.371v-.097l3.027-.012-.001-.439c-.005-1.292-.733-2.16-1.959-2.155-1.222.005-1.957.856-1.953 2.126l.002.488c.005 1.349.776 2.18 2.003 2.176zm-1.122-2.834v-.014c-.002-.685.418-1.232 1.077-1.234.646-.003 1.074.536 1.076 1.226v.013zm4.153 2.744l.884-.004-.022-6.315-.883.004zm4.435.053c1.076-.004 1.816-.82 1.812-2.187l-.002-.417c-.004-1.38-.763-2.172-1.8-2.169-.624.003-1.098.308-1.355.748h-.031l-.002-.672-.862.003.021 6.223.888-.003-.007-2.224h.03c.252.416.71.7 1.308.698zm-.17-.746c-.73.002-1.18-.576-1.183-1.486v-.334c-.004-.883.438-1.465 1.155-1.467.694-.003 1.109.536 1.112 1.463l.001.33c.003.97-.434 1.491-1.085 1.494zm8.539-3.988l-.945.004-1.16 3.73h-.032l-1.177-3.721-.984.003 1.69 4.674-.06.22c-.114.449-.328.705-.886.707-.11 0-.282-.008-.352-.021l.002.69c.115.017.33.038.524.038 1.037-.004 1.395-.656 1.67-1.391l.117-.321c.004-.018 1.593-4.612 1.593-4.612zm2.482-.088c-1.323.005-2.036.948-2.031 2.2v.387c.005 1.287.725 2.208 2.047 2.203 1.319-.005 2.023-.931 2.019-2.219l-.002-.39c-.004-1.253-.719-2.186-2.033-2.181zm-.002.729c.752-.003 1.14.589 1.143 1.477l.002.356c.003.879-.378 1.486-1.134 1.49-.75.002-1.144-.607-1.147-1.482l-.001-.356c-.003-.883.386-1.482 1.137-1.485zm6.933-.677l-.888.004.01 2.825c.002.708-.44 1.1-1.056 1.103-.558.002-1.038-.247-1.04-1.082l-.01-2.838-.888.003.01 3.085c.004 1.072.674 1.619 1.628 1.615.747-.002 1.18-.342 1.337-.708h.036l.002.628.874-.003zM24.43 23.953c0-2.273 1.187-3.437 2.75-3.437 1.57 0 2.75 1.164 2.75 3.437v1.516c0 2.281-1.18 3.351-2.75 3.351-1.563 0-2.75-1.07-2.75-3.351zm-1.625 1.516c0 3.015 1.687 4.75 4.36 4.75 2.679 0 4.39-1.735 4.39-4.75v-1.5c0-3.032-1.688-4.852-4.36-4.852s-4.39 1.82-4.39 4.852zM33.1 30h1.57v-4.953c0-1.102.602-2.024 1.899-2.024 1.093 0 1.883.641 1.883 1.985V30h1.57v-5.29c0-2.007-1.227-3.077-2.914-3.077-1.352 0-2.11.719-2.399 1.258h-.054v-1.125H33.1zm12.74.125c1.954 0 3.235-1.453 3.235-3.86v-.78c0-2.485-1.32-3.844-3.227-3.844-1.054 0-1.992.539-2.398 1.273h-.055v-4.14h-1.578V30h1.531v-1.25h.055c.461.844 1.266 1.375 2.438 1.375zm-.32-1.328c-1.336 0-2.14-.914-2.14-2.617v-.61c0-1.695.812-2.601 2.14-2.601 1.149 0 1.953.914 1.953 2.601v.625c0 1.68-.796 2.602-1.953 2.602zm8.397-7.172c-2.351 0-3.625 1.672-3.625 3.898v.688c0 2.289 1.274 3.93 3.625 3.93 2.344 0 3.602-1.641 3.602-3.93v-.695c0-2.227-1.266-3.891-3.602-3.891zm-.008 1.297c1.336 0 2.024 1.055 2.024 2.633v.633c0 1.562-.68 2.64-2.024 2.64-1.336 0-2.03-1.086-2.03-2.64v-.633c0-1.57.694-2.633 2.03-2.633zm9.733 6.062h.055V30h1.508v-5.64c0-1.797-1.336-2.727-3.133-2.727-2.117 0-3.07 1.125-3.149 2.539h1.485c.07-.766.633-1.274 1.617-1.274 1.031 0 1.61.547 1.61 1.547v.805h-2.118c-1.89.008-2.898.93-2.898 2.383 0 1.523 1.093 2.5 2.687 2.5 1.219 0 1.953-.508 2.336-1.149zm-1.875-.093c-.805 0-1.555-.43-1.555-1.336 0-.711.47-1.211 1.524-1.211h1.898v.93c0 .953-.804 1.617-1.867 1.617zM67.016 30h1.593v-4.969c0-1.11.461-1.984 1.883-1.984.266 0 .555.015.703.047V21.68a3.93 3.93 0 0 0-.554-.04c-1.157 0-1.774.672-1.993 1.172h-.054v-1.046h-1.578zm8.123-8.367c-2.039 0-3.242 1.594-3.242 3.875v.734c0 2.328 1.14 3.875 3.242 3.875 1.11 0 1.977-.523 2.414-1.367h.047V30h1.531V18.773h-1.578v4.149h-.055c-.398-.742-1.257-1.29-2.359-1.29zm.344 1.328c1.289 0 2.086 1.016 2.086 2.602v.64c0 1.664-.79 2.586-2.07 2.586-1.165 0-2-.86-2-2.594v-.633c0-1.742.835-2.601 1.984-2.601zM87.628 30V19.336h-1.516a29.87 29.87 0 0 0-2.609 1.617v1.57c.61-.421 2.031-1.312 2.492-1.562h.04V30zm1.766-2.453a1.004 1.004 0 1 0 2.007.008 1.004 1.004 0 0 0-2.007-.008zm0-5.516c0 .555.445 1 1 1 .554 0 1.008-.445 1.008-1 0-.554-.454-1-1.008-1-.555 0-1 .446-1 1zM97.08 30V19.336h-1.515c-.68.36-1.954 1.148-2.61 1.617v1.57c.61-.421 2.031-1.312 2.492-1.562h.04V30z"/></g></g></svg>