<svg width="120" height="40" viewBox="0 0 120 40" fill="none" xmlns="http://www.w3.org/2000/svg">
<g clip-path="url(#clip0)">
<path d="M110.135 0.00013H9.53468C9.16798 0.00013 8.80568 0.00013 8.43995 0.00213C8.1338 0.00413 7.83009 0.00994 7.521 0.01483C6.84951 0.0227318 6.17961 0.0818063 5.5171 0.19154C4.85552 0.303663 4.21467 0.515046 3.61622 0.81854C3.0185 1.1246 2.47235 1.5223 1.99757 1.9972C1.5203 2.47077 1.12246 3.01815 0.81935 3.61829C0.5154 4.21724 0.304641 4.85907 0.19435 5.52161C0.0830109 6.18332 0.0230984 6.85265 0.01515 7.52361C0.00587 7.83021 0.00489 8.13783 0 8.44447V31.5587C0.00489 31.8692 0.00587 32.17 0.01515 32.4806C0.0231008 33.1516 0.0830134 33.8209 0.19435 34.4825C0.304336 35.1455 0.515108 35.7877 0.81935 36.3868C1.12233 36.985 1.52022 37.5302 1.99757 38.0011C2.47054 38.4781 3.01705 38.8761 3.61622 39.1798C4.21467 39.4841 4.85545 39.6968 5.5171 39.8106C6.17972 39.9195 6.84956 39.9786 7.521 39.9874C7.83009 39.9942 8.1338 39.9981 8.43995 39.9981C8.80567 40.0001 9.168 40.0001 9.53468 40.0001H110.135C110.494 40.0001 110.859 40.0001 111.219 39.9981C111.523 39.9981 111.836 39.9942 112.141 39.9874C112.811 39.9791 113.479 39.92 114.141 39.8106C114.804 39.696 115.448 39.4834 116.049 39.1798C116.647 38.8759 117.193 38.478 117.666 38.0011C118.142 37.5284 118.541 36.9836 118.848 36.3868C119.15 35.7872 119.358 35.1451 119.467 34.4825C119.578 33.8208 119.64 33.1516 119.652 32.4806C119.656 32.17 119.656 31.8692 119.656 31.5587C119.664 31.1954 119.664 30.8341 119.664 30.4649V9.53626C119.664 9.17005 119.664 8.80677 119.656 8.44447C119.656 8.13783 119.656 7.83021 119.652 7.52357C119.64 6.85255 119.578 6.18337 119.467 5.52157C119.358 4.85941 119.149 4.21763 118.848 3.61825C118.23 2.41533 117.252 1.43616 116.049 0.81845C115.448 0.515697 114.804 0.30437 114.141 0.19145C113.48 0.0812328 112.811 0.0221378 112.141 0.01469C111.836 0.00981 111.523 0.00395 111.219 0.002C110.859 0 110.494 0 110.135 0V0.00013Z" fill="#60CCC3"/>
<path d="M8.44291 39.125C8.13823 39.125 7.84091 39.1211 7.53862 39.1143C6.91241 39.1061 6.28765 39.0516 5.66948 38.9512C5.09307 38.8519 4.53469 38.6673 4.01274 38.4033C3.49559 38.1415 3.0239 37.7983 2.61574 37.3867C2.20168 36.98 1.85696 36.5082 1.59523 35.9902C1.33062 35.4688 1.1475 34.9099 1.05223 34.333C0.949358 33.7131 0.893698 33.0863 0.885734 32.458C0.879394 32.2471 0.871094 31.5449 0.871094 31.5449V8.44434C0.871094 8.44434 0.879934 7.75293 0.885784 7.5498C0.89341 6.92248 0.948746 6.29665 1.05131 5.67773C1.14675 5.09925 1.33002 4.53875 1.59477 4.01563C1.85554 3.49794 2.19835 3.02586 2.60991 2.61768C3.02102 2.20562 3.49422 1.8606 4.01225 1.59521C4.533 1.33209 5.09033 1.14873 5.66557 1.05127C6.28577 0.949836 6.91269 0.894996 7.54108 0.88721L8.4434 0.875H111.212L112.125 0.8877C112.748 0.895099 113.369 0.94945 113.983 1.05029C114.565 1.14898 115.128 1.33362 115.654 1.59814C116.692 2.13299 117.537 2.97916 118.069 4.01807C118.33 4.53758 118.51 5.09351 118.605 5.66699C118.708 6.29099 118.766 6.92174 118.778 7.5542C118.781 7.8374 118.781 8.1416 118.781 8.44434C118.789 8.81934 118.789 9.17627 118.789 9.53613V30.4648C118.789 30.8281 118.789 31.1826 118.781 31.54C118.781 31.8652 118.781 32.1631 118.777 32.4697C118.766 33.0909 118.709 33.7104 118.606 34.3232C118.513 34.9043 118.331 35.4675 118.066 35.9932C117.803 36.5056 117.46 36.9733 117.051 37.3789C116.642 37.7927 116.17 38.1379 115.651 38.4014C115.126 38.6674 114.564 38.8527 113.983 38.9512C113.365 39.0522 112.741 39.1067 112.114 39.1143C111.821 39.1211 111.515 39.125 111.217 39.125L110.133 39.127L8.44291 39.125Z" fill="white"/>
<path d="M29.3168 14.4793L26.6273 14.4895L26.6097 9.28638L25.7045 9.28982L25.7248 15.2883L29.3195 15.2747L29.3168 14.4793ZM31.8729 15.3441C32.9716 15.3399 33.5759 14.7092 33.7271 13.9527L32.8702 13.956C32.7398 14.3696 32.3979 14.6258 31.8881 14.6277C31.1894 14.6303 30.7568 14.0783 30.7541 13.2565L30.7537 13.1598L33.7815 13.1483L33.78 12.7089C33.7757 11.4169 33.0476 10.5495 31.8216 10.5542C30.5999 10.5588 29.8645 11.4098 29.8688 12.6798L29.8704 13.1676C29.875 14.5167 30.6469 15.3487 31.8729 15.3441ZM30.7515 12.5094L30.7515 12.4963C30.7492 11.8107 31.1692 11.2642 31.8284 11.2617C32.4744 11.2592 32.9025 11.7981 32.9048 12.4881L32.9048 12.5013L30.7515 12.5094ZM35.1705 10.6206L34.5289 10.623L34.5313 11.3437L35.1641 11.3413L35.1729 13.9516C35.1761 14.8745 35.4543 15.2865 36.5705 15.2823C36.7507 15.2816 36.9264 15.2633 37.0011 15.2499L36.9987 14.5599C36.9372 14.5646 36.8669 14.5692 36.7878 14.5695C36.2473 14.5716 36.0579 14.4317 36.0561 13.9043L36.0474 11.3379L36.9571 11.3345L36.9546 10.6138L36.045 10.6172L36.0411 9.47466L35.1666 9.47798L35.1705 10.6206ZM43.5947 10.5885L42.707 10.5919L42.7166 13.4176C42.719 14.1251 42.2764 14.5179 41.6612 14.5202C41.1031 14.5224 40.6233 14.2737 40.6204 13.4387L40.6108 10.5999L39.7232 10.6033L39.7336 13.6882C39.7372 14.7605 40.407 15.3072 41.3606 15.3036C42.1077 15.3008 42.5416 14.9607 42.6986 14.5954L42.7337 14.5953L42.7359 15.2237L43.6104 15.2203L43.5947 10.5885ZM44.7023 11.9247C44.7051 12.7684 45.4048 13.047 46.2579 13.2195C46.8867 13.3402 47.4188 13.4305 47.4205 13.927C47.4217 14.2918 47.1239 14.6005 46.4691 14.603C45.8935 14.6052 45.5498 14.3429 45.4913 13.9476L44.6256 13.9509C44.6284 14.7814 45.3333 15.2929 46.4099 15.2888C47.5481 15.2845 48.289 14.7455 48.2858 13.8139C48.2828 12.9262 47.5876 12.674 46.7214 12.5234C46.1937 12.4288 45.5606 12.3345 45.5589 11.8335C45.5575 11.416 45.9214 11.1817 46.4356 11.1798C47.1036 11.1773 47.3158 11.5588 47.3433 11.8927L48.1519 11.8896C48.1492 11.0898 47.5539 10.4944 46.4597 10.4985C45.5412 10.502 44.6989 10.9315 44.7023 11.9247ZM51.1206 15.1918L52.0083 15.1884L51.9988 12.4023C51.9967 11.7827 52.329 11.2629 53.0629 11.2601C53.6825 11.2577 54.1231 11.6164 54.1257 12.3723L54.1352 15.1803L55.0229 15.177L55.0128 12.2019C55.009 11.0725 54.3126 10.4731 53.3634 10.4767C52.6076 10.4796 52.1871 10.8855 52.0255 11.1893L51.9947 11.1894L51.9869 8.87352L51.0992 8.8769L51.1206 15.1918ZM58.0466 15.2446C59.1452 15.2404 59.7495 14.6097 59.9008 13.8532L59.0438 13.8565C58.9134 14.2701 58.5715 14.5263 58.0617 14.5282C57.363 14.5309 56.9305 13.9788 56.9277 13.157L56.9274 13.0603L59.9552 13.0488L59.9537 12.6094C59.9493 11.3174 59.2213 10.45 57.9952 10.4547C56.7735 10.4593 56.0381 11.3103 56.0424 12.5803L56.0441 13.0681C56.0486 14.4172 56.8205 15.2492 58.0466 15.2446ZM56.9252 12.41L56.9251 12.3968C56.9228 11.7112 57.3428 11.1647 58.002 11.1622C58.648 11.1597 59.0761 11.6986 59.0784 12.3886L59.0785 12.4018L56.9252 12.41ZM61.0785 15.154L61.9618 15.1506L61.9405 8.83569L61.0572 8.83905L61.0785 15.154ZM65.5128 15.2074C66.5894 15.2033 67.3294 14.3875 67.3248 13.0208L67.3233 12.6033C67.3187 11.2235 66.5601 10.4309 65.523 10.4349C64.899 10.4373 64.4254 10.7423 64.1676 11.1827L64.1369 11.1828L64.1346 10.5105L63.2733 10.5137L63.2943 16.7364L64.182 16.733L64.1745 14.5094L64.2053 14.5093C64.4572 14.9258 64.9151 15.2097 65.5128 15.2074ZM65.3433 14.461C64.6138 14.4638 64.1636 13.8854 64.1605 12.9757L64.1594 12.6417C64.1564 11.7584 64.5983 11.1767 65.3146 11.174C66.0089 11.1713 66.4238 11.7103 66.427 12.6375L66.4281 12.9671C66.4314 13.9383 65.9937 14.4585 65.3433 14.461ZM73.8816 10.4734L72.9368 10.477L71.7761 14.208L71.7453 14.2081L70.5682 10.486L69.5838 10.4898L71.2739 15.1635L71.2131 15.3835C71.1004 15.8322 70.8859 16.0879 70.3278 16.09C70.218 16.0904 70.0465 16.0823 69.9762 16.0694L69.9785 16.7593C70.0928 16.7764 70.3082 16.7976 70.5016 16.7969C71.5387 16.7929 71.8968 16.1412 72.1712 15.4062L72.2888 15.085C72.2931 15.0674 73.8816 10.4734 73.8816 10.4734ZM76.3642 10.3849C75.0415 10.3899 74.3284 11.3331 74.3326 12.5855L74.3339 12.9722C74.3383 14.2598 75.0577 15.1799 76.3804 15.1749C77.6988 15.1699 78.4032 14.2444 78.3988 12.9568L78.3975 12.5657C78.3933 11.3132 77.6782 10.3799 76.3642 10.3849ZM76.3623 11.1144C77.1138 11.1115 77.5025 11.7033 77.5055 12.591L77.5067 12.947C77.5097 13.8259 77.1294 14.4338 76.3735 14.4366C75.6221 14.4395 75.2289 13.8301 75.2259 12.9556L75.2247 12.5997C75.2218 11.7164 75.6108 11.1172 76.3623 11.1144ZM83.2946 10.4376L82.4069 10.441L82.4165 13.2667C82.4189 13.9742 81.9764 14.367 81.3611 14.3693C80.803 14.3715 80.3232 14.1228 80.3204 13.2878L80.3108 10.449L79.4231 10.4524L79.4335 13.5373C79.4371 14.6096 80.1069 15.1563 81.0606 15.1527C81.8076 15.1499 82.2415 14.8098 82.3985 14.4445L82.4337 14.4444L82.4358 15.0728L83.3103 15.0695L83.2946 10.4376Z" fill="black"/>
<path d="M27.4297 24.9531C27.4297 22.6797 28.6172 21.5156 30.1797 21.5156C31.75 21.5156 32.9297 22.6797 32.9297 24.9531V26.4688C32.9297 28.75 31.75 29.8203 30.1797 29.8203C28.6172 29.8203 27.4297 28.75 27.4297 26.4688V24.9531ZM25.8047 26.4688C25.8047 29.4844 27.4922 31.2188 30.1641 31.2188C32.8438 31.2188 34.5547 29.4844 34.5547 26.4688V24.9688C34.5547 21.9375 32.8672 20.1172 30.1953 20.1172C27.5234 20.1172 25.8047 21.9375 25.8047 24.9688V26.4688ZM36.1 31H37.6703V26.0469C37.6703 24.9453 38.2719 24.0234 39.5688 24.0234C40.6625 24.0234 41.4516 24.6641 41.4516 26.0078V31H43.0219V25.7109C43.0219 23.7031 41.7953 22.6328 40.1078 22.6328C38.7563 22.6328 37.9984 23.3516 37.7094 23.8906H37.6547V22.7656H36.1V31ZM48.8406 31.125C50.7938 31.125 52.075 29.6719 52.075 27.2656V26.4844C52.075 24 50.7547 22.6406 48.8484 22.6406C47.7938 22.6406 46.8563 23.1797 46.45 23.9141H46.3953V19.7734H44.8172V31H46.3484V29.75H46.4031C46.8641 30.5938 47.6688 31.125 48.8406 31.125ZM48.5203 29.7969C47.1844 29.7969 46.3797 28.8828 46.3797 27.1797V26.5703C46.3797 24.875 47.1922 23.9688 48.5203 23.9688C49.6688 23.9688 50.4734 24.8828 50.4734 26.5703V27.1953C50.4734 28.875 49.6766 29.7969 48.5203 29.7969ZM56.9172 22.625C54.5656 22.625 53.2922 24.2969 53.2922 26.5234V27.2109C53.2922 29.5 54.5656 31.1406 56.9172 31.1406C59.2609 31.1406 60.5187 29.5 60.5187 27.2109V26.5156C60.5187 24.2891 59.2531 22.625 56.9172 22.625ZM56.9094 23.9219C58.2453 23.9219 58.9328 24.9766 58.9328 26.5547V27.1875C58.9328 28.75 58.2531 29.8281 56.9094 29.8281C55.5734 29.8281 54.8781 28.7422 54.8781 27.1875V26.5547C54.8781 24.9844 55.5734 23.9219 56.9094 23.9219ZM66.6422 29.9844H66.6969V31H68.2047V25.3594C68.2047 23.5625 66.8688 22.6328 65.0719 22.6328C62.9547 22.6328 62.0016 23.7578 61.9234 25.1719H63.4078C63.4781 24.4062 64.0406 23.8984 65.025 23.8984C66.0563 23.8984 66.6344 24.4453 66.6344 25.4453V26.25H64.5172C62.6266 26.2578 61.6188 27.1797 61.6188 28.6328C61.6188 30.1562 62.7125 31.1328 64.3063 31.1328C65.525 31.1328 66.2594 30.625 66.6422 29.9844ZM64.7672 29.8906C63.9625 29.8906 63.2125 29.4609 63.2125 28.5547C63.2125 27.8438 63.6813 27.3438 64.7359 27.3438H66.6344V28.2734C66.6344 29.2266 65.8297 29.8906 64.7672 29.8906ZM70.0156 31H71.6094V26.0312C71.6094 24.9219 72.0703 24.0469 73.4922 24.0469C73.7578 24.0469 74.0469 24.0625 74.1953 24.0938V22.6797C74.0312 22.6562 73.8438 22.6406 73.6406 22.6406C72.4844 22.6406 71.8672 23.3125 71.6484 23.8125H71.5938V22.7656H70.0156V31ZM78.1391 22.6328C76.1 22.6328 74.8969 24.2266 74.8969 26.5078V27.2422C74.8969 29.5703 76.0375 31.1172 78.1391 31.1172C79.2484 31.1172 80.1156 30.5938 80.5531 29.75H80.6V31H82.1312V19.7734H80.5531V23.9219H80.4984C80.1 23.1797 79.2406 22.6328 78.1391 22.6328ZM78.4828 23.9609C79.7719 23.9609 80.5687 24.9766 80.5687 26.5625V27.2031C80.5687 28.8672 79.7797 29.7891 78.4984 29.7891C77.3344 29.7891 76.4984 28.9297 76.4984 27.1953V26.5625C76.4984 24.8203 77.3344 23.9609 78.4828 23.9609Z" fill="black"/>
</g>
<defs>
<clipPath id="clip0">
<rect width="119.664" height="40" fill="white"/>
</clipPath>
</defs>
</svg>
