<svg fill="none" height="40" width="120" xmlns="http://www.w3.org/2000/svg"><clipPath id="a"><path d="M0 0h119.664v40H0z"/></clipPath><g clip-path="url(#a)"><path d="M110.135 0H9.535c-.367 0-.73 0-1.095.002-.306.002-.61.008-.919.013C6.85.023 6.18.082 5.517.192a6.665 6.665 0 0 0-1.9.627A6.438 6.438 0 0 0 .193 5.522a12.993 12.993 0 0 0-.179 2.002c-.01.306-.01.614-.015.92V31.56c.005.31.006.611.015.922.008.67.068 1.34.18 2.001.11.663.32 1.306.624 1.905.303.598.701 1.143 1.179 1.614.473.477 1.02.875 1.618 1.179a6.7 6.7 0 0 0 1.901.63c.663.11 1.333.169 2.004.177.31.007.613.011.919.011.366.002.728.002 1.095.002h100.6c.359 0 .724 0 1.084-.002.304 0 .617-.004.922-.01a13.27 13.27 0 0 0 2-.177 6.805 6.805 0 0 0 1.908-.631A6.293 6.293 0 0 0 117.666 38a6.403 6.403 0 0 0 1.182-1.614c.302-.6.51-1.242.619-1.905.111-.661.173-1.33.185-2.001.004-.311.004-.612.004-.922.008-.364.008-.725.008-1.094V9.536c0-.366 0-.73-.008-1.092 0-.306 0-.614-.004-.92a13.57 13.57 0 0 0-.185-2.002 6.648 6.648 0 0 0-.619-1.904 6.469 6.469 0 0 0-2.799-2.8 6.77 6.77 0 0 0-1.908-.627c-.661-.11-1.33-.169-2-.176-.305-.005-.618-.011-.922-.013-.36-.002-.725-.002-1.084-.002z" fill="#ffd131"/><path d="M8.443 39.125c-.305 0-.602-.004-.904-.01a12.696 12.696 0 0 1-1.87-.164 5.884 5.884 0 0 1-1.656-.548 5.406 5.406 0 0 1-1.397-1.016 5.321 5.321 0 0 1-1.02-1.397 5.722 5.722 0 0 1-.544-1.657 12.414 12.414 0 0 1-.166-1.875c-.007-.21-.015-.913-.015-.913v-23.1s.009-.692.015-.895a12.37 12.37 0 0 1 .165-1.872 5.756 5.756 0 0 1 .544-1.662c.26-.518.603-.99 1.015-1.398A5.566 5.566 0 0 1 5.666 1.05C6.286.95 6.913.895 7.54.887l.902-.012h102.769l.913.013a12.37 12.37 0 0 1 1.858.162 5.922 5.922 0 0 1 1.671.548 5.589 5.589 0 0 1 2.415 2.42c.261.52.441 1.076.536 1.649.103.624.161 1.255.173 1.887.003.283.003.588.003.89.008.375.008.732.008 1.092v20.929c0 .363 0 .718-.008 1.075 0 .325 0 .623-.004.93-.011.62-.068 1.24-.171 1.853a5.716 5.716 0 0 1-.54 1.67 5.47 5.47 0 0 1-1.015 1.386 5.414 5.414 0 0 1-1.4 1.022 5.855 5.855 0 0 1-1.668.55c-.618.101-1.242.156-1.869.163-.293.007-.599.011-.897.011l-1.084.002z" fill="#fff"/><g fill="#000"><path d="M30.39 15.269l-.02-5.999-.905.004.008 2.514-2.856.011-.008-2.513-.905.004.018 5.998.905-.004-.008-2.702 2.856-.012.009 2.702zm3.17-4.724c-1.322.005-2.036.948-2.032 2.2l.001.388c.004 1.287.724 2.207 2.046 2.202 1.319-.006 2.023-.932 2.02-2.22l-.002-.39c-.004-1.253-.719-2.186-2.033-2.18zm-.002.729c.752-.003 1.14.589 1.143 1.476l.001.356c.003.88-.377 1.487-1.133 1.49-.752.003-1.145-.606-1.148-1.48v-.356c-.003-.884.386-1.483 1.137-1.486zm8.932-.687l-.892.003-.788 3.585h-.036l-1.004-3.577-.844.003-.977 3.586h-.04l-.81-3.578-.897.004 1.218 4.627.928-.004.99-3.485h.023l1.012 3.476.928-.004zm2.91-.013l-.642.003.002.72.633-.002.008 2.61c.003.923.281 1.335 1.397 1.33.18 0 .356-.018.43-.032l-.001-.69c-.062.005-.132.01-.211.01-.54.002-.73-.138-.732-.665l-.008-2.566.91-.004-.002-.721-.91.004-.003-1.143-.875.004zm4.675-.098c-1.323.005-2.036.949-2.032 2.201l.001.387c.004 1.288.723 2.207 2.046 2.202 1.318-.006 2.023-.931 2.019-2.219l-.001-.391c-.004-1.252-.719-2.186-2.033-2.18zm-.002.73c.751-.004 1.14.588 1.143 1.476v.356c.003.879-.377 1.487-1.133 1.49-.751.003-1.144-.606-1.147-1.481l-.001-.356c-.003-.883.386-1.483 1.138-1.486zm4.738 1.839c.004 1.274.728 2.198 1.976 2.193 1.072-.004 1.708-.56 1.837-1.436l-.848.004c-.074.365-.38.674-.934.676-.695.003-1.136-.558-1.138-1.437l-.002-.413c-.002-.887.413-1.43 1.125-1.433a.936.936 0 0 1 .912.735l.853-.004c-.042-.769-.712-1.487-1.82-1.482-1.235.005-1.966.905-1.962 2.166zm6.655-2.616c-1.323.005-2.037.948-2.033 2.2l.001.388c.004 1.287.724 2.207 2.046 2.202 1.319-.006 2.023-.932 2.02-2.22l-.002-.39c-.004-1.253-.719-2.186-2.032-2.18zm-.003.729c.752-.003 1.14.589 1.143 1.476l.001.356c.003.88-.377 1.487-1.133 1.49-.752.003-1.145-.606-1.147-1.48l-.002-.356c-.002-.884.387-1.483 1.138-1.486zm3.142 3.969l.883-.004-.009-2.786c-.002-.62.335-1.14 1.065-1.143.615-.002 1.06.356 1.062 1.112l.009 2.808.883-.004-.009-2.975c-.004-1.13-.695-1.728-1.645-1.724-.76.003-1.185.409-1.346.713h-.031l-.002-.633-.875.004zm6.06-.026l.975-.004 1.63-4.638-.901.003-1.202 3.648h-.03L70 10.473l-.94.004zm5.062.058c1.099-.004 1.703-.635 1.855-1.392l-.857.004c-.13.414-.472.67-.982.672-.699.003-1.131-.55-1.134-1.37v-.097l3.028-.013-.002-.44c-.004-1.291-.732-2.159-1.958-2.153-1.221.005-1.957.856-1.953 2.126l.002.488c.004 1.349.775 2.18 2.001 2.175zm-1.12-2.834v-.013c-.002-.686.418-1.232 1.077-1.235.646-.003 1.074.536 1.076 1.226v.013zm4.121 2.743l.897-.004-.009-2.795c-.002-.624.256-1.117 1.056-1.12.15-.001.312.007.396.024l-.003-.795a2.227 2.227 0 0 0-.312-.02c-.65.002-.996.381-1.119.663h-.03l-.002-.589-.888.004zm3.735-4.648l-.642.003.002.72.633-.002.008 2.61c.003.923.281 1.335 1.397 1.33.18 0 .356-.018.431-.032l-.002-.69c-.062.005-.132.01-.211.01-.54.002-.73-.138-.732-.665l-.008-2.567.91-.003-.002-.721-.91.004-.003-1.143-.875.004zm-56.229 9.883v10.664h3.57c3.485 0 4.72-2.274 4.72-5.344 0-3.117-1.282-5.32-4.72-5.32zm1.61 1.383h1.82c2.352 0 3.195 1.57 3.195 3.96 0 2.649-1.039 3.938-3.195 3.938h-1.82zm12.654 8.265h.055v1.016h1.508v-5.64c0-1.798-1.336-2.727-3.133-2.727-2.117 0-3.07 1.125-3.148 2.539h1.484c.07-.766.633-1.274 1.617-1.274 1.031 0 1.61.547 1.61 1.547v.805h-2.118c-1.89.008-2.898.93-2.898 2.383 0 1.523 1.094 2.5 2.687 2.5 1.22 0 1.954-.508 2.336-1.149zm-1.875-.094c-.804 0-1.554-.43-1.554-1.336 0-.71.469-1.21 1.523-1.21h1.899v.93c0 .952-.805 1.616-1.868 1.616zm5.327 1.11h1.578v-8.235H43.95zm-.172-10.242c0 .53.43.93.961.93.531 0 .961-.4.961-.93 0-.532-.43-.93-.96-.93-.532 0-.962.398-.962.93zm7.052 2.007h-1.14v1.282h1.124v4.64c0 1.64.492 2.375 2.477 2.375.32 0 .632-.031.765-.054v-1.227c-.11.008-.234.016-.375.016-.96 0-1.297-.25-1.297-1.188v-4.562h1.618v-1.282h-1.618v-2.03H50.83zm7.912-.14c-2.351 0-3.625 1.672-3.625 3.898v.688c0 2.289 1.274 3.93 3.625 3.93 2.344 0 3.602-1.641 3.602-3.93v-.696c0-2.226-1.266-3.89-3.602-3.89zm-.008 1.297c1.336 0 2.024 1.054 2.024 2.633v.632c0 1.563-.68 2.64-2.024 2.64-1.336 0-2.03-1.085-2.03-2.64v-.633c0-1.57.694-2.632 2.03-2.632zm12.7 7.078h1.828l-2.78-4.125 2.75-4.11H71.45l-1.89 3.016h-.016l-1.89-3.016h-1.868l2.719 4.11-2.758 4.125h1.75l1.945-3.008h.024zM74.3 20.303v10.664h3.57c3.485 0 4.72-2.274 4.72-5.344 0-3.117-1.282-5.32-4.72-5.32zm1.61 1.383h1.82c2.351 0 3.195 1.57 3.195 3.96 0 2.649-1.04 3.938-3.195 3.938h-1.82zm12.654 8.265h.055v1.016h1.508v-5.64c0-1.798-1.336-2.727-3.133-2.727-2.117 0-3.07 1.125-3.149 2.539h1.485c.07-.766.632-1.274 1.617-1.274 1.031 0 1.61.547 1.61 1.547v.805h-2.118c-1.89.008-2.898.93-2.898 2.383 0 1.523 1.093 2.5 2.687 2.5 1.219 0 1.953-.508 2.336-1.149zm-1.875-.094c-.805 0-1.555-.43-1.555-1.336 0-.71.47-1.21 1.524-1.21h1.898v.93c0 .952-.804 1.616-1.867 1.616zm5.327 1.11h1.578v-8.235h-1.578zm-.172-10.242c0 .53.43.93.96.93.532 0 .962-.4.962-.93 0-.532-.43-.93-.961-.93-.532 0-.961.398-.961.93z"/></g></g></svg>