<svg fill="none" height="40" viewBox="0 0 120 40" width="120" xmlns="http://www.w3.org/2000/svg" xmlns:xlink="http://www.w3.org/1999/xlink"><clipPath id="a"><path d="m0 0h119.664v40h-119.664z"/></clipPath><g clip-path="url(#a)"><path d="m110.135.00013h-100.60032c-.3667 0-.729 0-1.09473.002-.30615.002-.60986.00781-.91895.0127-.67149.0079018-1.34139.0669763-2.0039.17671-.66158.112123-1.30243.323506-1.90088.627-.59772.30606-1.14387.70376-1.61865 1.17866-.47727.47357-.87511 1.02095-1.17822 1.62109-.30395.59895-.514709 1.24078-.625 1.90332-.1113391.66171-.1712516 1.33104-.1792 2.002-.00928.3066-.01026.61422-.01515.92086v23.11423c.00489.3105.00587.6113.01515.9219.0079508.671.0678634 1.3403.1792 2.0019.109986.663.320758 1.3052.625 1.9043.30298.5982.70087 1.1434 1.17822 1.6143.47297.477 1.01948.875 1.61865 1.1787.59845.3043 1.23923.517 1.90088.6308.66262.1089 1.33246.168 2.0039.1768.30909.0068.6128.0107.91895.0107.36572.002.72805.002 1.09473.002h100.60032c.359 0 .724 0 1.084-.002.304 0 .617-.0039.922-.0107.67-.0083 1.338-.0674 2-.1768.663-.1146 1.307-.3272 1.908-.6308.598-.3039 1.144-.7018 1.617-1.1787.476-.4727.875-1.0175 1.182-1.6143.302-.5996.51-1.2417.619-1.9043.111-.6617.173-1.3309.185-2.0019.004-.3106.004-.6114.004-.9219.008-.3633.008-.7246.008-1.0938v-20.92864c0-.36621 0-.72949-.008-1.09179 0-.30664 0-.61426-.004-.9209-.012-.67102-.074-1.3402-.185-2.002-.109-.66216-.318-1.30394-.619-1.90332-.618-1.20292-1.596-2.18209-2.799-2.7998-.601-.302753-1.245-.51408-1.908-.627-.661-.1102172-1.33-.1693122-2-.17676-.305-.00488-.618-.01074-.922-.01269-.36-.002-.725-.002-1.084-.002z" fill="#ffd131"/><path d="m8.44291 39.125c-.30468 0-.602-.0039-.90429-.0107-.62621-.0082-1.25097-.0627-1.86914-.1631-.57641-.0993-1.13479-.2839-1.65674-.5479-.51715-.2618-.98884-.605-1.397-1.0166-.41406-.4067-.75878-.8785-1.02051-1.3965-.26461-.5214-.44773-1.0803-.543-1.6572-.102872-.6199-.158532-1.2467-.166496-1.875-.00634-.2109-.01464-.9131-.01464-.9131v-23.10056s.00884-.69141.01469-.89454c.007626-.62732.062962-1.25315.165526-1.87207.09544-.57848.27871-1.13898.54346-1.6621.26077-.51769.60358-.98977 1.01514-1.39795.41111-.41206.88431-.75708 1.40234-1.02247.52075-.26312 1.07808-.44648 1.65332-.54394.6202-.101434 1.24712-.156274 1.87551-.16406l.90232-.01221h102.7686l.913.0127c.623.007399 1.244.06175 1.858.16259.582.09869 1.145.28333 1.671.54785 1.038.53485 1.883 1.38102 2.415 2.41993.261.51951.441 1.07544.536 1.64892.103.624.161 1.25475.173 1.88721.003.2832.003.5874.003.89014.008.375.008.73193.008 1.09179v20.92867c0 .3633 0 .7178-.008 1.0752 0 .3252 0 .6231-.004.9297-.011.6212-.068 1.2407-.171 1.8535-.093.5811-.275 1.1443-.54 1.67-.263.5124-.606.9801-1.015 1.3857-.409.4138-.881.759-1.4 1.0225-.525.266-1.087.4513-1.668.5498-.618.101-1.242.1555-1.869.1631-.293.0068-.599.0107-.897.0107l-1.084.002z" fill="#fff"/><g fill="#000"><path d="m30.3891 15.2687-.0185-5.99852-.9053.00376.0078 2.51366-2.8565.0119-.0077-2.51368-.9053.00376.0186 5.99852.9052-.0038-.0083-2.7026 2.8564-.0119.0083 2.7026zm3.1714-4.7242c-1.3227.0055-2.0361.9489-2.0322 2.2014l.0012.3867c.004 1.2876.7231 2.2074 2.0459 2.2019 1.3183-.0054 2.023-.9312 2.019-2.2188l-.0012-.3911c-.0039-1.2525-.7187-2.1855-2.0327-2.1801zm-.0021.7295c.7515-.0031 1.14.5886 1.1428 1.4763l.0011.3559c.0027.8789-.3778 1.4869-1.1336 1.4901-.7515.0031-1.1445-.6061-1.1472-1.4806l-.0011-.356c-.0027-.8833.3866-1.4825 1.138-1.4857zm8.932-.6875-.8921.0037-.7887 3.5849-.0352.0001-1.0042-3.5774-.8437.0035-.9777 3.5857-.0396.0001-.8108-3.5782-.8965.0037 1.2184 4.6269.9272-.0039.9912-3.4846.022-.0001 1.0127 3.4763.9272-.0039zm2.9092-.0121-.6416.0027.0022.7207.6328-.0026.0081 2.6103c.0028.9228.2809 1.3348 1.3972 1.3301.1801-.0007.3559-.019.4305-.0325l-.0021-.69c-.0615.0047-.1318.0094-.2109.0097-.5405.0023-.7299-.1376-.7316-.6649l-.0079-2.5664.9097-.0038-.0023-.7207-.9096.0038-.0036-1.14259-.8745.00363zm4.6755-.0985c-1.3228.0055-2.0362.9489-2.0323 2.2013l.0012.3867c.004 1.2876.7231 2.2075 2.0459 2.202 1.3183-.0055 2.023-.9313 2.019-2.2189l-.0012-.3911c-.0039-1.2524-.7187-2.1855-2.0326-2.18zm-.0022.7295c.7515-.0031 1.14.5885 1.1428 1.4762l.0011.356c.0027.8789-.3778 1.4869-1.1336 1.49-.7515.0032-1.1445-.6061-1.1472-1.4806l-.0011-.3559c-.0027-.8833.3866-1.4826 1.138-1.4857zm4.7386 1.8392c.004 1.2744.7275 2.1986 1.9756 2.1935 1.0722-.0045 1.7077-.5609 1.8368-1.4359l-.8481.0035c-.0736.3651-.3802.674-.9339.6763-.6944.0028-1.1356-.5578-1.1383-1.4367l-.0013-.4131c-.0027-.8877.4131-1.43 1.125-1.4329.4746-.002.8229.3437.912.7345l.8525-.0036c-.0419-.7688-.7121-1.4868-1.8195-1.4822-1.2349.0052-1.966.9047-1.9621 2.1659zm6.6541-2.6161c-1.3228.0055-2.0362.9489-2.0323 2.2014l.0012.3867c.004 1.2876.7231 2.2074 2.0459 2.2019 1.3183-.0054 2.023-.9312 2.019-2.2188l-.0012-.3911c-.0039-1.2525-.7187-2.1855-2.0326-2.1801zm-.0022.7295c.7515-.0031 1.14.5886 1.1428 1.4763l.0011.3559c.0027.8789-.3777 1.4869-1.1336 1.4901-.7514.0031-1.1444-.6061-1.1471-1.4806l-.0011-.356c-.0028-.8833.3865-1.4825 1.1379-1.4857zm3.1412 3.9685.8833-.0037-.0086-2.7861c-.0019-.6197.3349-1.1396 1.0644-1.1427.6152-.0025 1.0601.356 1.0625 1.1119l.0087 2.808.8832-.0036-.0091-2.9751c-.0035-1.1294-.6953-1.7286-1.6445-1.7246-.7603.0031-1.1853.4092-1.347.7131l-.0307.0001-.002-.6328-.8745.0036zm6.06-.0252.9756-.0041 1.6292-4.6386-.9008.0037-1.2017 3.6481-.0307.0001-1.1363-3.6383-.9404.0039zm5.0627.058c1.0987-.0045 1.7032-.6355 1.8546-1.392l-.8569.0036c-.1306.4136-.4725.6699-.9823.672-.6987.0029-1.1311-.549-1.1336-1.3707l-.0003-.0967 3.0278-.0126-.0014-.4395c-.004-1.2919-.7318-2.159-1.9578-2.1539-1.2217.005-1.9574.8562-1.9534 2.1263l.0015.4877c.0042 1.3492.7758 2.1809 2.0018 2.1758zm-1.1205-2.8342-.0001-.0132c-.0021-.6855.4181-1.2322 1.0773-1.2349.6459-.0027 1.0739.536 1.076 1.226l.0001.0131zm4.1217 2.7426.8965-.0037-.0086-2.7949c-.002-.624.2558-1.1173 1.0556-1.1206.1494-.0006.312.0075.3956.0247l-.0025-.7954c-.0923-.0128-.1978-.0211-.3121-.0207-.6503.0027-.9963.3821-1.1185.6639l-.0308.0001-.0018-.5889-.8877.0037zm3.7342-4.6474-.6416.0027.0022.7207.6329-.0026.008 2.6103c.0029.9229.281 1.3348 1.3972 1.3302.1802-.0008.3559-.0191.4306-.0326l-.0022-.6899c-.0615.0046-.1318.0093-.2109.0096-.5405.0023-.7299-.1376-.7315-.6649l-.008-2.5664.9097-.0038-.0022-.7207-.9097.0038-.0035-1.14256-.8745.00364z"/><path d="m26.2344 20.3027v10.6641h3.5703c3.4844 0 4.7187-2.2734 4.7187-5.3438 0-3.1171-1.2812-5.3203-4.7187-5.3203zm1.6094 1.3828h1.8203c2.3515 0 3.1953 1.5704 3.1953 3.961 0 2.6484-1.0391 3.9375-3.1953 3.9375h-1.8203zm12.6546 8.2657h.0547v1.0156h1.5078v-5.6406c0-1.7969-1.3359-2.7266-3.1328-2.7266-2.1172 0-3.0703 1.125-3.1484 2.5391h1.4844c.0703-.7657.6328-1.2735 1.6172-1.2735 1.0312 0 1.6093.5469 1.6093 1.5469v.8047h-2.1172c-1.8906.0078-2.8984.9297-2.8984 2.3828 0 1.5234 1.0938 2.5 2.6875 2.5 1.2188 0 1.9531-.5078 2.3359-1.1484zm-1.875-.0938c-.8046 0-1.5546-.4297-1.5546-1.3359 0-.711.4687-1.211 1.5234-1.211h1.8984v.9297c0 .9532-.8047 1.6172-1.8672 1.6172zm5.3266 1.1094h1.5781v-8.2344h-1.5781zm-.1719-10.2422c0 .5313.4297.9297.961.9297.5312 0 .9609-.3984.9609-.9297 0-.5312-.4297-.9297-.9609-.9297-.5313 0-.961.3985-.961.9297zm7.0516 2.0078h-1.1406v1.2813h1.125v4.6406c0 1.6406.4921 2.375 2.4765 2.375.3203 0 .6328-.0313.7656-.0547v-1.2266c-.1093.0079-.2343.0157-.375.0157-.9609 0-1.2968-.25-1.2968-1.1875v-4.5625h1.6172v-1.2813h-1.6172v-2.0312h-1.5547zm7.9125-.1406c-2.3516 0-3.625 1.6719-3.625 3.8984v.6875c0 2.2891 1.2734 3.9297 3.625 3.9297 2.3437 0 3.6016-1.6406 3.6016-3.9297v-.6953c0-2.2265-1.2657-3.8906-3.6016-3.8906zm-.0078 1.2969c1.3359 0 2.0234 1.0547 2.0234 2.6328v.6328c0 1.5625-.6797 2.6406-2.0234 2.6406-1.336 0-2.0313-1.0859-2.0313-2.6406v-.6328c0-1.5703.6953-2.6328 2.0313-2.6328zm12.7 7.0781h1.8281l-2.7812-4.125 2.75-4.1094h-1.7813l-1.8906 3.0156h-.0156l-1.8907-3.0156h-1.8672l2.7188 4.1094-2.7578 4.125h1.75l1.9453-3.0078h.0234zm2.8656-10.6641v10.6641h3.5703c3.4844 0 4.7188-2.2734 4.7188-5.3438 0-3.1171-1.2813-5.3203-4.7188-5.3203zm1.6094 1.3828h1.8203c2.3515 0 3.1953 1.5704 3.1953 3.961 0 2.6484-1.0391 3.9375-3.1953 3.9375h-1.8203zm12.6547 8.2657h.0547v1.0156h1.5078v-5.6406c0-1.7969-1.336-2.7266-3.1328-2.7266-2.1172 0-3.0704 1.125-3.1485 2.5391h1.4844c.0703-.7657.6328-1.2735 1.6172-1.2735 1.0312 0 1.6094.5469 1.6094 1.5469v.8047h-2.1172c-1.8907.0078-2.8985.9297-2.8985 2.3828 0 1.5234 1.0938 2.5 2.6875 2.5 1.2188 0 1.9532-.5078 2.336-1.1484zm-1.875-.0938c-.8047 0-1.5547-.4297-1.5547-1.3359 0-.711.4687-1.211 1.5234-1.211h1.8985v.9297c0 .9532-.8047 1.6172-1.8672 1.6172zm5.3265 1.1094h1.5782v-8.2344h-1.5782zm-.1718-10.2422c0 .5313.4296.9297.9609.9297.5312 0 .9609-.3984.9609-.9297 0-.5312-.4297-.9297-.9609-.9297-.5313 0-.9609.3985-.9609.9297z"/></g></g></svg>