<svg width="120" height="40" viewBox="0 0 120 40" fill="none" xmlns="http://www.w3.org/2000/svg">
<g clip-path="url(#clip0)">
<path d="M110.135 0.00013H9.53468C9.16798 0.00013 8.80568 0.00013 8.43995 0.00213C8.1338 0.00413 7.83009 0.00994 7.521 0.01483C6.84951 0.0227318 6.17961 0.0818063 5.5171 0.19154C4.85552 0.303663 4.21467 0.515046 3.61622 0.81854C3.0185 1.1246 2.47235 1.5223 1.99757 1.9972C1.5203 2.47077 1.12246 3.01815 0.81935 3.61829C0.5154 4.21724 0.304641 4.85907 0.19435 5.52161C0.0830109 6.18332 0.0230984 6.85265 0.01515 7.52361C0.00587 7.83021 0.00489 8.13783 0 8.44447V31.5587C0.00489 31.8692 0.00587 32.17 0.01515 32.4806C0.0231008 33.1516 0.0830134 33.8209 0.19435 34.4825C0.304336 35.1455 0.515108 35.7877 0.81935 36.3868C1.12233 36.985 1.52022 37.5302 1.99757 38.0011C2.47054 38.4781 3.01705 38.8761 3.61622 39.1798C4.21467 39.4841 4.85545 39.6968 5.5171 39.8106C6.17972 39.9195 6.84956 39.9786 7.521 39.9874C7.83009 39.9942 8.1338 39.9981 8.43995 39.9981C8.80567 40.0001 9.168 40.0001 9.53468 40.0001H110.135C110.494 40.0001 110.859 40.0001 111.219 39.9981C111.523 39.9981 111.836 39.9942 112.141 39.9874C112.811 39.9791 113.479 39.92 114.141 39.8106C114.804 39.696 115.448 39.4834 116.049 39.1798C116.647 38.8759 117.193 38.478 117.666 38.0011C118.142 37.5284 118.541 36.9836 118.848 36.3868C119.15 35.7872 119.358 35.1451 119.467 34.4825C119.578 33.8208 119.64 33.1516 119.652 32.4806C119.656 32.17 119.656 31.8692 119.656 31.5587C119.664 31.1954 119.664 30.8341 119.664 30.4649V9.53626C119.664 9.17005 119.664 8.80677 119.656 8.44447C119.656 8.13783 119.656 7.83021 119.652 7.52357C119.64 6.85255 119.578 6.18337 119.467 5.52157C119.358 4.85941 119.149 4.21763 118.848 3.61825C118.23 2.41533 117.252 1.43616 116.049 0.81845C115.448 0.515697 114.804 0.30437 114.141 0.19145C113.48 0.0812328 112.811 0.0221378 112.141 0.01469C111.836 0.00981 111.523 0.00395 111.219 0.002C110.859 0 110.494 0 110.135 0V0.00013Z" fill="#EFA792"/>
<path d="M8.44291 39.125C8.13823 39.125 7.84091 39.1211 7.53862 39.1143C6.91241 39.1061 6.28765 39.0516 5.66948 38.9512C5.09307 38.8519 4.53469 38.6673 4.01274 38.4033C3.49559 38.1415 3.0239 37.7983 2.61574 37.3867C2.20168 36.98 1.85696 36.5082 1.59523 35.9902C1.33062 35.4688 1.1475 34.9099 1.05223 34.333C0.949358 33.7131 0.893698 33.0863 0.885734 32.458C0.879394 32.2471 0.871094 31.5449 0.871094 31.5449V8.44434C0.871094 8.44434 0.879934 7.75293 0.885784 7.5498C0.89341 6.92248 0.948746 6.29665 1.05131 5.67773C1.14675 5.09925 1.33002 4.53875 1.59477 4.01563C1.85554 3.49794 2.19835 3.02586 2.60991 2.61768C3.02102 2.20562 3.49422 1.8606 4.01225 1.59521C4.533 1.33209 5.09033 1.14873 5.66557 1.05127C6.28577 0.949836 6.91269 0.894996 7.54108 0.88721L8.4434 0.875H111.212L112.125 0.8877C112.748 0.895099 113.369 0.94945 113.983 1.05029C114.565 1.14898 115.128 1.33362 115.654 1.59814C116.692 2.13299 117.537 2.97916 118.069 4.01807C118.33 4.53758 118.51 5.09351 118.605 5.66699C118.708 6.29099 118.766 6.92174 118.778 7.5542C118.781 7.8374 118.781 8.1416 118.781 8.44434C118.789 8.81934 118.789 9.17627 118.789 9.53613V30.4648C118.789 30.8281 118.789 31.1826 118.781 31.54C118.781 31.8652 118.781 32.1631 118.777 32.4697C118.766 33.0909 118.709 33.7104 118.606 34.3232C118.513 34.9043 118.331 35.4675 118.066 35.9932C117.803 36.5056 117.46 36.9733 117.051 37.3789C116.642 37.7927 116.17 38.1379 115.651 38.4014C115.126 38.6674 114.564 38.8527 113.983 38.9512C113.365 39.0522 112.741 39.1067 112.114 39.1143C111.821 39.1211 111.515 39.125 111.217 39.125L110.133 39.127L8.44291 39.125Z" fill="white"/>
<path d="M26.3184 14.4802L23.629 14.4898L23.6104 9.28673L22.7051 9.28997L22.7266 15.2885L26.3213 15.2756L26.3184 14.4802ZM28.8748 15.3455C29.9734 15.3416 30.5776 14.711 30.7287 13.9546L29.8718 13.9577C29.7414 14.3712 29.3996 14.6273 28.8898 14.6292C28.1911 14.6317 27.7584 14.0795 27.7555 13.2577L27.7551 13.1611L30.7829 13.1502L30.7814 12.7107C30.7767 11.4188 30.0485 10.5513 28.8225 10.5556C27.6008 10.56 26.8656 11.4108 26.8701 12.6808L26.8719 13.1686C26.8767 14.5177 27.6487 15.3499 28.8748 15.3455ZM27.7528 12.5107L27.7528 12.4975C27.7503 11.8119 28.1702 11.2655 28.8294 11.2631C29.4754 11.2608 29.9036 11.7998 29.9061 12.4898L29.9061 12.5029L27.7528 12.5107ZM34.4447 14.6752L34.4754 14.6751L34.4775 15.2463L35.3256 15.2433L35.3143 12.0705C35.3106 11.0597 34.5573 10.5395 33.5466 10.5431C32.3557 10.5474 31.8218 11.1821 31.7807 11.9777L32.6157 11.9747C32.6537 11.5439 32.969 11.2571 33.5228 11.2551C34.1028 11.253 34.4291 11.5595 34.4311 12.122L34.4328 12.5746L33.2419 12.5789C32.1784 12.5871 31.6134 13.1077 31.6163 13.925C31.6194 14.782 32.2366 15.3291 33.133 15.3259C33.8186 15.3234 34.2306 15.0363 34.4447 14.6752ZM33.3898 14.6262C32.9372 14.6278 32.5144 14.3877 32.5126 13.8779C32.5112 13.478 32.7738 13.1958 33.3671 13.1937L34.435 13.1898L34.4368 13.7128C34.4388 14.2489 33.9875 14.6241 33.3898 14.6262ZM36.5693 15.2388L37.4658 15.2356L37.4557 12.4407C37.4535 11.8167 37.711 11.3236 38.5108 11.3207C38.6602 11.3202 38.8229 11.3284 38.9064 11.3457L38.9036 10.5503C38.8112 10.5374 38.7057 10.529 38.5915 10.5294C37.9411 10.5317 37.5953 10.9109 37.4732 11.1926L37.4425 11.1927L37.4404 10.6039L36.5527 10.607L36.5693 15.2388ZM39.8739 15.227L40.7572 15.2238L40.7473 12.4377C40.745 11.8181 41.0815 11.2983 41.811 11.2957C42.4263 11.2935 42.8714 11.6523 42.8741 12.4081L42.8842 15.2162L43.7675 15.213L43.7568 12.238C43.7528 11.1086 43.0607 10.509 42.1115 10.5124C41.3512 10.5151 40.9264 10.921 40.7649 11.2248L40.7341 11.2249L40.7318 10.5921L39.8573 10.5952L39.8739 15.227ZM46.7821 15.2022L47.6654 15.1991L47.655 12.3031C47.6526 11.6219 48.0732 11.2645 48.6005 11.2626C49.1806 11.2605 49.5466 11.6108 49.5491 12.3051L49.5594 15.1923L50.4295 15.1892L50.4192 12.302C50.417 11.678 50.7626 11.2548 51.3734 11.2526C51.9799 11.2505 52.3109 11.6448 52.313 12.2337L52.3236 15.1824L53.2069 15.1792L53.1956 12.024C53.1922 11.0791 52.6231 10.4747 51.6475 10.4782C50.8873 10.4809 50.4008 10.8474 50.2352 11.2435L50.1957 11.2437C50.0226 10.7829 49.5909 10.4856 48.8702 10.4882C48.233 10.4905 47.83 10.8435 47.6861 11.1648L47.6421 11.1649L47.64 10.5673L46.7655 10.5704L46.7821 15.2022ZM56.3057 10.4571C54.9829 10.4619 54.27 11.4049 54.2745 12.6573L54.2759 13.044C54.2805 14.3316 55.0001 15.2519 56.3229 15.2471C57.6412 15.2424 58.3454 14.317 58.3408 13.0294L58.3394 12.6383C58.3349 11.3859 57.6196 10.4524 56.3057 10.4571ZM56.3039 11.1866C57.0554 11.1839 57.4442 11.7758 57.4474 12.6635L57.4487 13.0195C57.4518 13.8984 57.0717 14.5062 56.3158 14.5089C55.5644 14.5116 55.1711 13.9021 55.1679 13.0276L55.1666 12.6717C55.1635 11.7884 55.5524 11.1893 56.3039 11.1866ZM59.4471 15.1568L60.3435 15.1536L60.3335 12.3587C60.3313 11.7347 60.5888 11.2416 61.3886 11.2387C61.538 11.2382 61.7006 11.2464 61.7842 11.2637L61.7813 10.4683C61.689 10.4554 61.5835 10.447 61.4693 10.4474C60.8189 10.4497 60.4731 10.8289 60.351 11.1106L60.3203 11.1107L60.3181 10.5218L59.4305 10.525L59.4471 15.1568ZM64.4087 15.2182C65.5074 15.2142 66.1116 14.5836 66.2627 13.8272L65.4057 13.8303C65.2754 14.2438 64.9335 14.5 64.4237 14.5018C63.725 14.5043 63.2924 13.9521 63.2894 13.1304L63.2891 13.0337L66.3169 13.0228L66.3153 12.5834C66.3107 11.2914 65.5825 10.4239 64.3564 10.4283C63.1347 10.4326 62.3995 11.2834 62.4041 12.5534L62.4058 13.0412C62.4106 14.3903 63.1827 15.2225 64.4087 15.2182ZM63.2868 12.3833L63.2867 12.3701C63.2842 11.6846 63.7042 11.1381 64.3633 11.1358C65.0093 11.1335 65.4375 11.6724 65.44 12.3624L65.4401 12.3756L63.2868 12.3833ZM71.7716 14.5414L71.8024 14.5413L71.8044 15.1125L72.6525 15.1095L72.6412 11.9367C72.6375 10.9259 71.8842 10.4057 70.8735 10.4093C69.6826 10.4136 69.1487 11.0483 69.1076 11.8439L69.9426 11.8409C69.9806 11.4101 70.296 11.1233 70.8497 11.1213C71.4297 11.1192 71.756 11.4257 71.758 11.9882L71.7597 12.4408L70.5688 12.4451C69.5053 12.4533 68.9403 12.9739 68.9432 13.7912C68.9463 14.6482 69.5635 15.1953 70.46 15.1921C71.1455 15.1896 71.5576 14.9025 71.7716 14.5414ZM70.7167 14.4924C70.2641 14.494 69.8414 14.2538 69.8395 13.7441C69.8381 13.3442 70.1008 13.062 70.694 13.0599L71.7619 13.056L71.7637 13.579C71.7657 14.1151 71.3144 14.4903 70.7167 14.4924ZM76.1728 15.1672C77.2714 15.1633 77.9892 14.3433 77.9843 12.9898L77.9828 12.5503C77.9777 11.1529 77.2323 10.3909 76.1601 10.3947C75.5668 10.3969 75.0406 10.702 74.8135 11.1159L74.7828 11.116L74.7744 8.78691L73.8867 8.79009L73.9094 15.105L74.7707 15.1019L74.7682 14.3988L74.7989 14.3987C75.0599 14.8723 75.5136 15.1696 76.1728 15.1672ZM75.9899 14.4208C75.2385 14.4235 74.784 13.9109 74.7806 12.9529L74.7793 12.6102C74.7759 11.6566 75.2311 11.1451 75.9782 11.1425C76.6242 11.1402 77.0787 11.6527 77.0821 12.6019L77.0833 12.9535C77.0867 13.8983 76.6403 14.4184 75.9899 14.4208ZM80.9237 10.3689C79.6009 10.3736 78.888 11.3166 78.8925 12.569L78.8939 12.9558C78.8985 14.2434 79.6181 15.1636 80.9409 15.1589C82.2592 15.1542 82.9634 14.2288 82.9588 12.9412L82.9574 12.5501C82.9529 11.2976 82.2376 10.3642 80.9237 10.3689ZM80.9219 11.0984C81.6734 11.0957 82.0622 11.6876 82.0654 12.5752L82.0667 12.9312C82.0698 13.8101 81.6897 14.4179 80.9338 14.4206C80.1824 14.4233 79.7891 13.8139 79.7859 12.9394L79.7846 12.5834C79.7815 11.7001 80.1704 11.1011 80.9219 11.0984ZM87.8541 10.4231L86.9664 10.4263L86.9765 13.252C86.9791 13.9595 86.5366 14.3522 85.9214 14.3544C85.3633 14.3564 84.8834 14.1076 84.8804 13.2727L84.8702 10.4338L83.9825 10.437L83.9936 13.522C83.9974 14.5942 84.6674 15.1411 85.621 15.1377C86.3681 15.135 86.8019 14.7951 86.9588 14.4298L86.9939 14.4297L86.9962 15.0581L87.8707 15.0549L87.8541 10.4231ZM89.4493 10.4174L88.8077 10.4197L88.8103 11.1404L89.4431 11.1381L89.4525 13.7485C89.4558 14.6713 89.7341 15.0834 90.8503 15.0794C91.0305 15.0788 91.2062 15.0606 91.2809 15.0471L91.2784 14.3572C91.2169 14.3618 91.1466 14.3664 91.0675 14.3667C90.527 14.3687 90.3375 14.2287 90.3356 13.7014L90.3264 11.135L91.2361 11.1317L91.2335 10.411L90.3238 10.4143L90.3197 9.27171L89.4452 9.27485L89.4493 10.4174Z" fill="black"/>
<path d="M26.4453 30.9668L28.6016 22.9199H28.6562L30.8125 30.9668H32.2656L35.1641 20.3027H33.4141L31.4844 28.4043H31.4297L29.3984 20.3027H27.8594L25.8203 28.4043H25.7656L23.8359 20.3027H22.0859L24.9844 30.9668H26.4453ZM36.0141 30.9668H37.5922V26.0137C37.5922 24.9121 38.1859 23.9902 39.4906 23.9902C40.5922 23.9902 41.3734 24.6309 41.3734 25.9746V30.9668H42.9516V25.6777C42.9516 23.6699 41.7172 22.5996 40.0297 22.5996C38.6859 22.5996 37.9359 23.3184 37.6469 23.8574H37.5922V19.7402H36.0141V30.9668ZM49.2859 29.9512H49.3406V30.9668H50.8484V25.3262C50.8484 23.5293 49.5125 22.5996 47.7156 22.5996C45.5984 22.5996 44.6453 23.7246 44.5672 25.1387H46.0516C46.1219 24.373 46.6844 23.8652 47.6688 23.8652C48.7 23.8652 49.2781 24.4121 49.2781 25.4121V26.2168H47.1609C45.2703 26.2246 44.2625 27.1465 44.2625 28.5996C44.2625 30.123 45.3563 31.0996 46.95 31.0996C48.1688 31.0996 48.9031 30.5918 49.2859 29.9512ZM47.4109 29.8574C46.6063 29.8574 45.8563 29.4277 45.8563 28.5215C45.8563 27.8105 46.325 27.3105 47.3797 27.3105H49.2781V28.2402C49.2781 29.1934 48.4734 29.8574 47.4109 29.8574ZM53.2141 22.7324H52.0734V24.0137H53.1984V28.6543C53.1984 30.2949 53.6906 31.0293 55.675 31.0293C55.9953 31.0293 56.3078 30.998 56.4406 30.9746V29.748C56.3312 29.7559 56.2062 29.7637 56.0656 29.7637C55.1047 29.7637 54.7687 29.5137 54.7687 28.5762V24.0137H56.3859V22.7324H54.7687V20.7012H53.2141V22.7324ZM60.7031 30.9668H62.2812V22.7324H60.7031V30.9668ZM60.5312 20.7246C60.5312 21.2559 60.9609 21.6543 61.4922 21.6543C62.0234 21.6543 62.4531 21.2559 62.4531 20.7246C62.4531 20.1934 62.0234 19.7949 61.4922 19.7949C60.9609 19.7949 60.5312 20.1934 60.5312 20.7246ZM63.9203 25.1152C63.9203 26.6152 65.1625 27.1152 66.6781 27.4277C67.7953 27.6465 68.7406 27.8105 68.7406 28.6934C68.7406 29.3418 68.2094 29.8887 67.0453 29.8887C66.0219 29.8887 65.4125 29.4199 65.3109 28.7168H63.7719C63.7719 30.1934 65.0219 31.1074 66.9359 31.1074C68.9594 31.1074 70.2797 30.1543 70.2797 28.498C70.2797 26.9199 69.0453 26.4668 67.5062 26.1934C66.5687 26.0215 65.4437 25.8496 65.4437 24.959C65.4437 24.2168 66.0922 23.8027 67.0062 23.8027C68.1937 23.8027 68.5687 24.4824 68.6156 25.0762H70.0531C70.0531 23.6543 68.9984 22.5918 67.0531 22.5918C65.4203 22.5918 63.9203 23.3496 63.9203 25.1152ZM79.2375 30.9668H81.0656L78.2844 26.8418L81.0344 22.7324H79.2531L77.3625 25.748H77.3469L75.4562 22.7324H73.5891L76.3078 26.8418L73.55 30.9668H75.3L77.2453 27.959H77.2687L79.2375 30.9668ZM82.1031 20.3027V30.9668H85.6734C89.1578 30.9668 90.3922 28.6934 90.3922 25.623C90.3922 22.5059 89.1109 20.3027 85.6734 20.3027H82.1031ZM83.7125 21.6855H85.5328C87.8844 21.6855 88.7281 23.2559 88.7281 25.6465C88.7281 28.2949 87.6891 29.584 85.5328 29.584H83.7125V21.6855ZM96.3672 29.9512H96.4219V30.9668H97.9297V25.3262C97.9297 23.5293 96.5938 22.5996 94.7969 22.5996C92.6797 22.5996 91.7266 23.7246 91.6484 25.1387H93.1328C93.2031 24.373 93.7656 23.8652 94.75 23.8652C95.7812 23.8652 96.3594 24.4121 96.3594 25.4121V26.2168H94.2422C92.3516 26.2246 91.3438 27.1465 91.3438 28.5996C91.3438 30.123 92.4375 31.0996 94.0312 31.0996C95.25 31.0996 95.9844 30.5918 96.3672 29.9512ZM94.4922 29.8574C93.6875 29.8574 92.9375 29.4277 92.9375 28.5215C92.9375 27.8105 93.4062 27.3105 94.4609 27.3105H96.3594V28.2402C96.3594 29.1934 95.5547 29.8574 94.4922 29.8574ZM99.8187 30.9668H101.397V22.7324H99.8187V30.9668ZM99.6469 20.7246C99.6469 21.2559 100.077 21.6543 100.608 21.6543C101.139 21.6543 101.569 21.2559 101.569 20.7246C101.569 20.1934 101.139 19.7949 100.608 19.7949C100.077 19.7949 99.6469 20.1934 99.6469 20.7246Z" fill="black"/>
</g>
<defs>
<clipPath id="clip0">
<rect width="119.664" height="40" fill="white"/>
</clipPath>
</defs>
</svg>
