<svg fill="none" height="40" viewBox="0 0 120 40" width="120" xmlns="http://www.w3.org/2000/svg" xmlns:xlink="http://www.w3.org/1999/xlink"><clipPath id="a"><path d="m0 0h119.664v40h-119.664z"/></clipPath><g clip-path="url(#a)"><path d="m110.135.00013h-100.60032c-.3667 0-.729 0-1.09473.002-.30615.002-.60986.00781-.91895.0127-.67149.0079018-1.34139.0669763-2.0039.17671-.66158.112123-1.30243.323506-1.90088.627-.59772.30606-1.14387.70376-1.61865 1.17866-.47727.47357-.87511 1.02095-1.17822 1.62109-.30395.59895-.514709 1.24078-.625 1.90332-.1113391.66171-.1712516 1.33104-.1792 2.002-.00928.3066-.01026.61422-.01515.92086v23.11423c.00489.3105.00587.6113.01515.9219.0079508.671.0678634 1.3403.1792 2.0019.109986.663.320758 1.3052.625 1.9043.30298.5982.70087 1.1434 1.17822 1.6143.47297.477 1.01948.875 1.61865 1.1787.59845.3043 1.23923.517 1.90088.6308.66262.1089 1.33246.168 2.0039.1768.30909.0068.6128.0107.91895.0107.36572.002.72805.002 1.09473.002h100.60032c.359 0 .724 0 1.084-.002.304 0 .617-.0039.922-.0107.67-.0083 1.338-.0674 2-.1768.663-.1146 1.307-.3272 1.908-.6308.598-.3039 1.144-.7018 1.617-1.1787.476-.4727.875-1.0175 1.182-1.6143.302-.5996.51-1.2417.619-1.9043.111-.6617.173-1.3309.185-2.0019.004-.3106.004-.6114.004-.9219.008-.3633.008-.7246.008-1.0938v-20.92864c0-.36621 0-.72949-.008-1.09179 0-.30664 0-.61426-.004-.9209-.012-.67102-.074-1.3402-.185-2.002-.109-.66216-.318-1.30394-.619-1.90332-.618-1.20292-1.596-2.18209-2.799-2.7998-.601-.302753-1.245-.51408-1.908-.627-.661-.1102172-1.33-.1693122-2-.17676-.305-.00488-.618-.01074-.922-.01269-.36-.002-.725-.002-1.084-.002z" fill="#efa792"/><path d="m8.44291 39.125c-.30468 0-.602-.0039-.90429-.0107-.62621-.0082-1.25097-.0627-1.86914-.1631-.57641-.0993-1.13479-.2839-1.65674-.5479-.51715-.2618-.98884-.605-1.397-1.0166-.41406-.4067-.75878-.8785-1.02051-1.3965-.26461-.5214-.44773-1.0803-.543-1.6572-.102872-.6199-.158532-1.2467-.166496-1.875-.00634-.2109-.01464-.9131-.01464-.9131v-23.10056s.00884-.69141.01469-.89454c.007626-.62732.062962-1.25315.165526-1.87207.09544-.57848.27871-1.13898.54346-1.6621.26077-.51769.60358-.98977 1.01514-1.39795.41111-.41206.88431-.75708 1.40234-1.02247.52075-.26312 1.07808-.44648 1.65332-.54394.6202-.101434 1.24712-.156274 1.87551-.16406l.90232-.01221h102.7686l.913.0127c.623.007399 1.244.06175 1.858.16259.582.09869 1.145.28333 1.671.54785 1.038.53485 1.883 1.38102 2.415 2.41993.261.51951.441 1.07544.536 1.64892.103.624.161 1.25475.173 1.88721.003.2832.003.5874.003.89014.008.375.008.73193.008 1.09179v20.92867c0 .3633 0 .7178-.008 1.0752 0 .3252 0 .6231-.004.9297-.011.6212-.068 1.2407-.171 1.8535-.093.5811-.275 1.1443-.54 1.67-.263.5124-.606.9801-1.015 1.3857-.409.4138-.881.759-1.4 1.0225-.525.266-1.087.4513-1.668.5498-.618.101-1.242.1555-1.869.1631-.293.0068-.599.0107-.897.0107l-1.084.002z" fill="#fff"/><g fill="#000"><path d="m26.3184 14.4802-2.6894.0096-.0186-5.20307-.9053.00324.0215 5.99853 3.5947-.0129zm2.5564.8653c1.0986-.0039 1.7028-.6345 1.8539-1.3909l-.8569.0031c-.1304.4135-.4722.6696-.982.6715-.6987.0025-1.1314-.5497-1.1343-1.3715l-.0004-.0966 3.0278-.0109-.0015-.4395c-.0047-1.2919-.7329-2.1594-1.9589-2.1551-1.2217.0044-1.9569.8552-1.9524 2.1252l.0018.4878c.0048 1.3491.7768 2.1813 2.0029 2.1769zm-1.122-2.8348v-.0132c-.0025-.6856.4174-1.232 1.0766-1.2344.646-.0023 1.0742.5367 1.0767 1.2267v.0131zm6.6919 2.1645.0307-.0001.0021.5712.8481-.003-.0113-3.1728c-.0037-1.0108-.757-1.531-1.7677-1.5274-1.1909.0043-1.7248.639-1.7659 1.4346l.835-.003c.038-.4308.3533-.7176.9071-.7196.58-.0021.9063.3044.9083.8669l.0017.4526-1.1909.0043c-1.0635.0082-1.6285.5288-1.6256 1.3461.0031.857.6203 1.4041 1.5167 1.4009.6856-.0025 1.0976-.2896 1.3117-.6507zm-1.0549-.049c-.4526.0016-.8754-.2385-.8772-.7483-.0014-.3999.2612-.6821.8545-.6842l1.0679-.0039.0018.523c.002.5361-.4493.9113-1.047.9134zm3.1795.6126.8965-.0032-.0101-2.7949c-.0022-.624.2553-1.1171 1.0551-1.12.1494-.0005.3121.0077.3956.025l-.0028-.7954c-.0924-.0129-.1979-.0213-.3121-.0209-.6504.0023-.9962.3815-1.1183.6632l-.0307.0001-.0021-.5888-.8877.0031zm3.3046-.0118.8833-.0032-.0099-2.7861c-.0023-.6196.3342-1.1394 1.0637-1.142.6153-.0022 1.0604.3566 1.0631 1.1124l.0101 2.8081.8833-.0032-.0107-2.975c-.004-1.1294-.6961-1.729-1.6453-1.7256-.7603.0027-1.1851.4086-1.3466.7124l-.0308.0001-.0023-.6328-.8745.0031zm6.9082-.0248.8833-.0031-.0104-2.896c-.0024-.6812.4182-1.0386.9455-1.0405.5801-.0021.9461.3482.9486 1.0425l.0103 2.8872.8701-.0031-.0103-2.8872c-.0022-.624.3434-1.0472.9542-1.0494.6065-.0021.9375.3922.9396.9811l.0106 2.9487.8833-.0032-.0113-3.1552c-.0034-.9449-.5725-1.5493-1.5481-1.5458-.7602.0027-1.2467.3692-1.4123.7653l-.0395.0002c-.1731-.4608-.6048-.7581-1.3255-.7555-.6372.0023-1.0402.3553-1.1841.6766l-.044.0001-.0021-.5976-.8745.0031zm9.5236-4.7451c-1.3228.0048-2.0357.9478-2.0312 2.2002l.0014.3867c.0046 1.2876.7242 2.2079 2.047 2.2031 1.3183-.0047 2.0225-.9301 2.0179-2.2177l-.0014-.3911c-.0045-1.2524-.7198-2.1859-2.0337-2.1812zm-.0018.7295c.7515-.0027 1.1403.5892 1.1435 1.4769l.0013.356c.0031.8789-.377 1.4867-1.1329 1.4894-.7514.0027-1.1447-.6068-1.1479-1.4813l-.0013-.3559c-.0031-.8833.3858-1.4824 1.1373-1.4851zm3.1432 3.9702.8964-.0032-.01-2.7949c-.0022-.624.2553-1.1171 1.0551-1.12.1494-.0005.312.0077.3956.025l-.0029-.7954c-.0923-.0129-.1978-.0213-.312-.0209-.6504.0023-.9962.3815-1.1183.6632l-.0307.0001-.0022-.5889-.8876.0032zm4.9616.0614c1.0987-.004 1.7029-.6346 1.854-1.391l-.857.0031c-.1303.4135-.4722.6697-.982.6715-.6987.0025-1.1313-.5497-1.1343-1.3714l-.0003-.0967 3.0278-.0109-.0016-.4394c-.0046-1.292-.7328-2.1595-1.9589-2.1551-1.2217.0043-1.9569.8551-1.9523 2.1251l.0017.4878c.0048 1.3491.7769 2.1813 2.0029 2.177zm-1.1219-2.8349-.0001-.0132c-.0025-.6855.4175-1.232 1.0766-1.2343.646-.0023 1.0742.5366 1.0767 1.2266l.0001.0132zm8.4848 2.1581.0308-.0001.002.5712.8481-.003-.0113-3.1728c-.0037-1.0108-.757-1.531-1.7677-1.5274-1.1909.0043-1.7248.639-1.7659 1.4346l.835-.003c.038-.4308.3534-.7176.9071-.7196.58-.0021.9063.3044.9083.8669l.0017.4526-1.1909.0043c-1.0635.0082-1.6285.5288-1.6256 1.3461.0031.857.6203 1.4041 1.5168 1.4009.6855-.0025 1.0976-.2896 1.3116-.6507zm-1.0549-.049c-.4526.0016-.8753-.2386-.8772-.7483-.0014-.3999.2613-.6821.8545-.6842l1.0679-.0039.0018.523c.002.5361-.4493.9113-1.047.9134zm5.4561.6748c1.0986-.0039 1.8164-.8239 1.8115-2.1774l-.0015-.4395c-.0051-1.3974-.7505-2.1594-1.8227-2.1556-.5933.0022-1.1195.3073-1.3466.7212l-.0307.0001-.0084-2.32909-.8877.00318.0227 6.31491.8613-.0031-.0025-.7031.0307-.0001c.261.4736.7147.7709 1.3739.7685zm-.1829-.7464c-.7514.0027-1.2059-.5099-1.2093-1.4679l-.0013-.3427c-.0034-.9536.4518-1.4651 1.1989-1.4677.646-.0023 1.1005.5102 1.1039 1.4594l.0012.3516c.0034.9448-.443 1.4649-1.0934 1.4673zm4.9338-4.0519c-1.3228.0047-2.0357.9477-2.0312 2.2001l.0014.3868c.0046 1.2876.7242 2.2078 2.047 2.2031 1.3183-.0047 2.0225-.9301 2.0179-2.2177l-.0014-.3911c-.0045-1.2525-.7198-2.1859-2.0337-2.1812zm-.0018.7295c.7515-.0027 1.1403.5892 1.1435 1.4768l.0013.356c.0031.8789-.377 1.4867-1.1329 1.4894-.7514.0027-1.1447-.6067-1.1479-1.4812l-.0013-.356c-.0031-.8833.3858-1.4823 1.1373-1.485zm6.9322-.6753-.8877.0032.0101 2.8257c.0026.7075-.4399 1.1002-1.0551 1.1024-.5581.002-1.038-.2468-1.041-1.0817l-.0102-2.8389-.8877.0032.0111 3.085c.0038 1.0722.6738 1.6191 1.6274 1.6157.7471-.0027 1.1809-.3426 1.3378-.7079l.0351-.0001.0023.6284.8745-.0032zm1.5952-.0057-.6416.0023.0026.7207.6328-.0023.0094 2.6104c.0033.9228.2816 1.3349 1.3978 1.3309.1802-.0006.3559-.0188.4306-.0323l-.0025-.6899c-.0615.0046-.1318.0092-.2109.0095-.5405.002-.73-.138-.7319-.6653l-.0092-2.5664.9097-.0033-.0026-.7207-.9097.0033-.0041-1.14259-.8745.00314z"/><path d="m26.4453 30.9668 2.1563-8.0469h.0546l2.1563 8.0469h1.4531l2.8985-10.6641h-1.75l-1.9297 8.1016h-.0547l-2.0313-8.1016h-1.539l-2.0391 8.1016h-.0547l-1.9297-8.1016h-1.75l2.8985 10.6641zm9.5688 0h1.5781v-4.9531c0-1.1016.5937-2.0235 1.8984-2.0235 1.1016 0 1.8828.6407 1.8828 1.9844v4.9922h1.5782v-5.2891c0-2.0078-1.2344-3.0781-2.9219-3.0781-1.3438 0-2.0938.7188-2.3828 1.2578h-.0547v-4.1172h-1.5781zm13.2718-1.0156h.0547v1.0156h1.5078v-5.6406c0-1.7969-1.3359-2.7266-3.1328-2.7266-2.1172 0-3.0703 1.125-3.1484 2.5391h1.4844c.0703-.7657.6328-1.2735 1.6172-1.2735 1.0312 0 1.6093.5469 1.6093 1.5469v.8047h-2.1172c-1.8906.0078-2.8984.9297-2.8984 2.3828 0 1.5234 1.0938 2.5 2.6875 2.5 1.2188 0 1.9531-.5078 2.3359-1.1484zm-1.875-.0938c-.8046 0-1.5546-.4297-1.5546-1.3359 0-.711.4687-1.211 1.5234-1.211h1.8984v.9297c0 .9532-.8047 1.6172-1.8672 1.6172zm5.8032-7.125h-1.1407v1.2813h1.125v4.6406c0 1.6406.4922 2.375 2.4766 2.375.3203 0 .6328-.0313.7656-.0547v-1.2266c-.1094.0079-.2344.0157-.375.0157-.9609 0-1.2969-.25-1.2969-1.1875v-4.5625h1.6172v-1.2813h-1.6172v-2.0312h-1.5546zm7.489 8.2344h1.5781v-8.2344h-1.5781zm-.1719-10.2422c0 .5313.4297.9297.961.9297.5312 0 .9609-.3984.9609-.9297 0-.5312-.4297-.9297-.9609-.9297-.5313 0-.961.3985-.961.9297zm3.3891 4.3906c0 1.5 1.2422 2 2.7578 2.3125 1.1172.2188 2.0625.3828 2.0625 1.2657 0 .6484-.5312 1.1953-1.6953 1.1953-1.0234 0-1.6328-.4688-1.7344-1.1719h-1.539c0 1.4766 1.25 2.3906 3.164 2.3906 2.0235 0 3.3438-.9531 3.3438-2.6094 0-1.5781-1.2344-2.0312-2.7735-2.3046-.9375-.1719-2.0625-.3438-2.0625-1.2344 0-.7422.6485-1.1563 1.5625-1.1563 1.1875 0 1.5625.6797 1.6094 1.2735h1.4375c0-1.4219-1.0547-2.4844-3-2.4844-1.6328 0-3.1328.7578-3.1328 2.5234zm15.3172 5.8516h1.8281l-2.7812-4.125 2.75-4.1094h-1.7813l-1.8906 3.0156h-.0156l-1.8907-3.0156h-1.8671l2.7187 4.1094-2.7578 4.125h1.75l1.9453-3.0078h.0234zm2.8656-10.6641v10.6641h3.5703c3.4844 0 4.7188-2.2734 4.7188-5.3438 0-3.1171-1.2813-5.3203-4.7188-5.3203zm1.6094 1.3828h1.8203c2.3516 0 3.1953 1.5704 3.1953 3.961 0 2.6484-1.039 3.9375-3.1953 3.9375h-1.8203zm12.6547 8.2657h.0547v1.0156h1.5078v-5.6406c0-1.7969-1.3359-2.7266-3.1328-2.7266-2.1172 0-3.0703 1.125-3.1485 2.5391h1.4844c.0703-.7657.6328-1.2735 1.6172-1.2735 1.0312 0 1.6094.5469 1.6094 1.5469v.8047h-2.1172c-1.8906.0078-2.8984.9297-2.8984 2.3828 0 1.5234 1.0937 2.5 2.6874 2.5 1.2188 0 1.9532-.5078 2.336-1.1484zm-1.875-.0938c-.8047 0-1.5547-.4297-1.5547-1.3359 0-.711.4687-1.211 1.5234-1.211h1.8985v.9297c0 .9532-.8047 1.6172-1.8672 1.6172zm5.3265 1.1094h1.5783v-8.2344h-1.5783zm-.1718-10.2422c0 .5313.4301.9297.9611.9297s.961-.3984.961-.9297c0-.5312-.43-.9297-.961-.9297s-.9611.3985-.9611.9297z"/></g></g></svg>