<svg fill="none" height="40" width="120" xmlns="http://www.w3.org/2000/svg"><clipPath id="a"><path d="M0 0h119.664v40H0z"/></clipPath><g clip-path="url(#a)"><path d="M110.135 0H9.535c-.367 0-.73 0-1.095.002-.306.002-.61.008-.919.013C6.85.023 6.18.082 5.517.192a6.665 6.665 0 0 0-1.9.627A6.438 6.438 0 0 0 .193 5.522a12.993 12.993 0 0 0-.179 2.002c-.01.306-.01.614-.015.92V31.56c.005.31.006.611.015.922.008.67.068 1.34.18 2.001.11.663.32 1.306.624 1.905.303.598.701 1.143 1.179 1.614.473.477 1.02.875 1.618 1.179a6.7 6.7 0 0 0 1.901.63c.663.11 1.333.169 2.004.177.31.007.613.011.919.011.366.002.728.002 1.095.002h100.6c.359 0 .724 0 1.084-.002.304 0 .617-.004.922-.01a13.27 13.27 0 0 0 2-.177 6.805 6.805 0 0 0 1.908-.631A6.293 6.293 0 0 0 117.666 38a6.403 6.403 0 0 0 1.182-1.614c.302-.6.51-1.242.619-1.905.111-.661.173-1.33.185-2.001.004-.311.004-.612.004-.922.008-.364.008-.725.008-1.094V9.536c0-.366 0-.73-.008-1.092 0-.306 0-.614-.004-.92a13.57 13.57 0 0 0-.185-2.002 6.648 6.648 0 0 0-.619-1.904 6.469 6.469 0 0 0-2.799-2.8 6.77 6.77 0 0 0-1.908-.627c-.661-.11-1.33-.169-2-.176-.305-.005-.618-.011-.922-.013-.36-.002-.725-.002-1.084-.002z" fill="#efa792"/><path d="M8.443 39.125c-.305 0-.602-.004-.904-.01a12.696 12.696 0 0 1-1.87-.164 5.884 5.884 0 0 1-1.656-.548 5.406 5.406 0 0 1-1.397-1.016 5.321 5.321 0 0 1-1.02-1.397 5.722 5.722 0 0 1-.544-1.657 12.414 12.414 0 0 1-.166-1.875c-.007-.21-.015-.913-.015-.913v-23.1s.009-.692.015-.895a12.37 12.37 0 0 1 .165-1.872 5.756 5.756 0 0 1 .544-1.662c.26-.518.603-.99 1.015-1.398A5.566 5.566 0 0 1 5.666 1.05C6.286.95 6.913.895 7.54.887l.902-.012h102.769l.913.013a12.37 12.37 0 0 1 1.858.162 5.922 5.922 0 0 1 1.671.548 5.589 5.589 0 0 1 2.415 2.42c.261.52.441 1.076.536 1.649.103.624.161 1.255.173 1.887.003.283.003.588.003.89.008.375.008.732.008 1.092v20.929c0 .363 0 .718-.008 1.075 0 .325 0 .623-.004.93-.011.62-.068 1.24-.171 1.853a5.716 5.716 0 0 1-.54 1.67 5.47 5.47 0 0 1-1.015 1.386 5.414 5.414 0 0 1-1.4 1.022 5.855 5.855 0 0 1-1.668.55c-.618.101-1.242.156-1.869.163-.293.007-.599.011-.897.011l-1.084.002z" fill="#fff"/><g fill="#000"><path d="M26.318 14.48l-2.689.01-.019-5.203-.905.003.022 5.999 3.594-.013zm2.557.865c1.098-.003 1.703-.634 1.854-1.39l-.857.003c-.13.413-.472.67-.982.671-.699.003-1.132-.55-1.134-1.371v-.097l3.027-.01-.002-.44c-.004-1.292-.732-2.16-1.958-2.155-1.222.004-1.957.855-1.953 2.125l.002.488c.005 1.349.777 2.18 2.003 2.176zm-1.122-2.834v-.013c-.003-.686.417-1.232 1.076-1.235.646-.002 1.075.537 1.077 1.227v.013zm6.692 2.164h.03l.002.571.849-.003-.012-3.173c-.003-1.01-.757-1.53-1.767-1.527-1.191.004-1.725.64-1.766 1.435l.835-.003c.038-.431.353-.718.907-.72.58-.002.906.304.908.867l.002.453-1.191.004c-1.064.008-1.629.529-1.626 1.346.003.857.62 1.404 1.517 1.4.686-.002 1.098-.289 1.312-.65zm-1.055-.049c-.453.002-.876-.238-.877-.748-.002-.4.26-.682.854-.684l1.068-.004.002.523c.002.536-.45.911-1.047.913zm3.18.613l.896-.003-.01-2.795c-.003-.624.255-1.117 1.055-1.12.15 0 .312.007.395.025l-.002-.796a2.212 2.212 0 0 0-.313-.02c-.65.002-.996.38-1.118.663h-.03l-.003-.59-.887.004zm3.304-.012l.883-.003-.01-2.786c-.002-.62.334-1.14 1.064-1.142.615-.002 1.06.356 1.063 1.112l.01 2.808.883-.003-.01-2.975c-.004-1.13-.696-1.729-1.646-1.726-.76.003-1.185.409-1.346.713h-.03l-.003-.633-.875.003zm6.908-.025l.883-.003-.01-2.896c-.002-.681.418-1.039.945-1.04.58-.002.947.348.95 1.042l.01 2.887.87-.003-.01-2.887c-.003-.624.343-1.047.953-1.05.607-.001.938.393.94.982l.01 2.948.884-.003-.011-3.155c-.004-.945-.573-1.55-1.549-1.546-.76.003-1.246.37-1.412.766h-.04c-.172-.461-.604-.758-1.325-.756-.637.003-1.04.356-1.184.677h-.044l-.002-.598-.875.003zm9.524-4.745c-1.323.005-2.036.948-2.032 2.2l.002.387c.004 1.288.724 2.208 2.047 2.203 1.318-.005 2.022-.93 2.018-2.218l-.002-.39c-.004-1.253-.72-2.187-2.033-2.182zm-.002.73c.751-.003 1.14.589 1.143 1.477l.002.356c.003.878-.377 1.486-1.133 1.489-.752.003-1.145-.607-1.148-1.481l-.001-.356c-.004-.884.385-1.483 1.137-1.485zm3.143 3.97l.896-.003-.01-2.795c-.002-.624.256-1.117 1.056-1.12.149 0 .312.007.395.025l-.003-.796a2.21 2.21 0 0 0-.312-.02c-.65.002-.996.38-1.118.663h-.03l-.003-.59-.887.004zm4.962.061c1.098-.004 1.703-.634 1.854-1.39l-.857.002c-.13.414-.473.67-.982.672-.699.002-1.132-.55-1.135-1.372v-.096l3.028-.011-.002-.44c-.004-1.292-.733-2.16-1.959-2.155-1.221.005-1.957.855-1.952 2.125l.002.488c.005 1.35.777 2.181 2.003 2.177zm-1.122-2.835v-.013c-.003-.685.417-1.232 1.076-1.234.646-.002 1.074.536 1.077 1.226v.014zm8.485 2.158h.03l.002.572.848-.003-.01-3.173c-.004-1.011-.758-1.531-1.768-1.528-1.191.005-1.725.64-1.766 1.435l.835-.003c.038-.43.353-.718.907-.72.58-.002.906.305.908.867l.002.453-1.191.004c-1.064.008-1.629.529-1.626 1.346.003.857.62 1.404 1.517 1.401.685-.002 1.098-.29 1.312-.65zm-1.055-.049c-.453.002-.876-.238-.877-.748-.002-.4.26-.682.854-.684l1.068-.004.002.523c.002.536-.45.911-1.047.913zm5.456.675c1.098-.004 1.816-.824 1.811-2.177l-.001-.44c-.005-1.397-.75-2.16-1.823-2.155-.593.002-1.12.307-1.346.72l-.031.001-.009-2.33-.887.004.022 6.315.862-.003-.003-.703h.03c.262.473.716.77 1.375.768zm-.183-.746c-.751.003-1.206-.51-1.21-1.468v-.343c-.004-.953.451-1.465 1.198-1.467.646-.003 1.1.51 1.104 1.459l.001.352c.004.944-.443 1.464-1.093 1.467zm4.934-4.052c-1.323.005-2.036.948-2.031 2.2v.387c.006 1.287.725 2.208 2.048 2.203 1.318-.005 2.022-.93 2.018-2.218l-.002-.39c-.004-1.253-.72-2.187-2.033-2.182zm-.002.73c.751-.003 1.14.589 1.143 1.476l.002.356c.003.88-.377 1.487-1.133 1.49-.752.002-1.145-.607-1.148-1.482l-.001-.356c-.003-.883.385-1.482 1.137-1.485zm6.932-.676l-.888.003.01 2.826c.003.708-.44 1.1-1.055 1.102-.558.002-1.038-.246-1.04-1.081l-.01-2.84-.888.004.01 3.085c.004 1.072.674 1.62 1.628 1.616.747-.003 1.18-.343 1.338-.708h.035l.002.628.875-.003zm1.595-.006l-.641.003.002.72.633-.002.01 2.61c.003.923.281 1.335 1.397 1.331a2.9 2.9 0 0 0 .43-.032l-.002-.69a2.91 2.91 0 0 1-.21.01c-.541.002-.73-.138-.732-.666l-.01-2.566.91-.003-.002-.721-.91.003-.004-1.142-.875.003zm-63.004 20.55l2.157-8.047h.054l2.157 8.047h1.453l2.898-10.664h-1.75l-1.93 8.101h-.054l-2.032-8.101H27.86l-2.039 8.101h-.054l-1.93-8.101h-1.75l2.898 10.664zm9.57 0h1.577v-4.953c0-1.102.594-2.024 1.899-2.024 1.101 0 1.882.64 1.882 1.985v4.992h1.579v-5.29c0-2.007-1.235-3.077-2.922-3.077-1.344 0-2.094.718-2.383 1.257h-.055V19.74h-1.578zm13.27-1.016h.056v1.016h1.507v-5.64c0-1.798-1.336-2.727-3.132-2.727-2.118 0-3.07 1.125-3.149 2.539h1.485c.07-.766.632-1.274 1.617-1.274 1.031 0 1.61.547 1.61 1.547v.805H47.16c-1.89.008-2.899.93-2.899 2.383 0 1.523 1.094 2.5 2.688 2.5 1.219 0 1.953-.508 2.336-1.149zm-1.874-.094c-.805 0-1.555-.43-1.555-1.336 0-.71.469-1.21 1.524-1.21h1.898v.93c0 .952-.805 1.616-1.867 1.616zm5.803-7.125h-1.14v1.282h1.124v4.64c0 1.64.493 2.375 2.477 2.375.32 0 .633-.031.766-.054v-1.227c-.11.008-.235.016-.375.016-.961 0-1.297-.25-1.297-1.188v-4.562h1.617v-1.282h-1.617v-2.03h-1.555zm7.49 8.235h1.577v-8.235h-1.578zm-.173-10.242c0 .53.43.93.961.93.531 0 .961-.4.961-.93 0-.532-.43-.93-.96-.93-.532 0-.962.398-.962.93zm3.39 4.39c0 1.5 1.241 2 2.757 2.313 1.117.218 2.063.382 2.063 1.265 0 .649-.532 1.196-1.696 1.196-1.023 0-1.633-.47-1.734-1.172h-1.54c0 1.476 1.25 2.39 3.165 2.39 2.023 0 3.344-.953 3.344-2.609 0-1.578-1.235-2.031-2.774-2.305-.937-.172-2.062-.343-2.062-1.234 0-.742.648-1.156 1.562-1.156 1.188 0 1.563.68 1.61 1.273h1.437c0-1.422-1.055-2.484-3-2.484-1.633 0-3.133.758-3.133 2.523zm15.316 5.852h1.829l-2.782-4.125 2.75-4.11h-1.78l-1.892 3.016h-.015l-1.89-3.016h-1.868l2.719 4.11-2.758 4.125h1.75l1.945-3.008h.024zm2.866-10.664v10.664h3.57c3.485 0 4.72-2.274 4.72-5.344 0-3.117-1.282-5.32-4.72-5.32zm1.61 1.383h1.82c2.351 0 3.195 1.57 3.195 3.96 0 2.649-1.039 3.938-3.195 3.938h-1.82zm12.654 8.265h.055v1.016h1.508v-5.64c0-1.798-1.336-2.727-3.133-2.727-2.117 0-3.07 1.125-3.149 2.539h1.485c.07-.766.633-1.274 1.617-1.274 1.031 0 1.61.547 1.61 1.547v.805h-2.118c-1.89.008-2.898.93-2.898 2.383 0 1.523 1.093 2.5 2.687 2.5 1.219 0 1.953-.508 2.336-1.149zm-1.875-.094c-.805 0-1.555-.43-1.555-1.336 0-.71.47-1.21 1.524-1.21h1.898v.93c0 .952-.804 1.616-1.867 1.616zm5.327 1.11h1.578v-8.235h-1.578zm-.172-10.242c0 .53.43.93.961.93s.961-.4.961-.93c0-.532-.43-.93-.961-.93s-.961.398-.961.93z"/></g></g></svg>