<svg xmlns="http://www.w3.org/2000/svg" width="48" height="48" viewBox="0 0 48 48"><g class="nc-icon-wrapper"><path d="M39.41,1H8.59A4.854,4.854,0,0,0,4,6V37a4.482,4.482,0,0,0,4.59,4.572H34.672l-1.219-4.255L36.4,40.054,39.18,42.63,44,47V6A4.854,4.854,0,0,0,39.41,1Z" fill="#7289da"/> <path d="M34.258,14.133A11.374,11.374,0,0,0,27.8,11.718l-.322.368A15.307,15.307,0,0,1,33.2,15.007,18.749,18.749,0,0,0,26.277,12.8a19.461,19.461,0,0,0-4.646.046,17.45,17.45,0,0,0-5.612,1.495c-.851.391-1.357.667-1.357.667a15.517,15.517,0,0,1,6.049-3.013l-.23-.276a11.374,11.374,0,0,0-6.463,2.415,30.8,30.8,0,0,0-3.312,13.409s1.932,3.335,7.015,3.5c0,0,.851-1.035,1.541-1.909a7.153,7.153,0,0,1-4.025-2.714,16.847,16.847,0,0,0,6,2.346,16.112,16.112,0,0,0,5.957.023,16.723,16.723,0,0,0,5.98-2.346,7.258,7.258,0,0,1-4.163,2.737c.69.874,1.518,1.863,1.518,1.863,5.083-.161,7.038-3.5,7.038-3.5A30.8,30.8,0,0,0,34.258,14.133ZM19.837,25.4a2.562,2.562,0,0,1,0-5.106,2.562,2.562,0,0,1,0,5.106Zm8.4,0a2.562,2.562,0,1,1,2.346-2.553A2.466,2.466,0,0,1,28.232,25.4Z" fill="#fff"/></g></svg>