<svg height="48" viewBox="0 0 48 48" width="48" xmlns="http://www.w3.org/2000/svg"><path d="m48 9.11341c-1.76603.78322-3.66389 1.31268-5.65607 1.55067 2.03332-1.21873 3.5948-3.14867 4.33001-5.44828-1.90268 1.12855-4.01024 1.94811-6.25344 2.3898-1.79636-1.914-4.35574-3.10992-7.18805-3.10992-5.43885 0-9.84807 4.40923-9.84807 9.84756 0 .77191.0871 1.5234.25495 2.24422-8.1844-.41065-15.4407-4.33121-20.29778-10.28923-.84768 1.45449-1.33325 3.14609-1.33325 4.95086 0 3.41649 1.73858 6.43073 4.38093 8.19676-1.61427-.05109-3.13272-.49415-4.4605-1.23177-.00069.04115-.00084.08231-.00084.1238 0 4.77144 3.39452 8.75168 7.8996 9.6563-.82642.22494-1.69641.34532-2.5945.34532-.63458 0-1.25149-.06173-1.8528-.17661 1.25319 3.91234 4.89001 6.75958 9.19929 6.83914-3.37036 2.64116-7.61654 4.21549-12.23032 4.21549-.79489-.00001-1.5788-.04664-2.34916-.13752 4.35814 2.79408 9.53447 4.42431 15.09573 4.42431 18.11374 0 28.0189-15.00571 28.0189-28.01916 0-.42694-.00959-.85164-.02846-1.27394 1.92394-1.38847 3.59361-3.12295 4.91383-5.0978z" fill="#69ace0"/></svg>