<svg height="48" viewBox="0 0 48 48" width="48" xmlns="http://www.w3.org/2000/svg"><path d="m24 0c-13.25484 0-24 10.74517-24 24s10.74517 24 24 24 24-10.74517 24-24-10.74517-24-24-24z" fill="#dc5425"/><path d="m27.20001 12h-11.60003v24h4.80005v-7.19995h6.79999v-.00006c4.63922 0 8.39996-3.7608 8.39996-8.40002 0-4.63917-3.76075-8.39997-8.39997-8.39997zm0 11.99994v.00006h-6.79999v-7.19995h6.79999v-.00006c1.98822 0 3.59991 1.61176 3.59991 3.59998.00001 1.98815-1.61169 3.59991-3.59991 3.59997z" fill="#fff"/></svg>