<svg width="120" height="40" viewBox="0 0 120 40" fill="none" xmlns="http://www.w3.org/2000/svg">
<g clip-path="url(#clip0)">
<path d="M110.135 -7.3291e-06H9.53468C9.16798 -7.3291e-06 8.80568 -7.32904e-06 8.43995 0.00199267C8.1338 0.00399267 7.83009 0.00980267 7.521 0.0146927C6.84951 0.0225945 6.17961 0.0816689 5.5171 0.191403C4.85552 0.303525 4.21467 0.514908 3.61622 0.818403C3.0185 1.12446 2.47235 1.52216 1.99757 1.99706C1.5203 2.47063 1.12246 3.01801 0.81935 3.61815C0.5154 4.2171 0.304641 4.85893 0.19435 5.52147C0.0830109 6.18318 0.0230984 6.85251 0.01515 7.52347C0.00587 7.83007 0.00489 8.13769 0 8.44433V31.5586C0.00489 31.8691 0.00587 32.1699 0.01515 32.4805C0.0231008 33.1514 0.0830134 33.8207 0.19435 34.4824C0.304336 35.1453 0.515108 35.7875 0.81935 36.3867C1.12233 36.9849 1.52022 37.5301 1.99757 38.001C2.47054 38.478 3.01705 38.876 3.61622 39.1797C4.21467 39.484 4.85545 39.6966 5.5171 39.8105C6.17972 39.9193 6.84956 39.9784 7.521 39.9873C7.83009 39.9941 8.1338 39.998 8.43995 39.998C8.80567 40 9.168 40 9.53468 40H110.135C110.494 40 110.859 40 111.219 39.998C111.523 39.998 111.836 39.9941 112.141 39.9873C112.811 39.9789 113.479 39.9198 114.141 39.8105C114.804 39.6958 115.448 39.4833 116.049 39.1797C116.647 38.8758 117.193 38.4778 117.666 38.001C118.142 37.5282 118.541 36.9834 118.848 36.3867C119.15 35.7871 119.358 35.1449 119.467 34.4824C119.578 33.8206 119.64 33.1515 119.652 32.4805C119.656 32.1699 119.656 31.8691 119.656 31.5586C119.664 31.1953 119.664 30.834 119.664 30.4648V9.53612C119.664 9.16991 119.664 8.80663 119.656 8.44433C119.656 8.13769 119.656 7.83007 119.652 7.52343C119.64 6.85242 119.578 6.18323 119.467 5.52143C119.358 4.85927 119.149 4.2175 118.848 3.61811C118.23 2.41519 117.252 1.43602 116.049 0.818313C115.448 0.51556 114.804 0.304233 114.141 0.191313C113.48 0.0810955 112.811 0.0220004 112.141 0.0145527C111.836 0.00967267 111.523 0.00381267 111.219 0.00186267C110.859 -0.000137329 110.494 -0.000137329 110.135 -0.000137329V-7.3291e-06Z" fill="black"/>
<path d="M8.44487 39.125C8.14019 39.125 7.84287 39.1211 7.54058 39.1143C6.91436 39.1061 6.2896 39.0516 5.67144 38.9512C5.09503 38.8519 4.53664 38.6673 4.0147 38.4033C3.49754 38.1415 3.02585 37.7983 2.6177 37.3867C2.20364 36.98 1.85891 36.5082 1.59719 35.9902C1.33258 35.4688 1.14945 34.9099 1.05419 34.333C0.951311 33.7131 0.895651 33.0863 0.887687 32.458C0.881347 32.2471 0.873047 31.5449 0.873047 31.5449V8.44434C0.873047 8.44434 0.881887 7.75293 0.887737 7.5498C0.895363 6.92248 0.950699 6.29665 1.05327 5.67773C1.14871 5.09925 1.33197 4.53875 1.59673 4.01563C1.85749 3.49794 2.2003 3.02586 2.61187 2.61768C3.02297 2.20562 3.49617 1.8606 4.01421 1.59521C4.53495 1.33209 5.09228 1.14873 5.66753 1.05127C6.28772 0.949836 6.91465 0.894996 7.54304 0.88721L8.44536 0.875H111.214L112.127 0.8877C112.75 0.895099 113.371 0.94945 113.985 1.05029C114.566 1.14898 115.13 1.33362 115.656 1.59814C116.694 2.13299 117.539 2.97916 118.071 4.01807C118.332 4.53758 118.512 5.09351 118.607 5.66699C118.71 6.29099 118.768 6.92174 118.78 7.5542C118.783 7.8374 118.783 8.1416 118.783 8.44434C118.791 8.81934 118.791 9.17627 118.791 9.53613V30.4648C118.791 30.8281 118.791 31.1826 118.783 31.54C118.783 31.8652 118.783 32.1631 118.779 32.4697C118.768 33.0909 118.711 33.7104 118.608 34.3232C118.515 34.9043 118.333 35.4675 118.068 35.9932C117.805 36.5056 117.462 36.9733 117.053 37.3789C116.644 37.7927 116.172 38.1379 115.653 38.4014C115.128 38.6674 114.566 38.8527 113.985 38.9512C113.367 39.0522 112.742 39.1067 112.116 39.1143C111.823 39.1211 111.517 39.125 111.219 39.125L110.135 39.127L8.44487 39.125Z" fill="white"/>
<path d="M63.2902 13.8197C62.4755 13.8197 61.7887 13.5347 61.2456 12.9736C60.7069 12.4282 60.4062 11.6763 60.4197 10.9087C60.4197 10.0895 60.698 9.39601 61.2456 8.84613C61.7865 8.28504 62.4733 8 63.288 8C64.0937 8 64.7805 8.28504 65.3326 8.84613C65.8802 9.41397 66.1585 10.1075 66.1585 10.9087C66.1495 11.7302 65.8712 12.4237 65.3326 12.9713C64.7917 13.5369 64.1049 13.8197 63.2902 13.8197ZM39.0488 13.8197C38.252 13.8197 37.5608 13.5392 36.9952 12.9848C36.4341 12.4327 36.149 11.7347 36.149 10.911C36.149 10.0873 36.4341 9.38928 36.9952 8.83716C37.5495 8.28279 38.2408 8.00224 39.0488 8.00224C39.4438 8.00224 39.8276 8.0808 40.1956 8.24015C40.557 8.39501 40.851 8.60599 41.0687 8.86409L41.1226 8.92918L40.5143 9.52618L40.4515 9.45212C40.1081 9.04364 39.648 8.84389 39.0398 8.84389C38.4967 8.84389 38.0231 9.03691 37.6326 9.41845C37.2398 9.80224 37.0401 10.305 37.0401 10.9132C37.0401 11.5214 37.2398 12.0242 37.6326 12.408C38.0231 12.7895 38.4967 12.9825 39.0398 12.9825C39.6188 12.9825 40.1059 12.7895 40.4852 12.408C40.7096 12.1835 40.8488 11.8693 40.8981 11.4721H38.9478V10.6327H41.7353L41.7465 10.709C41.7667 10.8504 41.7869 10.9963 41.7869 11.1309C41.7869 11.9052 41.5535 12.5314 41.0911 12.9938C40.566 13.5414 39.8792 13.8197 39.0488 13.8197ZM71.2802 13.7007H70.4206L67.7879 9.48803L67.8104 10.2466V13.6985H66.9508V8.1212H67.9316L67.9585 8.16384L70.434 12.1319L70.4116 11.3756V8.1212H71.2802V13.7007V13.7007ZM56.8309 13.7007H55.9601V8.9606H54.4496V8.1212H58.3391V8.9606H56.8287V13.7007H56.8309ZM53.7404 13.7007H52.8718V8.1212H53.7404V13.7007ZM48.8589 13.7007H47.9903V8.9606H46.4799V8.1212H50.3694V8.9606H48.8589V13.7007ZM45.93 13.6918H42.5994V8.1212H45.93V8.9606H43.4702V10.4913H45.6899V11.3217H43.4702V12.8524H45.93V13.6918ZM61.883 12.3968C62.2713 12.785 62.7426 12.9803 63.2902 12.9803C63.8535 12.9803 64.3136 12.7895 64.6974 12.3968C65.079 12.0152 65.272 11.5147 65.272 10.911C65.272 10.3072 65.079 9.80449 64.6997 9.42519C64.3114 9.03691 63.8378 8.84165 63.2925 8.84165C62.7291 8.84165 62.269 9.03242 61.8875 9.42519C61.5059 9.80673 61.3129 10.3072 61.3129 10.911C61.3129 11.5147 61.5037 12.0175 61.883 12.3968Z" fill="black"/>
<path fill-rule="evenodd" clip-rule="evenodd" d="M60.3389 21.491C58.218 21.491 56.4988 23.1003 56.4988 25.32C56.4988 27.5195 58.2292 29.1489 60.3389 29.1489C62.4599 29.1489 64.1791 27.5284 64.1791 25.32C64.1791 23.1003 62.4599 21.491 60.3389 21.491ZM60.3389 27.6317C59.1786 27.6317 58.1798 26.6711 58.1798 25.311C58.1798 23.9307 59.1808 22.9903 60.3389 22.9903C61.4993 22.9903 62.498 23.9307 62.498 25.311C62.5003 26.6801 61.4993 27.6317 60.3389 27.6317ZM51.9606 21.491C49.8397 21.491 48.1205 23.1003 48.1205 25.32C48.1205 27.5195 49.8509 29.1489 51.9606 29.1489C54.0816 29.1489 55.8008 27.5284 55.8008 25.32C55.8008 23.1003 54.0793 21.491 51.9606 21.491ZM51.9606 27.6317C50.8003 27.6317 49.8015 26.6711 49.8015 25.311C49.8015 23.9307 50.8025 22.9903 51.9606 22.9903C53.121 22.9903 54.1197 23.9307 54.1197 25.311C54.1197 26.6801 53.121 27.6317 51.9606 27.6317ZM41.9911 22.6604V24.2808H45.8806C45.7617 25.1898 45.4609 25.8609 45.0008 26.321C44.4307 26.891 43.5509 27.5105 42.0001 27.5105C39.6098 27.5105 37.7402 25.5803 37.7402 23.19C37.7402 20.7998 39.6098 18.8696 42.0001 18.8696C43.2906 18.8696 44.231 19.3791 44.929 20.0299L46.0781 18.8808C45.1085 17.9516 43.818 17.2402 42.0091 17.2402C38.73 17.2402 35.9784 19.911 35.9784 23.1811C35.9784 26.4601 38.7278 29.122 42.0091 29.122C43.7799 29.122 45.1085 28.5429 46.1589 27.4521C47.2295 26.3816 47.5684 24.8711 47.5684 23.6524C47.5684 23.2731 47.5392 22.9319 47.4786 22.6424H41.9889C41.9911 22.6402 41.9911 22.6604 41.9911 22.6604ZM82.7693 23.9217C82.4483 23.0621 81.4788 21.4821 79.4902 21.4821C77.5197 21.4821 75.8813 23.0329 75.8813 25.311C75.8813 27.4611 77.5017 29.1399 79.681 29.1399C81.4316 29.1399 82.4506 28.0693 82.8703 27.4409L81.5708 26.5701C81.1399 27.2097 80.5406 27.6294 79.69 27.6294C78.8304 27.6294 78.2289 27.2389 77.8294 26.4691L82.9488 24.3481C82.9488 24.3504 82.7693 23.9217 82.7693 23.9217ZM77.5488 25.201C77.5084 23.722 78.698 22.9701 79.5486 22.9701C80.2197 22.9701 80.7785 23.3 80.9693 23.7803L77.5488 25.201ZM73.39 28.911H75.071V17.6621H73.39V28.911ZM70.6294 22.3417H70.5688C70.1895 21.8905 69.4691 21.4821 68.5489 21.4821C66.6389 21.4821 64.8793 23.1631 64.8793 25.3222C64.8793 27.4723 66.6299 29.1332 68.5489 29.1332C69.4578 29.1332 70.1895 28.7225 70.5688 28.2624H70.6294V28.8122C70.6294 30.2733 69.8484 31.0611 68.5893 31.0611C67.5591 31.0611 66.9194 30.3205 66.6591 29.701L65.198 30.3115C65.6177 31.3215 66.7377 32.5716 68.587 32.5716C70.5576 32.5716 72.2274 31.4112 72.2274 28.5811V21.711H70.6384V22.3417C70.6406 22.3417 70.6294 22.3417 70.6294 22.3417ZM68.6992 27.6317C67.5389 27.6317 66.5693 26.6621 66.5693 25.3222C66.5693 23.9711 67.5389 22.9925 68.6992 22.9925C69.8484 22.9925 70.7394 23.9823 70.7394 25.3222C70.7506 26.6621 69.8506 27.6317 68.6992 27.6317ZM90.6403 17.6621H86.6206V28.911H88.3017V24.6511H90.6426C92.5032 24.6511 94.3323 23.3023 94.3323 21.1611C94.3323 19.02 92.5099 17.6621 90.6403 17.6621ZM90.6897 23.0801H88.2994V19.2197H90.6897C91.9488 19.2197 92.6603 20.2589 92.6603 21.1499C92.6603 22.0319 91.9398 23.0801 90.6897 23.0801ZM101.07 21.4708C99.849 21.4708 98.5899 22.0117 98.0692 23.19L99.5595 23.8095C99.8805 23.19 100.468 22.9791 101.09 22.9791C101.961 22.9791 102.841 23.4998 102.861 24.4289V24.5479C102.56 24.3773 101.9 24.117 101.11 24.117C99.5012 24.117 97.8695 24.9968 97.8695 26.6464C97.8695 28.1569 99.1892 29.1264 100.659 29.1264C101.788 29.1264 102.41 28.617 102.798 28.0267H102.859V28.8975H104.479V24.5883C104.479 22.5818 102.989 21.4708 101.07 21.4708ZM100.859 27.6317C100.309 27.6317 99.5393 27.3624 99.5393 26.6711C99.5393 25.8003 100.5 25.4703 101.319 25.4703C102.06 25.4703 102.41 25.6297 102.85 25.8496C102.729 26.8596 101.876 27.6227 100.859 27.6317ZM110.391 21.711L108.461 26.5903H108.4L106.4 21.711H104.591L107.592 28.5317L105.882 32.3225H107.633L112.249 21.711H110.391ZM95.2593 28.911H96.9403V17.6621H95.2593V28.911Z" fill="black"/>
<path fill-rule="evenodd" clip-rule="evenodd" d="M8.41072 8.69126C8.15037 8.97181 8 9.40049 8 9.96158V29.8626C8 30.4237 8.15037 30.8524 8.4197 31.1217L8.48927 31.1823L19.6394 20.0322V19.783L8.4803 8.63066L8.41072 8.69126Z" fill="url(#paint0_linear)"/>
<path fill-rule="evenodd" clip-rule="evenodd" d="M23.3493 23.7601L19.6304 20.0412V19.7808L23.3493 16.0619L23.4301 16.1112L27.8291 18.6115C29.0882 19.3207 29.0882 20.4923 27.8291 21.2105L23.4301 23.7107L23.3493 23.7601Z" fill="url(#paint1_linear)"/>
<path fill-rule="evenodd" clip-rule="evenodd" d="M23.4302 23.7107L19.6304 19.911L8.41077 31.1307C8.82149 31.5706 9.51051 31.62 10.2803 31.1913L23.4302 23.7107Z" fill="url(#paint2_linear)"/>
<path fill-rule="evenodd" clip-rule="evenodd" d="M23.4302 16.1112L10.2803 8.6419C9.51051 8.202 8.81924 8.2626 8.41077 8.7025L19.6304 19.911L23.4302 16.1112Z" fill="url(#paint3_linear)"/>
<path opacity="0.2" fill-rule="evenodd" clip-rule="evenodd" d="M23.3495 23.6299L10.2894 31.0499C9.55995 31.4696 8.90908 31.4404 8.48938 31.0589L8.4198 31.1285L8.48938 31.1891C8.90908 31.5684 9.55995 31.5998 10.2894 31.1801L23.4393 23.7107L23.3495 23.6299Z" fill="black"/>
<path opacity="0.12" fill-rule="evenodd" clip-rule="evenodd" d="M27.8291 21.0803L23.3381 23.6299L23.4189 23.7107L27.8179 21.2105C28.4486 20.8514 28.7583 20.3801 28.7583 19.911C28.7202 20.3419 28.3992 20.7504 27.8291 21.0803Z" fill="black"/>
<path opacity="0.25" fill-rule="evenodd" clip-rule="evenodd" d="M10.2803 8.7721L27.8291 18.7417C28.3992 19.0626 28.7201 19.4823 28.7695 19.911C28.7695 19.4419 28.4598 18.9706 27.8291 18.6115L10.2803 8.64193C9.02119 7.92148 8 8.52298 8 9.96163V10.0918C8 8.65091 9.02119 8.06063 10.2803 8.7721Z" fill="white"/>
</g>
<defs>
<linearGradient id="paint0_linear" x1="18.6392" y1="9.74687" x2="0.7787" y2="14.5058" gradientUnits="userSpaceOnUse">
<stop stop-color="#00A0FF"/>
<stop offset="0.00657" stop-color="#00A1FF"/>
<stop offset="0.2601" stop-color="#00BEFF"/>
<stop offset="0.5122" stop-color="#00D2FF"/>
<stop offset="0.7604" stop-color="#00DFFF"/>
<stop offset="1" stop-color="#00E3FF"/>
</linearGradient>
<linearGradient id="paint1_linear" x1="29.4711" y1="19.911" x2="7.69392" y2="19.911" gradientUnits="userSpaceOnUse">
<stop stop-color="#FFE000"/>
<stop offset="0.4087" stop-color="#FFBD00"/>
<stop offset="0.7754" stop-color="#FFA500"/>
<stop offset="1" stop-color="#FF9C00"/>
</linearGradient>
<linearGradient id="paint2_linear" x1="21.364" y1="21.9786" x2="7.02561" y2="46.1112" gradientUnits="userSpaceOnUse">
<stop stop-color="#FF3A44"/>
<stop offset="1" stop-color="#C31162"/>
</linearGradient>
<linearGradient id="paint3_linear" x1="5.58553" y1="2.07189" x2="11.9825" y2="12.8499" gradientUnits="userSpaceOnUse">
<stop stop-color="#32A071"/>
<stop offset="0.0685" stop-color="#2DA771"/>
<stop offset="0.4762" stop-color="#15CF74"/>
<stop offset="0.8009" stop-color="#06E775"/>
<stop offset="1" stop-color="#00F076"/>
</linearGradient>
<clipPath id="clip0">
<rect width="119.664" height="40" fill="white"/>
</clipPath>
</defs>
</svg>
