<svg fill="none" height="48" viewBox="0 0 321 70" width="192" xmlns="http://www.w3.org/2000/svg"><path d="M24.968.8c4.416 0 8.352 1.024 11.808 3.072 3.52 1.984 6.272 4.768 8.256 8.352 1.984 3.52 2.976 7.552 2.976 12.096s-.992 8.608-2.976 12.192c-1.984 3.52-4.736 6.304-8.256 8.352-3.456 1.984-7.392 2.976-11.808 2.976H11.24V68H.2V.8zm-.672 37.152c3.648 0 6.656-1.28 9.024-3.84 2.432-2.624 3.648-5.888 3.648-9.792s-1.216-7.136-3.648-9.696c-2.368-2.624-5.376-3.936-9.024-3.936H11.24v27.264zm51.949 31.2c-4.8 0-8.992-1.024-12.576-3.072-3.584-2.048-6.336-4.864-8.256-8.448-1.856-3.584-2.784-7.584-2.784-12s.928-8.416 2.784-12c1.92-3.584 4.672-6.4 8.256-8.448 3.584-2.048 7.776-3.072 12.576-3.072s8.992 1.024 12.576 3.072 6.304 4.864 8.16 8.448c1.92 3.584 2.88 7.584 2.88 12s-.96 8.416-2.88 12c-1.856 3.584-4.576 6.4-8.16 8.448s-7.776 3.072-12.576 3.072zm0-9.312c4.096 0 7.296-1.312 9.6-3.936 2.368-2.624 3.552-6.048 3.552-10.272s-1.184-7.648-3.552-10.272c-2.304-2.624-5.504-3.936-9.6-3.936s-7.328 1.312-9.696 3.936c-2.304 2.624-3.456 6.048-3.456 10.272s1.152 7.648 3.456 10.272c2.368 2.624 5.6 3.936 9.696 3.936zm55.166-15.168L150.803 68h-13.728l-16.416-20.352V68h-10.464V.8h10.464v42.048l16.896-19.584h13.248zm64.502-1.344c0 1.152-.096 3.072-.288 5.76h-33.216c.128 3.52 1.28 6.24 3.456 8.16 2.176 1.856 5.184 2.784 9.024 2.784 2.56 0 4.64-.416 6.24-1.248s2.848-2.112 3.744-3.84h10.56c-.704 4.16-2.976 7.584-6.816 10.272-3.776 2.624-8.352 3.936-13.728 3.936-7.04 0-12.608-2.112-16.704-6.336s-6.144-9.952-6.144-17.184c0-4.736.928-8.864 2.784-12.384 1.856-3.584 4.48-6.336 7.872-8.256s7.328-2.88 11.808-2.88c4.224 0 7.936.896 11.136 2.688 3.264 1.792 5.792 4.288 7.584 7.488s2.688 6.88 2.688 11.04zm-10.272-2.208c-.064-3.456-1.088-6.112-3.072-7.968-1.92-1.856-4.672-2.784-8.256-2.784-3.648 0-6.528.992-8.64 2.976s-3.2 4.576-3.264 7.776zm40.472 18.048c2.112 0 3.872-.128 5.28-.384V68c-2.176.384-4.768.576-7.776.576-3.968 0-7.392-.96-10.272-2.88-2.816-1.984-4.224-6.272-4.224-12.864V32h-7.584v-8.736h7.584V9.728h10.464v13.536h10.272V32h-10.272v18.432c0 2.496.224 4.384.672 5.664.512 1.216 1.216 2.048 2.112 2.496.96.384 2.208.576 3.744.576zm35.457 0c2.112 0 3.872-.128 5.28-.384V68c-2.176.384-4.768.576-7.776.576-3.968 0-7.392-.96-10.272-2.88-2.816-1.984-4.224-6.272-4.224-12.864V32h-7.584v-8.736h7.584V9.728h10.464v13.536h10.272V32h-10.272v18.432c0 2.496.224 4.384.672 5.664.512 1.216 1.216 2.048 2.112 2.496.96.384 2.208.576 3.744.576zm34.987 9.984c-4.8 0-8.992-1.024-12.576-3.072s-6.336-4.864-8.256-8.448c-1.856-3.584-2.784-7.584-2.784-12s.928-8.416 2.784-12c1.92-3.584 4.672-6.4 8.256-8.448s7.776-3.072 12.576-3.072 8.992 1.024 12.576 3.072 6.304 4.864 8.16 8.448c1.92 3.584 2.88 7.584 2.88 12s-.96 8.416-2.88 12c-1.856 3.584-4.576 6.4-8.16 8.448s-7.776 3.072-12.576 3.072zm0-9.312c4.096 0 7.296-1.312 9.6-3.936 2.368-2.624 3.552-6.048 3.552-10.272s-1.184-7.648-3.552-10.272c-2.304-2.624-5.504-3.936-9.6-3.936s-7.328 1.312-9.696 3.936c-2.304 2.624-3.456 6.048-3.456 10.272s1.152 7.648 3.456 10.272c2.368 2.624 5.6 3.936 9.696 3.936z" fill="#111"/></svg>