<svg height="296" width="296" xmlns="http://www.w3.org/2000/svg" xmlns:xlink="http://www.w3.org/1999/xlink"><defs><path id="a" d="M0 0h8v8H0z"/></defs><path d="M0 0h296v296H0z" fill="#fff"/><use x="32" xlink:href="#a" y="32"/><use x="32" xlink:href="#a" y="40"/><use x="32" xlink:href="#a" y="48"/><use x="32" xlink:href="#a" y="56"/><use x="32" xlink:href="#a" y="64"/><use x="32" xlink:href="#a" y="72"/><use x="32" xlink:href="#a" y="80"/><use x="32" xlink:href="#a" y="96"/><use x="32" xlink:href="#a" y="104"/><use x="32" xlink:href="#a" y="120"/><use x="32" xlink:href="#a" y="128"/><use x="32" xlink:href="#a" y="136"/><use x="32" xlink:href="#a" y="144"/><use x="32" xlink:href="#a" y="168"/><use x="32" xlink:href="#a" y="184"/><use x="32" xlink:href="#a" y="208"/><use x="32" xlink:href="#a" y="216"/><use x="32" xlink:href="#a" y="224"/><use x="32" xlink:href="#a" y="232"/><use x="32" xlink:href="#a" y="240"/><use x="32" xlink:href="#a" y="248"/><use x="32" xlink:href="#a" y="256"/><use x="40" xlink:href="#a" y="32"/><use x="40" xlink:href="#a" y="80"/><use x="40" xlink:href="#a" y="96"/><use x="40" xlink:href="#a" y="104"/><use x="40" xlink:href="#a" y="136"/><use x="40" xlink:href="#a" y="160"/><use x="40" xlink:href="#a" y="176"/><use x="40" xlink:href="#a" y="184"/><use x="40" xlink:href="#a" y="192"/><use x="40" xlink:href="#a" y="208"/><use x="40" xlink:href="#a" y="256"/><use x="48" xlink:href="#a" y="32"/><use x="48" xlink:href="#a" y="48"/><use x="48" xlink:href="#a" y="56"/><use x="48" xlink:href="#a" y="64"/><use x="48" xlink:href="#a" y="80"/><use x="48" xlink:href="#a" y="144"/><use x="48" xlink:href="#a" y="152"/><use x="48" xlink:href="#a" y="160"/><use x="48" xlink:href="#a" y="176"/><use x="48" xlink:href="#a" y="192"/><use x="48" xlink:href="#a" y="208"/><use x="48" xlink:href="#a" y="224"/><use x="48" xlink:href="#a" y="232"/><use x="48" xlink:href="#a" y="240"/><use x="48" xlink:href="#a" y="256"/><use x="56" xlink:href="#a" y="32"/><use x="56" xlink:href="#a" y="48"/><use x="56" xlink:href="#a" y="56"/><use x="56" xlink:href="#a" y="64"/><use x="56" xlink:href="#a" y="80"/><use x="56" xlink:href="#a" y="96"/><use x="56" xlink:href="#a" y="104"/><use x="56" xlink:href="#a" y="128"/><use x="56" xlink:href="#a" y="144"/><use x="56" xlink:href="#a" y="168"/><use x="56" xlink:href="#a" y="184"/><use x="56" xlink:href="#a" y="192"/><use x="56" xlink:href="#a" y="208"/><use x="56" xlink:href="#a" y="224"/><use x="56" xlink:href="#a" y="232"/><use x="56" xlink:href="#a" y="240"/><use x="56" xlink:href="#a" y="256"/><use x="64" xlink:href="#a" y="32"/><use x="64" xlink:href="#a" y="48"/><use x="64" xlink:href="#a" y="56"/><use x="64" xlink:href="#a" y="64"/><use x="64" xlink:href="#a" y="80"/><use x="64" xlink:href="#a" y="104"/><use x="64" xlink:href="#a" y="112"/><use x="64" xlink:href="#a" y="152"/><use x="64" xlink:href="#a" y="176"/><use x="64" xlink:href="#a" y="192"/><use x="64" xlink:href="#a" y="208"/><use x="64" xlink:href="#a" y="224"/><use x="64" xlink:href="#a" y="232"/><use x="64" xlink:href="#a" y="240"/><use x="64" xlink:href="#a" y="256"/><use x="72" xlink:href="#a" y="32"/><use x="72" xlink:href="#a" y="80"/><use x="72" xlink:href="#a" y="104"/><use x="72" xlink:href="#a" y="112"/><use x="72" xlink:href="#a" y="120"/><use x="72" xlink:href="#a" y="136"/><use x="72" xlink:href="#a" y="144"/><use x="72" xlink:href="#a" y="152"/><use x="72" xlink:href="#a" y="160"/><use x="72" xlink:href="#a" y="184"/><use x="72" xlink:href="#a" y="192"/><use x="72" xlink:href="#a" y="208"/><use x="72" xlink:href="#a" y="256"/><use x="80" xlink:href="#a" y="32"/><use x="80" xlink:href="#a" y="40"/><use x="80" xlink:href="#a" y="48"/><use x="80" xlink:href="#a" y="56"/><use x="80" xlink:href="#a" y="64"/><use x="80" xlink:href="#a" y="72"/><use x="80" xlink:href="#a" y="80"/><use x="80" xlink:href="#a" y="96"/><use x="80" xlink:href="#a" y="112"/><use x="80" xlink:href="#a" y="128"/><use x="80" xlink:href="#a" y="144"/><use x="80" xlink:href="#a" y="160"/><use x="80" xlink:href="#a" y="176"/><use x="80" xlink:href="#a" y="192"/><use x="80" xlink:href="#a" y="208"/><use x="80" xlink:href="#a" y="216"/><use x="80" xlink:href="#a" y="224"/><use x="80" xlink:href="#a" y="232"/><use x="80" xlink:href="#a" y="240"/><use x="80" xlink:href="#a" y="248"/><use x="80" xlink:href="#a" y="256"/><use x="88" xlink:href="#a" y="96"/><use x="88" xlink:href="#a" y="128"/><use x="88" xlink:href="#a" y="136"/><use x="88" xlink:href="#a" y="176"/><use x="88" xlink:href="#a" y="184"/><use x="88" xlink:href="#a" y="192"/><use x="96" xlink:href="#a" y="40"/><use x="96" xlink:href="#a" y="48"/><use x="96" xlink:href="#a" y="64"/><use x="96" xlink:href="#a" y="72"/><use x="96" xlink:href="#a" y="80"/><use x="96" xlink:href="#a" y="88"/><use x="96" xlink:href="#a" y="112"/><use x="96" xlink:href="#a" y="120"/><use x="96" xlink:href="#a" y="128"/><use x="96" xlink:href="#a" y="144"/><use x="96" xlink:href="#a" y="152"/><use x="96" xlink:href="#a" y="160"/><use x="96" xlink:href="#a" y="184"/><use x="96" xlink:href="#a" y="192"/><use x="96" xlink:href="#a" y="200"/><use x="96" xlink:href="#a" y="208"/><use x="96" xlink:href="#a" y="232"/><use x="96" xlink:href="#a" y="248"/><use x="96" xlink:href="#a" y="256"/><use x="104" xlink:href="#a" y="32"/><use x="104" xlink:href="#a" y="48"/><use x="104" xlink:href="#a" y="56"/><use x="104" xlink:href="#a" y="72"/><use x="104" xlink:href="#a" y="88"/><use x="104" xlink:href="#a" y="112"/><use x="104" xlink:href="#a" y="144"/><use x="104" xlink:href="#a" y="152"/><use x="104" xlink:href="#a" y="184"/><use x="104" xlink:href="#a" y="208"/><use x="104" xlink:href="#a" y="232"/><use x="104" xlink:href="#a" y="248"/><use x="112" xlink:href="#a" y="48"/><use x="112" xlink:href="#a" y="56"/><use x="112" xlink:href="#a" y="80"/><use x="112" xlink:href="#a" y="96"/><use x="112" xlink:href="#a" y="104"/><use x="112" xlink:href="#a" y="112"/><use x="112" xlink:href="#a" y="136"/><use x="112" xlink:href="#a" y="160"/><use x="112" xlink:href="#a" y="176"/><use x="112" xlink:href="#a" y="208"/><use x="112" xlink:href="#a" y="216"/><use x="112" xlink:href="#a" y="224"/><use x="112" xlink:href="#a" y="232"/><use x="112" xlink:href="#a" y="240"/><use x="120" xlink:href="#a" y="40"/><use x="120" xlink:href="#a" y="48"/><use x="120" xlink:href="#a" y="56"/><use x="120" xlink:href="#a" y="72"/><use x="120" xlink:href="#a" y="104"/><use x="120" xlink:href="#a" y="136"/><use x="120" xlink:href="#a" y="160"/><use x="120" xlink:href="#a" y="184"/><use x="120" xlink:href="#a" y="192"/><use x="120" xlink:href="#a" y="200"/><use x="120" xlink:href="#a" y="208"/><use x="120" xlink:href="#a" y="216"/><use x="120" xlink:href="#a" y="224"/><use x="120" xlink:href="#a" y="232"/><use x="120" xlink:href="#a" y="240"/><use x="120" xlink:href="#a" y="248"/><use x="128" xlink:href="#a" y="32"/><use x="128" xlink:href="#a" y="40"/><use x="128" xlink:href="#a" y="48"/><use x="128" xlink:href="#a" y="80"/><use x="128" xlink:href="#a" y="88"/><use x="128" xlink:href="#a" y="128"/><use x="128" xlink:href="#a" y="136"/><use x="128" xlink:href="#a" y="144"/><use x="128" xlink:href="#a" y="152"/><use x="128" xlink:href="#a" y="192"/><use x="128" xlink:href="#a" y="200"/><use x="128" xlink:href="#a" y="208"/><use x="128" xlink:href="#a" y="216"/><use x="128" xlink:href="#a" y="256"/><use x="136" xlink:href="#a" y="64"/><use x="136" xlink:href="#a" y="72"/><use x="136" xlink:href="#a" y="104"/><use x="136" xlink:href="#a" y="120"/><use x="136" xlink:href="#a" y="128"/><use x="136" xlink:href="#a" y="144"/><use x="136" xlink:href="#a" y="152"/><use x="136" xlink:href="#a" y="168"/><use x="136" xlink:href="#a" y="192"/><use x="136" xlink:href="#a" y="208"/><use x="136" xlink:href="#a" y="216"/><use x="136" xlink:href="#a" y="232"/><use x="136" xlink:href="#a" y="240"/><use x="136" xlink:href="#a" y="256"/><use x="144" xlink:href="#a" y="32"/><use x="144" xlink:href="#a" y="40"/><use x="144" xlink:href="#a" y="48"/><use x="144" xlink:href="#a" y="72"/><use x="144" xlink:href="#a" y="80"/><use x="144" xlink:href="#a" y="88"/><use x="144" xlink:href="#a" y="96"/><use x="144" xlink:href="#a" y="112"/><use x="144" xlink:href="#a" y="120"/><use x="144" xlink:href="#a" y="128"/><use x="144" xlink:href="#a" y="136"/><use x="144" xlink:href="#a" y="144"/><use x="144" xlink:href="#a" y="152"/><use x="144" xlink:href="#a" y="168"/><use x="144" xlink:href="#a" y="184"/><use x="144" xlink:href="#a" y="200"/><use x="144" xlink:href="#a" y="208"/><use x="144" xlink:href="#a" y="216"/><use x="144" xlink:href="#a" y="224"/><use x="144" xlink:href="#a" y="240"/><use x="152" xlink:href="#a" y="32"/><use x="152" xlink:href="#a" y="40"/><use x="152" xlink:href="#a" y="48"/><use x="152" xlink:href="#a" y="56"/><use x="152" xlink:href="#a" y="72"/><use x="152" xlink:href="#a" y="88"/><use x="152" xlink:href="#a" y="96"/><use x="152" xlink:href="#a" y="136"/><use x="152" xlink:href="#a" y="216"/><use x="160" xlink:href="#a" y="48"/><use x="160" xlink:href="#a" y="64"/><use x="160" xlink:href="#a" y="72"/><use x="160" xlink:href="#a" y="80"/><use x="160" xlink:href="#a" y="88"/><use x="160" xlink:href="#a" y="120"/><use x="160" xlink:href="#a" y="128"/><use x="160" xlink:href="#a" y="144"/><use x="160" xlink:href="#a" y="152"/><use x="160" xlink:href="#a" y="160"/><use x="160" xlink:href="#a" y="208"/><use x="160" xlink:href="#a" y="232"/><use x="160" xlink:href="#a" y="240"/><use x="168" xlink:href="#a" y="48"/><use x="168" xlink:href="#a" y="88"/><use x="168" xlink:href="#a" y="104"/><use x="168" xlink:href="#a" y="128"/><use x="168" xlink:href="#a" y="136"/><use x="168" xlink:href="#a" y="144"/><use x="168" xlink:href="#a" y="152"/><use x="168" xlink:href="#a" y="160"/><use x="168" xlink:href="#a" y="176"/><use x="168" xlink:href="#a" y="184"/><use x="168" xlink:href="#a" y="200"/><use x="168" xlink:href="#a" y="208"/><use x="168" xlink:href="#a" y="224"/><use x="168" xlink:href="#a" y="232"/><use x="168" xlink:href="#a" y="248"/><use x="168" xlink:href="#a" y="256"/><use x="176" xlink:href="#a" y="40"/><use x="176" xlink:href="#a" y="48"/><use x="176" xlink:href="#a" y="56"/><use x="176" xlink:href="#a" y="64"/><use x="176" xlink:href="#a" y="72"/><use x="176" xlink:href="#a" y="80"/><use x="176" xlink:href="#a" y="88"/><use x="176" xlink:href="#a" y="96"/><use x="176" xlink:href="#a" y="104"/><use x="176" xlink:href="#a" y="112"/><use x="176" xlink:href="#a" y="128"/><use x="176" xlink:href="#a" y="136"/><use x="176" xlink:href="#a" y="160"/><use x="176" xlink:href="#a" y="168"/><use x="176" xlink:href="#a" y="192"/><use x="176" xlink:href="#a" y="200"/><use x="176" xlink:href="#a" y="208"/><use x="176" xlink:href="#a" y="216"/><use x="176" xlink:href="#a" y="224"/><use x="176" xlink:href="#a" y="232"/><use x="176" xlink:href="#a" y="240"/><use x="184" xlink:href="#a" y="32"/><use x="184" xlink:href="#a" y="56"/><use x="184" xlink:href="#a" y="72"/><use x="184" xlink:href="#a" y="112"/><use x="184" xlink:href="#a" y="120"/><use x="184" xlink:href="#a" y="136"/><use x="184" xlink:href="#a" y="152"/><use x="184" xlink:href="#a" y="160"/><use x="184" xlink:href="#a" y="184"/><use x="184" xlink:href="#a" y="200"/><use x="184" xlink:href="#a" y="208"/><use x="184" xlink:href="#a" y="248"/><use x="192" xlink:href="#a" y="32"/><use x="192" xlink:href="#a" y="40"/><use x="192" xlink:href="#a" y="72"/><use x="192" xlink:href="#a" y="80"/><use x="192" xlink:href="#a" y="96"/><use x="192" xlink:href="#a" y="144"/><use x="192" xlink:href="#a" y="152"/><use x="192" xlink:href="#a" y="168"/><use x="192" xlink:href="#a" y="176"/><use x="192" xlink:href="#a" y="184"/><use x="192" xlink:href="#a" y="192"/><use x="192" xlink:href="#a" y="200"/><use x="192" xlink:href="#a" y="208"/><use x="192" xlink:href="#a" y="216"/><use x="192" xlink:href="#a" y="224"/><use x="192" xlink:href="#a" y="232"/><use x="192" xlink:href="#a" y="248"/><use x="192" xlink:href="#a" y="256"/><use x="200" xlink:href="#a" y="112"/><use x="200" xlink:href="#a" y="192"/><use x="200" xlink:href="#a" y="224"/><use x="200" xlink:href="#a" y="232"/><use x="200" xlink:href="#a" y="240"/><use x="200" xlink:href="#a" y="248"/><use x="200" xlink:href="#a" y="256"/><use x="208" xlink:href="#a" y="32"/><use x="208" xlink:href="#a" y="40"/><use x="208" xlink:href="#a" y="48"/><use x="208" xlink:href="#a" y="56"/><use x="208" xlink:href="#a" y="64"/><use x="208" xlink:href="#a" y="72"/><use x="208" xlink:href="#a" y="80"/><use x="208" xlink:href="#a" y="96"/><use x="208" xlink:href="#a" y="104"/><use x="208" xlink:href="#a" y="120"/><use x="208" xlink:href="#a" y="128"/><use x="208" xlink:href="#a" y="144"/><use x="208" xlink:href="#a" y="168"/><use x="208" xlink:href="#a" y="184"/><use x="208" xlink:href="#a" y="192"/><use x="208" xlink:href="#a" y="208"/><use x="208" xlink:href="#a" y="224"/><use x="208" xlink:href="#a" y="232"/><use x="208" xlink:href="#a" y="256"/><use x="216" xlink:href="#a" y="32"/><use x="216" xlink:href="#a" y="80"/><use x="216" xlink:href="#a" y="96"/><use x="216" xlink:href="#a" y="104"/><use x="216" xlink:href="#a" y="120"/><use x="216" xlink:href="#a" y="144"/><use x="216" xlink:href="#a" y="160"/><use x="216" xlink:href="#a" y="176"/><use x="216" xlink:href="#a" y="184"/><use x="216" xlink:href="#a" y="192"/><use x="216" xlink:href="#a" y="224"/><use x="216" xlink:href="#a" y="232"/><use x="216" xlink:href="#a" y="248"/><use x="224" xlink:href="#a" y="32"/><use x="224" xlink:href="#a" y="48"/><use x="224" xlink:href="#a" y="56"/><use x="224" xlink:href="#a" y="64"/><use x="224" xlink:href="#a" y="80"/><use x="224" xlink:href="#a" y="96"/><use x="224" xlink:href="#a" y="112"/><use x="224" xlink:href="#a" y="128"/><use x="224" xlink:href="#a" y="144"/><use x="224" xlink:href="#a" y="176"/><use x="224" xlink:href="#a" y="192"/><use x="224" xlink:href="#a" y="200"/><use x="224" xlink:href="#a" y="208"/><use x="224" xlink:href="#a" y="216"/><use x="224" xlink:href="#a" y="224"/><use x="224" xlink:href="#a" y="240"/><use x="232" xlink:href="#a" y="32"/><use x="232" xlink:href="#a" y="48"/><use x="232" xlink:href="#a" y="56"/><use x="232" xlink:href="#a" y="64"/><use x="232" xlink:href="#a" y="80"/><use x="232" xlink:href="#a" y="104"/><use x="232" xlink:href="#a" y="112"/><use x="232" xlink:href="#a" y="120"/><use x="232" xlink:href="#a" y="128"/><use x="232" xlink:href="#a" y="136"/><use x="232" xlink:href="#a" y="152"/><use x="232" xlink:href="#a" y="168"/><use x="232" xlink:href="#a" y="176"/><use x="232" xlink:href="#a" y="184"/><use x="232" xlink:href="#a" y="200"/><use x="232" xlink:href="#a" y="208"/><use x="232" xlink:href="#a" y="240"/><use x="232" xlink:href="#a" y="248"/><use x="240" xlink:href="#a" y="32"/><use x="240" xlink:href="#a" y="48"/><use x="240" xlink:href="#a" y="56"/><use x="240" xlink:href="#a" y="64"/><use x="240" xlink:href="#a" y="80"/><use x="240" xlink:href="#a" y="96"/><use x="240" xlink:href="#a" y="104"/><use x="240" xlink:href="#a" y="112"/><use x="240" xlink:href="#a" y="120"/><use x="240" xlink:href="#a" y="176"/><use x="240" xlink:href="#a" y="192"/><use x="240" xlink:href="#a" y="216"/><use x="240" xlink:href="#a" y="224"/><use x="248" xlink:href="#a" y="32"/><use x="248" xlink:href="#a" y="80"/><use x="248" xlink:href="#a" y="96"/><use x="248" xlink:href="#a" y="152"/><use x="248" xlink:href="#a" y="176"/><use x="248" xlink:href="#a" y="184"/><use x="248" xlink:href="#a" y="216"/><use x="248" xlink:href="#a" y="232"/><use x="248" xlink:href="#a" y="248"/><use x="248" xlink:href="#a" y="256"/><use x="256" xlink:href="#a" y="32"/><use x="256" xlink:href="#a" y="40"/><use x="256" xlink:href="#a" y="48"/><use x="256" xlink:href="#a" y="56"/><use x="256" xlink:href="#a" y="64"/><use x="256" xlink:href="#a" y="72"/><use x="256" xlink:href="#a" y="80"/><use x="256" xlink:href="#a" y="104"/><use x="256" xlink:href="#a" y="120"/><use x="256" xlink:href="#a" y="128"/><use x="256" xlink:href="#a" y="144"/><use x="256" xlink:href="#a" y="160"/><use x="256" xlink:href="#a" y="168"/><use x="256" xlink:href="#a" y="176"/><use x="256" xlink:href="#a" y="184"/><use x="256" xlink:href="#a" y="192"/><use x="256" xlink:href="#a" y="200"/><use x="256" xlink:href="#a" y="216"/><use x="256" xlink:href="#a" y="240"/></svg>